<?xml version="1.0" encoding="utf-8" standalone="no"?>
<!DOCTYPE svg PUBLIC "-//W3C//DTD SVG 1.1//EN"
  "http://www.w3.org/Graphics/SVG/1.1/DTD/svg11.dtd">
<svg xmlns:xlink="http://www.w3.org/1999/xlink" width="854.482187pt" height="351.308125pt" viewBox="0 0 854.482187 351.308125" xmlns="http://www.w3.org/2000/svg" version="1.1">
 <metadata>
  <rdf:RDF xmlns:dc="http://purl.org/dc/elements/1.1/" xmlns:cc="http://creativecommons.org/ns#" xmlns:rdf="http://www.w3.org/1999/02/22-rdf-syntax-ns#">
   <cc:Work>
    <dc:type rdf:resource="http://purl.org/dc/dcmitype/StillImage"/>
    <dc:date>2026-01-23T01:39:34.009115</dc:date>
    <dc:format>image/svg+xml</dc:format>
    <dc:creator>
     <cc:Agent>
      <dc:title>Matplotlib v3.7.1, https://matplotlib.org/</dc:title>
     </cc:Agent>
    </dc:creator>
   </cc:Work>
  </rdf:RDF>
 </metadata>
 <defs>
  <style type="text/css">*{stroke-linejoin: round; stroke-linecap: butt}</style>
 </defs>
 <g id="figure_1">
  <g id="patch_1">
   <path d="M 0 351.308125 
L 854.482187 351.308125 
L 854.482187 0 
L 0 0 
z
" style="fill: #ffffff"/>
  </g>
  <g id="axes_1">
   <g id="patch_2">
    <path d="M 83.532813 310.677813 
L 843.782812 310.677813 
L 843.782812 23.837812 
L 83.532813 23.837812 
z
" style="fill: #ffffff"/>
   </g>
   <g id="patch_3">
    <path d="M 843.782812 297.639631 
L 130.075351 297.639631 
L 130.075351 277.053028 
L 843.782812 277.053028 
z
" clip-path="url(#p35b925ae7c)" style="fill: #808080; opacity: 0.7"/>
   </g>
   <g id="patch_4">
    <path d="M 843.782812 263.328626 
L 207.613131 263.328626 
L 207.613131 242.742023 
L 843.782812 242.742023 
z
" clip-path="url(#p35b925ae7c)" style="fill: #808080; opacity: 0.7"/>
   </g>
   <g id="patch_5">
    <path d="M 843.782812 229.017621 
L 275.476486 229.017621 
L 275.476486 208.431018 
L 843.782812 208.431018 
z
" clip-path="url(#p35b925ae7c)" style="fill: #008000; opacity: 0.7"/>
   </g>
   <g id="patch_6">
    <path d="M 843.782812 194.706616 
L 306.807309 194.706616 
L 306.807309 174.120013 
L 843.782812 174.120013 
z
" clip-path="url(#p35b925ae7c)" style="fill: #008000; opacity: 0.7"/>
   </g>
   <g id="patch_7">
    <path d="M 843.782812 160.395612 
L 439.9 160.395612 
L 439.9 139.809009 
L 843.782812 139.809009 
z
" clip-path="url(#p35b925ae7c)" style="fill: #ffa500; opacity: 0.7"/>
   </g>
   <g id="patch_8">
    <path d="M 843.782812 126.084607 
L 519.308651 126.084607 
L 519.308651 105.498004 
L 843.782812 105.498004 
z
" clip-path="url(#p35b925ae7c)" style="fill: #0000ff; opacity: 0.7"/>
   </g>
   <g id="patch_9">
    <path d="M 843.782812 91.773602 
L 582.446875 91.773602 
L 582.446875 71.186999 
L 843.782812 71.186999 
z
" clip-path="url(#p35b925ae7c)" style="fill: #ff0000; opacity: 0.7"/>
   </g>
   <g id="patch_10">
    <path d="M 843.782812 57.462597 
L 661.855526 57.462597 
L 661.855526 36.875994 
L 843.782812 36.875994 
z
" clip-path="url(#p35b925ae7c)" style="fill: #800080; opacity: 0.7"/>
   </g>
   <g id="matplotlib.axis_1">
    <g id="xtick_1">
     <g id="line2d_1">
      <path d="M 131.048437 310.677813 
L 131.048437 23.837812 
" clip-path="url(#p35b925ae7c)" style="fill: none; stroke: #b0b0b0; stroke-opacity: 0.3; stroke-width: 0.8; stroke-linecap: square"/>
     </g>
     <g id="line2d_2">
      <defs>
       <path id="md43a2a6ade" d="M 0 0 
L 0 3.5 
" style="stroke: #000000; stroke-width: 0.8"/>
      </defs>
      <g>
       <use xlink:href="#md43a2a6ade" x="131.048437" y="310.677813" style="stroke: #000000; stroke-width: 0.8"/>
      </g>
     </g>
     <g id="text_1">
      <!-- −30 -->
      <g transform="translate(119.440859 326.036094) scale(0.11 -0.11)">
       <defs>
        <path id="DejaVuSerif-2212" d="M 678 2259 
L 4684 2259 
L 4684 1753 
L 678 1753 
L 678 2259 
z
" transform="scale(0.015625)"/>
        <path id="DejaVuSerif-33" d="M 622 4469 
Q 988 4606 1323 4678 
Q 1659 4750 1953 4750 
Q 2638 4750 3022 4454 
Q 3406 4159 3406 3634 
Q 3406 3213 3140 2930 
Q 2875 2647 2388 2547 
Q 2963 2466 3280 2130 
Q 3597 1794 3597 1259 
Q 3597 606 3158 257 
Q 2719 -91 1894 -91 
Q 1528 -91 1179 -12 
Q 831 66 488 225 
L 488 1131 
L 838 1131 
Q 869 681 1141 450 
Q 1413 219 1906 219 
Q 2384 219 2661 495 
Q 2938 772 2938 1253 
Q 2938 1803 2653 2086 
Q 2369 2369 1819 2369 
L 1522 2369 
L 1522 2688 
L 1678 2688 
Q 2225 2688 2498 2914 
Q 2772 3141 2772 3597 
Q 2772 4006 2547 4223 
Q 2322 4441 1900 4441 
Q 1478 4441 1245 4241 
Q 1013 4041 972 3647 
L 622 3647 
L 622 4469 
z
" transform="scale(0.015625)"/>
        <path id="DejaVuSerif-30" d="M 2034 219 
Q 2513 219 2750 744 
Q 2988 1269 2988 2328 
Q 2988 3391 2750 3916 
Q 2513 4441 2034 4441 
Q 1556 4441 1318 3916 
Q 1081 3391 1081 2328 
Q 1081 1269 1318 744 
Q 1556 219 2034 219 
z
M 2034 -91 
Q 1275 -91 848 546 
Q 422 1184 422 2328 
Q 422 3475 848 4112 
Q 1275 4750 2034 4750 
Q 2797 4750 3222 4112 
Q 3647 3475 3647 2328 
Q 3647 1184 3222 546 
Q 2797 -91 2034 -91 
z
" transform="scale(0.015625)"/>
       </defs>
       <use xlink:href="#DejaVuSerif-2212"/>
       <use xlink:href="#DejaVuSerif-33" x="83.789062"/>
       <use xlink:href="#DejaVuSerif-30" x="147.412109"/>
      </g>
     </g>
    </g>
    <g id="xtick_2">
     <g id="line2d_3">
      <path d="M 249.8375 310.677813 
L 249.8375 23.837812 
" clip-path="url(#p35b925ae7c)" style="fill: none; stroke: #b0b0b0; stroke-opacity: 0.3; stroke-width: 0.8; stroke-linecap: square"/>
     </g>
     <g id="line2d_4">
      <g>
       <use xlink:href="#md43a2a6ade" x="249.8375" y="310.677813" style="stroke: #000000; stroke-width: 0.8"/>
      </g>
     </g>
     <g id="text_2">
      <!-- −25 -->
      <g transform="translate(238.229922 326.036094) scale(0.11 -0.11)">
       <defs>
        <path id="DejaVuSerif-32" d="M 819 3553 
L 469 3553 
L 469 4384 
Q 803 4563 1142 4656 
Q 1481 4750 1806 4750 
Q 2534 4750 2956 4397 
Q 3378 4044 3378 3438 
Q 3378 2753 2422 1800 
Q 2347 1728 2309 1691 
L 1131 513 
L 3078 513 
L 3078 1088 
L 3444 1088 
L 3444 0 
L 434 0 
L 434 341 
L 1850 1753 
Q 2319 2222 2519 2614 
Q 2719 3006 2719 3438 
Q 2719 3909 2473 4175 
Q 2228 4441 1797 4441 
Q 1350 4441 1106 4219 
Q 863 3997 819 3553 
z
" transform="scale(0.015625)"/>
        <path id="DejaVuSerif-35" d="M 3219 4666 
L 3219 4153 
L 1081 4153 
L 1081 2816 
Q 1244 2928 1461 2984 
Q 1678 3041 1947 3041 
Q 2703 3041 3140 2622 
Q 3578 2203 3578 1478 
Q 3578 738 3136 323 
Q 2694 -91 1894 -91 
Q 1572 -91 1234 -12 
Q 897 66 544 225 
L 544 1131 
L 897 1131 
Q 925 688 1179 453 
Q 1434 219 1894 219 
Q 2388 219 2653 544 
Q 2919 869 2919 1478 
Q 2919 2084 2655 2407 
Q 2391 2731 1894 2731 
Q 1613 2731 1398 2631 
Q 1184 2531 1019 2322 
L 750 2322 
L 750 4666 
L 3219 4666 
z
" transform="scale(0.015625)"/>
       </defs>
       <use xlink:href="#DejaVuSerif-2212"/>
       <use xlink:href="#DejaVuSerif-32" x="83.789062"/>
       <use xlink:href="#DejaVuSerif-35" x="147.412109"/>
      </g>
     </g>
    </g>
    <g id="xtick_3">
     <g id="line2d_5">
      <path d="M 368.626562 310.677813 
L 368.626562 23.837812 
" clip-path="url(#p35b925ae7c)" style="fill: none; stroke: #b0b0b0; stroke-opacity: 0.3; stroke-width: 0.8; stroke-linecap: square"/>
     </g>
     <g id="line2d_6">
      <g>
       <use xlink:href="#md43a2a6ade" x="368.626562" y="310.677813" style="stroke: #000000; stroke-width: 0.8"/>
      </g>
     </g>
     <g id="text_3">
      <!-- −20 -->
      <g transform="translate(357.018984 326.036094) scale(0.11 -0.11)">
       <use xlink:href="#DejaVuSerif-2212"/>
       <use xlink:href="#DejaVuSerif-32" x="83.789062"/>
       <use xlink:href="#DejaVuSerif-30" x="147.412109"/>
      </g>
     </g>
    </g>
    <g id="xtick_4">
     <g id="line2d_7">
      <path d="M 487.415625 310.677813 
L 487.415625 23.837812 
" clip-path="url(#p35b925ae7c)" style="fill: none; stroke: #b0b0b0; stroke-opacity: 0.3; stroke-width: 0.8; stroke-linecap: square"/>
     </g>
     <g id="line2d_8">
      <g>
       <use xlink:href="#md43a2a6ade" x="487.415625" y="310.677813" style="stroke: #000000; stroke-width: 0.8"/>
      </g>
     </g>
     <g id="text_4">
      <!-- −15 -->
      <g transform="translate(475.808047 326.036094) scale(0.11 -0.11)">
       <defs>
        <path id="DejaVuSerif-31" d="M 909 0 
L 909 331 
L 1722 331 
L 1722 4213 
L 781 3603 
L 781 4013 
L 1919 4750 
L 2350 4750 
L 2350 331 
L 3163 331 
L 3163 0 
L 909 0 
z
" transform="scale(0.015625)"/>
       </defs>
       <use xlink:href="#DejaVuSerif-2212"/>
       <use xlink:href="#DejaVuSerif-31" x="83.789062"/>
       <use xlink:href="#DejaVuSerif-35" x="147.412109"/>
      </g>
     </g>
    </g>
    <g id="xtick_5">
     <g id="line2d_9">
      <path d="M 606.204687 310.677813 
L 606.204687 23.837812 
" clip-path="url(#p35b925ae7c)" style="fill: none; stroke: #b0b0b0; stroke-opacity: 0.3; stroke-width: 0.8; stroke-linecap: square"/>
     </g>
     <g id="line2d_10">
      <g>
       <use xlink:href="#md43a2a6ade" x="606.204687" y="310.677813" style="stroke: #000000; stroke-width: 0.8"/>
      </g>
     </g>
     <g id="text_5">
      <!-- −10 -->
      <g transform="translate(594.597109 326.036094) scale(0.11 -0.11)">
       <use xlink:href="#DejaVuSerif-2212"/>
       <use xlink:href="#DejaVuSerif-31" x="83.789062"/>
       <use xlink:href="#DejaVuSerif-30" x="147.412109"/>
      </g>
     </g>
    </g>
    <g id="xtick_6">
     <g id="line2d_11">
      <path d="M 724.99375 310.677813 
L 724.99375 23.837812 
" clip-path="url(#p35b925ae7c)" style="fill: none; stroke: #b0b0b0; stroke-opacity: 0.3; stroke-width: 0.8; stroke-linecap: square"/>
     </g>
     <g id="line2d_12">
      <g>
       <use xlink:href="#md43a2a6ade" x="724.99375" y="310.677813" style="stroke: #000000; stroke-width: 0.8"/>
      </g>
     </g>
     <g id="text_6">
      <!-- −5 -->
      <g transform="translate(716.885547 326.036094) scale(0.11 -0.11)">
       <use xlink:href="#DejaVuSerif-2212"/>
       <use xlink:href="#DejaVuSerif-35" x="83.789062"/>
      </g>
     </g>
    </g>
    <g id="xtick_7">
     <g id="line2d_13">
      <path d="M 843.782812 310.677813 
L 843.782812 23.837812 
" clip-path="url(#p35b925ae7c)" style="fill: none; stroke: #b0b0b0; stroke-opacity: 0.3; stroke-width: 0.8; stroke-linecap: square"/>
     </g>
     <g id="line2d_14">
      <g>
       <use xlink:href="#md43a2a6ade" x="843.782812" y="310.677813" style="stroke: #000000; stroke-width: 0.8"/>
      </g>
     </g>
     <g id="text_7">
      <!-- 0 -->
      <g transform="translate(840.283437 326.036094) scale(0.11 -0.11)">
       <use xlink:href="#DejaVuSerif-30"/>
      </g>
     </g>
    </g>
    <g id="text_8">
     <!-- log₁₀(Mass / kg) -->
     <g transform="translate(415.6025 341.441875) scale(0.12 -0.12)">
      <defs>
       <path id="DejaVuSerif-6c" d="M 1313 331 
L 1856 331 
L 1856 0 
L 184 0 
L 184 331 
L 738 331 
L 738 4531 
L 184 4531 
L 184 4863 
L 1313 4863 
L 1313 331 
z
" transform="scale(0.015625)"/>
       <path id="DejaVuSerif-6f" d="M 1925 219 
Q 2388 219 2623 584 
Q 2859 950 2859 1663 
Q 2859 2375 2623 2739 
Q 2388 3103 1925 3103 
Q 1463 3103 1227 2739 
Q 991 2375 991 1663 
Q 991 950 1228 584 
Q 1466 219 1925 219 
z
M 1925 -91 
Q 1200 -91 759 389 
Q 319 869 319 1663 
Q 319 2456 758 2934 
Q 1197 3413 1925 3413 
Q 2653 3413 3092 2934 
Q 3531 2456 3531 1663 
Q 3531 869 3092 389 
Q 2653 -91 1925 -91 
z
" transform="scale(0.015625)"/>
       <path id="DejaVuSerif-67" d="M 3359 2988 
L 3359 72 
Q 3359 -644 2965 -1033 
Q 2572 -1422 1844 -1422 
Q 1516 -1422 1216 -1362 
Q 916 -1303 641 -1184 
L 641 -488 
L 941 -488 
Q 997 -813 1206 -963 
Q 1416 -1113 1806 -1113 
Q 2313 -1113 2548 -827 
Q 2784 -541 2784 72 
L 2784 519 
Q 2616 206 2355 57 
Q 2094 -91 1709 -91 
Q 1097 -91 708 395 
Q 319 881 319 1663 
Q 319 2444 706 2928 
Q 1094 3413 1709 3413 
Q 2094 3413 2355 3264 
Q 2616 3116 2784 2803 
L 2784 3322 
L 3909 3322 
L 3909 2988 
L 3359 2988 
z
M 2784 1825 
Q 2784 2422 2554 2737 
Q 2325 3053 1888 3053 
Q 1444 3053 1217 2703 
Q 991 2353 991 1663 
Q 991 975 1217 622 
Q 1444 269 1888 269 
Q 2325 269 2554 583 
Q 2784 897 2784 1497 
L 2784 1825 
z
" transform="scale(0.015625)"/>
       <path id="DejaVuSerif-2081" d="M 550 -24 
L 550 238 
L 1088 238 
L 1088 2219 
L 459 1888 
L 459 2182 
L 1209 2585 
L 1528 2585 
L 1528 238 
L 2069 238 
L 2069 -24 
L 550 -24 
z
" transform="scale(0.015625)"/>
       <path id="DejaVuSerif-2080" d="M 784 394 
Q 950 101 1281 101 
Q 1613 101 1778 394 
Q 1944 688 1944 1285 
Q 1944 1879 1778 2172 
Q 1613 2466 1281 2466 
Q 950 2466 784 2172 
Q 619 1879 619 1285 
Q 619 688 784 394 
z
M 2106 285 
Q 1809 -71 1281 -71 
Q 753 -71 456 285 
Q 163 641 163 1285 
Q 163 1926 456 2282 
Q 753 2638 1281 2638 
Q 1809 2638 2106 2282 
Q 2400 1926 2400 1285 
Q 2400 641 2106 285 
z
" transform="scale(0.015625)"/>
       <path id="DejaVuSerif-28" d="M 2041 -997 
Q 1281 -656 893 83 
Q 506 822 506 1931 
Q 506 3044 893 3783 
Q 1281 4522 2041 4863 
L 2041 4556 
Q 1559 4225 1350 3623 
Q 1141 3022 1141 1931 
Q 1141 844 1350 242 
Q 1559 -359 2041 -691 
L 2041 -997 
z
" transform="scale(0.015625)"/>
       <path id="DejaVuSerif-4d" d="M 353 0 
L 353 331 
L 947 331 
L 947 4331 
L 319 4331 
L 319 4666 
L 1678 4666 
L 3316 1344 
L 4953 4666 
L 6228 4666 
L 6228 4331 
L 5606 4331 
L 5606 331 
L 6203 331 
L 6203 0 
L 4378 0 
L 4378 331 
L 4972 331 
L 4972 3938 
L 3372 684 
L 2931 684 
L 1331 3938 
L 1331 331 
L 1925 331 
L 1925 0 
L 353 0 
z
" transform="scale(0.015625)"/>
       <path id="DejaVuSerif-61" d="M 2547 1044 
L 2547 1747 
L 1806 1747 
Q 1378 1747 1168 1562 
Q 959 1378 959 997 
Q 959 650 1171 447 
Q 1384 244 1747 244 
Q 2106 244 2326 466 
Q 2547 688 2547 1044 
z
M 3122 2075 
L 3122 331 
L 3634 331 
L 3634 0 
L 2547 0 
L 2547 359 
Q 2356 128 2106 18 
Q 1856 -91 1522 -91 
Q 969 -91 644 203 
Q 319 497 319 997 
Q 319 1513 691 1797 
Q 1063 2081 1741 2081 
L 2547 2081 
L 2547 2309 
Q 2547 2688 2317 2895 
Q 2088 3103 1672 3103 
Q 1328 3103 1125 2947 
Q 922 2791 872 2484 
L 575 2484 
L 575 3156 
Q 875 3284 1158 3348 
Q 1441 3413 1709 3413 
Q 2400 3413 2761 3070 
Q 3122 2728 3122 2075 
z
" transform="scale(0.015625)"/>
       <path id="DejaVuSerif-73" d="M 359 184 
L 359 959 
L 691 959 
Q 703 588 923 403 
Q 1144 219 1575 219 
Q 1963 219 2166 364 
Q 2369 509 2369 788 
Q 2369 1006 2220 1140 
Q 2072 1275 1594 1428 
L 1178 1569 
Q 750 1706 558 1912 
Q 366 2119 366 2438 
Q 366 2894 700 3153 
Q 1034 3413 1625 3413 
Q 1888 3413 2178 3344 
Q 2469 3275 2778 3144 
L 2778 2419 
L 2447 2419 
Q 2434 2741 2221 2922 
Q 2009 3103 1644 3103 
Q 1281 3103 1095 2975 
Q 909 2847 909 2591 
Q 909 2381 1050 2254 
Q 1191 2128 1613 1997 
L 2069 1856 
Q 2541 1709 2748 1489 
Q 2956 1269 2956 922 
Q 2956 450 2595 179 
Q 2234 -91 1600 -91 
Q 1278 -91 972 -22 
Q 666 47 359 184 
z
" transform="scale(0.015625)"/>
       <path id="DejaVuSerif-20" transform="scale(0.015625)"/>
       <path id="DejaVuSerif-2f" d="M 1656 4666 
L 2156 4666 
L 500 -594 
L 0 -594 
L 1656 4666 
z
" transform="scale(0.015625)"/>
       <path id="DejaVuSerif-6b" d="M 1831 0 
L 219 0 
L 219 331 
L 738 331 
L 738 4531 
L 184 4531 
L 184 4863 
L 1313 4863 
L 1313 1697 
L 2713 2988 
L 2234 2988 
L 2234 3322 
L 3738 3322 
L 3738 2988 
L 3169 2988 
L 2181 2075 
L 3444 331 
L 3922 331 
L 3922 0 
L 2284 0 
L 2284 331 
L 2759 331 
L 1766 1697 
L 1313 1275 
L 1313 331 
L 1831 331 
L 1831 0 
z
" transform="scale(0.015625)"/>
       <path id="DejaVuSerif-29" d="M 453 -997 
L 453 -691 
Q 934 -359 1145 242 
Q 1356 844 1356 1931 
Q 1356 3022 1145 3623 
Q 934 4225 453 4556 
L 453 4863 
Q 1216 4522 1603 3783 
Q 1991 3044 1991 1931 
Q 1991 822 1603 83 
Q 1216 -656 453 -997 
z
" transform="scale(0.015625)"/>
      </defs>
      <use xlink:href="#DejaVuSerif-6c"/>
      <use xlink:href="#DejaVuSerif-6f" x="31.982422"/>
      <use xlink:href="#DejaVuSerif-67" x="92.1875"/>
      <use xlink:href="#DejaVuSerif-2081" x="156.201172"/>
      <use xlink:href="#DejaVuSerif-2080" x="196.289062"/>
      <use xlink:href="#DejaVuSerif-28" x="236.376953"/>
      <use xlink:href="#DejaVuSerif-4d" x="275.390625"/>
      <use xlink:href="#DejaVuSerif-61" x="377.783203"/>
      <use xlink:href="#DejaVuSerif-73" x="437.402344"/>
      <use xlink:href="#DejaVuSerif-73" x="488.720703"/>
      <use xlink:href="#DejaVuSerif-20" x="540.039062"/>
      <use xlink:href="#DejaVuSerif-2f" x="571.826172"/>
      <use xlink:href="#DejaVuSerif-20" x="605.517578"/>
      <use xlink:href="#DejaVuSerif-6b" x="637.304688"/>
      <use xlink:href="#DejaVuSerif-67" x="697.900391"/>
      <use xlink:href="#DejaVuSerif-29" x="761.914062"/>
     </g>
    </g>
   </g>
   <g id="matplotlib.axis_2">
    <g id="ytick_1">
     <g id="line2d_15">
      <path d="M 83.532813 287.346329 
L 843.782812 287.346329 
" clip-path="url(#p35b925ae7c)" style="fill: none; stroke: #b0b0b0; stroke-opacity: 0.3; stroke-width: 0.8; stroke-linecap: square"/>
     </g>
     <g id="line2d_16">
      <defs>
       <path id="m1c0134fe96" d="M 0 0 
L -3.5 0 
" style="stroke: #000000; stroke-width: 0.8"/>
      </defs>
      <g>
       <use xlink:href="#m1c0134fe96" x="83.532813" y="287.346329" style="stroke: #000000; stroke-width: 0.8"/>
      </g>
     </g>
     <g id="text_9">
      <!-- Electron -->
      <g transform="translate(33.25625 291.145548) scale(0.1 -0.1)">
       <defs>
        <path id="DejaVuSerif-45" d="M 353 0 
L 353 331 
L 947 331 
L 947 4331 
L 353 4331 
L 353 4666 
L 4109 4666 
L 4109 3628 
L 3725 3628 
L 3725 4281 
L 1581 4281 
L 1581 2719 
L 3109 2719 
L 3109 3303 
L 3494 3303 
L 3494 1753 
L 3109 1753 
L 3109 2338 
L 1581 2338 
L 1581 384 
L 3775 384 
L 3775 1038 
L 4159 1038 
L 4159 0 
L 353 0 
z
" transform="scale(0.015625)"/>
        <path id="DejaVuSerif-65" d="M 3469 1600 
L 991 1600 
L 991 1575 
Q 991 903 1244 561 
Q 1497 219 1991 219 
Q 2369 219 2611 417 
Q 2853 616 2950 1006 
L 3413 1006 
Q 3275 459 2904 184 
Q 2534 -91 1931 -91 
Q 1203 -91 761 389 
Q 319 869 319 1663 
Q 319 2450 753 2931 
Q 1188 3413 1894 3413 
Q 2647 3413 3050 2948 
Q 3453 2484 3469 1600 
z
M 2791 1931 
Q 2772 2513 2545 2808 
Q 2319 3103 1894 3103 
Q 1497 3103 1269 2806 
Q 1041 2509 991 1931 
L 2791 1931 
z
" transform="scale(0.015625)"/>
        <path id="DejaVuSerif-63" d="M 3291 997 
Q 3169 466 2822 187 
Q 2475 -91 1925 -91 
Q 1200 -91 759 389 
Q 319 869 319 1663 
Q 319 2459 759 2936 
Q 1200 3413 1925 3413 
Q 2241 3413 2553 3339 
Q 2866 3266 3181 3116 
L 3181 2266 
L 2847 2266 
Q 2781 2703 2561 2903 
Q 2341 3103 1931 3103 
Q 1466 3103 1228 2742 
Q 991 2381 991 1663 
Q 991 944 1227 581 
Q 1463 219 1931 219 
Q 2303 219 2525 412 
Q 2747 606 2828 997 
L 3291 997 
z
" transform="scale(0.015625)"/>
        <path id="DejaVuSerif-74" d="M 691 2988 
L 184 2988 
L 184 3322 
L 691 3322 
L 691 4353 
L 1269 4353 
L 1269 3322 
L 2350 3322 
L 2350 2988 
L 1269 2988 
L 1269 878 
Q 1269 456 1350 337 
Q 1431 219 1650 219 
Q 1875 219 1978 351 
Q 2081 484 2088 781 
L 2522 781 
Q 2497 328 2275 118 
Q 2053 -91 1600 -91 
Q 1103 -91 897 129 
Q 691 350 691 878 
L 691 2988 
z
" transform="scale(0.015625)"/>
        <path id="DejaVuSerif-72" d="M 3059 3328 
L 3059 2497 
L 2728 2497 
Q 2713 2744 2591 2866 
Q 2469 2988 2234 2988 
Q 1809 2988 1582 2694 
Q 1356 2400 1356 1850 
L 1356 331 
L 2022 331 
L 2022 0 
L 263 0 
L 263 331 
L 781 331 
L 781 2994 
L 231 2994 
L 231 3322 
L 1356 3322 
L 1356 2731 
Q 1525 3078 1790 3245 
Q 2056 3413 2438 3413 
Q 2578 3413 2733 3391 
Q 2888 3369 3059 3328 
z
" transform="scale(0.015625)"/>
        <path id="DejaVuSerif-6e" d="M 263 0 
L 263 331 
L 781 331 
L 781 2988 
L 231 2988 
L 231 3322 
L 1356 3322 
L 1356 2731 
Q 1516 3069 1770 3241 
Q 2025 3413 2363 3413 
Q 2913 3413 3172 3097 
Q 3431 2781 3431 2113 
L 3431 331 
L 3944 331 
L 3944 0 
L 2356 0 
L 2356 331 
L 2853 331 
L 2853 1931 
Q 2853 2541 2703 2767 
Q 2553 2994 2175 2994 
Q 1775 2994 1565 2701 
Q 1356 2409 1356 1850 
L 1356 331 
L 1856 331 
L 1856 0 
L 263 0 
z
" transform="scale(0.015625)"/>
       </defs>
       <use xlink:href="#DejaVuSerif-45"/>
       <use xlink:href="#DejaVuSerif-6c" x="72.998047"/>
       <use xlink:href="#DejaVuSerif-65" x="104.980469"/>
       <use xlink:href="#DejaVuSerif-63" x="164.160156"/>
       <use xlink:href="#DejaVuSerif-74" x="220.166016"/>
       <use xlink:href="#DejaVuSerif-72" x="260.351562"/>
       <use xlink:href="#DejaVuSerif-6f" x="308.154297"/>
       <use xlink:href="#DejaVuSerif-6e" x="368.359375"/>
      </g>
     </g>
    </g>
    <g id="ytick_2">
     <g id="line2d_17">
      <path d="M 83.532813 253.035324 
L 843.782812 253.035324 
" clip-path="url(#p35b925ae7c)" style="fill: none; stroke: #b0b0b0; stroke-opacity: 0.3; stroke-width: 0.8; stroke-linecap: square"/>
     </g>
     <g id="line2d_18">
      <g>
       <use xlink:href="#m1c0134fe96" x="83.532813" y="253.035324" style="stroke: #000000; stroke-width: 0.8"/>
      </g>
     </g>
     <g id="text_10">
      <!-- Proton -->
      <g transform="translate(42.525 256.834543) scale(0.1 -0.1)">
       <defs>
        <path id="DejaVuSerif-50" d="M 1581 2375 
L 2406 2375 
Q 2872 2375 3115 2626 
Q 3359 2878 3359 3353 
Q 3359 3831 3115 4081 
Q 2872 4331 2406 4331 
L 1581 4331 
L 1581 2375 
z
M 353 0 
L 353 331 
L 947 331 
L 947 4331 
L 353 4331 
L 353 4666 
L 2559 4666 
Q 3259 4666 3668 4311 
Q 4078 3956 4078 3353 
Q 4078 2753 3668 2397 
Q 3259 2041 2559 2041 
L 1581 2041 
L 1581 331 
L 2303 331 
L 2303 0 
L 353 0 
z
" transform="scale(0.015625)"/>
       </defs>
       <use xlink:href="#DejaVuSerif-50"/>
       <use xlink:href="#DejaVuSerif-72" x="67.285156"/>
       <use xlink:href="#DejaVuSerif-6f" x="115.087891"/>
       <use xlink:href="#DejaVuSerif-74" x="175.292969"/>
       <use xlink:href="#DejaVuSerif-6f" x="215.478516"/>
       <use xlink:href="#DejaVuSerif-6e" x="275.683594"/>
      </g>
     </g>
    </g>
    <g id="ytick_3">
     <g id="line2d_19">
      <path d="M 83.532813 218.72432 
L 843.782812 218.72432 
" clip-path="url(#p35b925ae7c)" style="fill: none; stroke: #b0b0b0; stroke-opacity: 0.3; stroke-width: 0.8; stroke-linecap: square"/>
     </g>
     <g id="line2d_20">
      <g>
       <use xlink:href="#m1c0134fe96" x="83.532813" y="218.72432" style="stroke: #000000; stroke-width: 0.8"/>
      </g>
     </g>
     <g id="text_11">
      <!-- C60 molecule -->
      <g transform="translate(7.2 222.523538) scale(0.1 -0.1)">
       <defs>
        <path id="DejaVuSerif-43" d="M 4513 1234 
Q 4306 581 3820 245 
Q 3334 -91 2591 -91 
Q 2134 -91 1743 65 
Q 1353 222 1050 525 
Q 700 875 529 1320 
Q 359 1766 359 2328 
Q 359 3416 987 4083 
Q 1616 4750 2644 4750 
Q 3025 4750 3456 4650 
Q 3888 4550 4384 4347 
L 4384 3272 
L 4031 3272 
Q 3916 3859 3567 4137 
Q 3219 4416 2591 4416 
Q 1844 4416 1459 3886 
Q 1075 3356 1075 2328 
Q 1075 1303 1459 773 
Q 1844 244 2591 244 
Q 3113 244 3450 492 
Q 3788 741 3938 1234 
L 4513 1234 
z
" transform="scale(0.015625)"/>
        <path id="DejaVuSerif-36" d="M 2094 219 
Q 2534 219 2771 542 
Q 3009 866 3009 1472 
Q 3009 2078 2771 2401 
Q 2534 2725 2094 2725 
Q 1647 2725 1412 2412 
Q 1178 2100 1178 1509 
Q 1178 888 1415 553 
Q 1653 219 2094 219 
z
M 1075 2569 
Q 1288 2803 1556 2918 
Q 1825 3034 2163 3034 
Q 2859 3034 3264 2615 
Q 3669 2197 3669 1472 
Q 3669 763 3233 336 
Q 2797 -91 2069 -91 
Q 1278 -91 853 498 
Q 428 1088 428 2181 
Q 428 3406 931 4078 
Q 1434 4750 2350 4750 
Q 2597 4750 2869 4703 
Q 3141 4656 3425 4563 
L 3425 3794 
L 3072 3794 
Q 3034 4109 2831 4275 
Q 2628 4441 2284 4441 
Q 1678 4441 1381 3981 
Q 1084 3522 1075 2569 
z
" transform="scale(0.015625)"/>
        <path id="DejaVuSerif-6d" d="M 3316 2675 
Q 3481 3041 3739 3227 
Q 3997 3413 4341 3413 
Q 4863 3413 5119 3089 
Q 5375 2766 5375 2113 
L 5375 331 
L 5894 331 
L 5894 0 
L 4300 0 
L 4300 331 
L 4800 331 
L 4800 2047 
Q 4800 2556 4650 2772 
Q 4500 2988 4153 2988 
Q 3769 2988 3567 2697 
Q 3366 2406 3366 1850 
L 3366 331 
L 3866 331 
L 3866 0 
L 2291 0 
L 2291 331 
L 2791 331 
L 2791 2069 
Q 2791 2566 2641 2777 
Q 2491 2988 2144 2988 
Q 1759 2988 1557 2697 
Q 1356 2406 1356 1850 
L 1356 331 
L 1856 331 
L 1856 0 
L 263 0 
L 263 331 
L 781 331 
L 781 2994 
L 231 2994 
L 231 3322 
L 1356 3322 
L 1356 2731 
Q 1516 3063 1762 3238 
Q 2009 3413 2322 3413 
Q 2709 3413 2968 3220 
Q 3228 3028 3316 2675 
z
" transform="scale(0.015625)"/>
        <path id="DejaVuSerif-75" d="M 2266 3322 
L 3341 3322 
L 3341 331 
L 3884 331 
L 3884 0 
L 2766 0 
L 2766 588 
Q 2606 256 2353 82 
Q 2100 -91 1766 -91 
Q 1213 -91 952 223 
Q 691 538 691 1209 
L 691 2988 
L 172 2988 
L 172 3322 
L 1269 3322 
L 1269 1388 
Q 1269 781 1417 556 
Q 1566 331 1947 331 
Q 2347 331 2556 625 
Q 2766 919 2766 1478 
L 2766 2988 
L 2266 2988 
L 2266 3322 
z
" transform="scale(0.015625)"/>
       </defs>
       <use xlink:href="#DejaVuSerif-43"/>
       <use xlink:href="#DejaVuSerif-36" x="76.513672"/>
       <use xlink:href="#DejaVuSerif-30" x="140.136719"/>
       <use xlink:href="#DejaVuSerif-20" x="203.759766"/>
       <use xlink:href="#DejaVuSerif-6d" x="235.546875"/>
       <use xlink:href="#DejaVuSerif-6f" x="330.371094"/>
       <use xlink:href="#DejaVuSerif-6c" x="390.576172"/>
       <use xlink:href="#DejaVuSerif-65" x="422.558594"/>
       <use xlink:href="#DejaVuSerif-63" x="481.738281"/>
       <use xlink:href="#DejaVuSerif-75" x="537.744141"/>
       <use xlink:href="#DejaVuSerif-6c" x="602.148438"/>
       <use xlink:href="#DejaVuSerif-65" x="634.130859"/>
      </g>
     </g>
    </g>
    <g id="ytick_4">
     <g id="line2d_21">
      <path d="M 83.532813 184.413315 
L 843.782812 184.413315 
" clip-path="url(#p35b925ae7c)" style="fill: none; stroke: #b0b0b0; stroke-opacity: 0.3; stroke-width: 0.8; stroke-linecap: square"/>
     </g>
     <g id="line2d_22">
      <g>
       <use xlink:href="#m1c0134fe96" x="83.532813" y="184.413315" style="stroke: #000000; stroke-width: 0.8"/>
      </g>
     </g>
     <g id="text_12">
      <!-- Largest QM -->
      <g transform="translate(16.064063 183.231284) scale(0.1 -0.1)">
       <defs>
        <path id="DejaVuSerif-4c" d="M 353 0 
L 353 331 
L 947 331 
L 947 4331 
L 353 4331 
L 353 4666 
L 2175 4666 
L 2175 4331 
L 1581 4331 
L 1581 384 
L 3713 384 
L 3713 1166 
L 4097 1166 
L 4097 0 
L 353 0 
z
" transform="scale(0.015625)"/>
        <path id="DejaVuSerif-51" d="M 2700 -91 
Q 1628 -91 993 567 
Q 359 1225 359 2328 
Q 359 2894 529 3339 
Q 700 3784 1050 4134 
Q 1356 4441 1750 4595 
Q 2144 4750 2625 4750 
Q 3641 4750 4266 4084 
Q 4891 3419 4891 2328 
Q 4891 1403 4422 773 
Q 3953 144 3128 -38 
Q 3297 -247 3539 -347 
Q 3781 -447 4122 -447 
L 4219 -447 
L 4219 -1025 
Q 3691 -1000 3314 -767 
Q 2938 -534 2700 -91 
z
M 2625 244 
Q 3391 244 3781 770 
Q 4172 1297 4172 2328 
Q 4172 3363 3781 3889 
Q 3391 4416 2625 4416 
Q 1856 4416 1465 3889 
Q 1075 3363 1075 2328 
Q 1075 1297 1465 770 
Q 1856 244 2625 244 
z
" transform="scale(0.015625)"/>
       </defs>
       <use xlink:href="#DejaVuSerif-4c"/>
       <use xlink:href="#DejaVuSerif-61" x="66.40625"/>
       <use xlink:href="#DejaVuSerif-72" x="126.025391"/>
       <use xlink:href="#DejaVuSerif-67" x="173.828125"/>
       <use xlink:href="#DejaVuSerif-65" x="237.841797"/>
       <use xlink:href="#DejaVuSerif-73" x="297.021484"/>
       <use xlink:href="#DejaVuSerif-74" x="348.339844"/>
       <use xlink:href="#DejaVuSerif-20" x="388.525391"/>
       <use xlink:href="#DejaVuSerif-51" x="420.3125"/>
       <use xlink:href="#DejaVuSerif-4d" x="502.294922"/>
      </g>
      <!-- object tested -->
      <g transform="translate(10.8875 194.571284) scale(0.1 -0.1)">
       <defs>
        <path id="DejaVuSerif-62" d="M 738 331 
L 738 4531 
L 184 4531 
L 184 4863 
L 1313 4863 
L 1313 2803 
Q 1481 3116 1742 3264 
Q 2003 3413 2388 3413 
Q 3000 3413 3387 2928 
Q 3775 2444 3775 1663 
Q 3775 881 3387 395 
Q 3000 -91 2388 -91 
Q 2003 -91 1742 57 
Q 1481 206 1313 519 
L 1313 0 
L 184 0 
L 184 331 
L 738 331 
z
M 1313 1497 
Q 1313 897 1542 583 
Q 1772 269 2209 269 
Q 2650 269 2876 622 
Q 3103 975 3103 1663 
Q 3103 2353 2876 2703 
Q 2650 3053 2209 3053 
Q 1772 3053 1542 2737 
Q 1313 2422 1313 1825 
L 1313 1497 
z
" transform="scale(0.015625)"/>
        <path id="DejaVuSerif-6a" d="M 641 4353 
Q 641 4497 745 4603 
Q 850 4709 997 4709 
Q 1141 4709 1245 4603 
Q 1350 4497 1350 4353 
Q 1350 4206 1248 4103 
Q 1147 4000 997 4000 
Q 850 4000 745 4103 
Q 641 4206 641 4353 
z
M 781 2988 
L 238 2988 
L 238 3322 
L 1356 3322 
L 1356 -325 
Q 1356 -838 1051 -1130 
Q 747 -1422 213 -1422 
Q -13 -1422 -217 -1370 
Q -422 -1319 -616 -1216 
L -616 -531 
L -319 -531 
Q -297 -831 -164 -972 
Q -31 -1113 225 -1113 
Q 509 -1113 645 -920 
Q 781 -728 781 -325 
L 781 2988 
z
" transform="scale(0.015625)"/>
        <path id="DejaVuSerif-64" d="M 3359 331 
L 3909 331 
L 3909 0 
L 2784 0 
L 2784 519 
Q 2616 206 2355 57 
Q 2094 -91 1709 -91 
Q 1097 -91 708 395 
Q 319 881 319 1663 
Q 319 2444 706 2928 
Q 1094 3413 1709 3413 
Q 2094 3413 2355 3264 
Q 2616 3116 2784 2803 
L 2784 4531 
L 2241 4531 
L 2241 4863 
L 3359 4863 
L 3359 331 
z
M 2784 1497 
L 2784 1825 
Q 2784 2422 2554 2737 
Q 2325 3053 1888 3053 
Q 1444 3053 1217 2703 
Q 991 2353 991 1663 
Q 991 975 1217 622 
Q 1444 269 1888 269 
Q 2325 269 2554 583 
Q 2784 897 2784 1497 
z
" transform="scale(0.015625)"/>
       </defs>
       <use xlink:href="#DejaVuSerif-6f"/>
       <use xlink:href="#DejaVuSerif-62" x="60.205078"/>
       <use xlink:href="#DejaVuSerif-6a" x="124.21875"/>
       <use xlink:href="#DejaVuSerif-65" x="155.224609"/>
       <use xlink:href="#DejaVuSerif-63" x="214.404297"/>
       <use xlink:href="#DejaVuSerif-74" x="270.410156"/>
       <use xlink:href="#DejaVuSerif-20" x="310.595703"/>
       <use xlink:href="#DejaVuSerif-74" x="342.382812"/>
       <use xlink:href="#DejaVuSerif-65" x="382.568359"/>
       <use xlink:href="#DejaVuSerif-73" x="441.748047"/>
       <use xlink:href="#DejaVuSerif-74" x="493.066406"/>
       <use xlink:href="#DejaVuSerif-65" x="533.251953"/>
       <use xlink:href="#DejaVuSerif-64" x="592.431641"/>
      </g>
     </g>
    </g>
    <g id="ytick_5">
     <g id="line2d_23">
      <path d="M 83.532813 150.10231 
L 843.782812 150.10231 
" clip-path="url(#p35b925ae7c)" style="fill: none; stroke: #b0b0b0; stroke-opacity: 0.3; stroke-width: 0.8; stroke-linecap: square"/>
     </g>
     <g id="line2d_24">
      <g>
       <use xlink:href="#m1c0134fe96" x="83.532813" y="150.10231" style="stroke: #000000; stroke-width: 0.8"/>
      </g>
     </g>
     <g id="text_13">
      <!-- Penrose -->
      <g transform="translate(36.045313 149.062466) scale(0.1 -0.1)">
       <use xlink:href="#DejaVuSerif-50"/>
       <use xlink:href="#DejaVuSerif-65" x="62.785156"/>
       <use xlink:href="#DejaVuSerif-6e" x="121.964844"/>
       <use xlink:href="#DejaVuSerif-72" x="186.369141"/>
       <use xlink:href="#DejaVuSerif-6f" x="234.171875"/>
       <use xlink:href="#DejaVuSerif-73" x="294.376953"/>
       <use xlink:href="#DejaVuSerif-65" x="345.695312"/>
      </g>
      <!-- threshold -->
      <g transform="translate(28.182813 160.260279) scale(0.1 -0.1)">
       <defs>
        <path id="DejaVuSerif-68" d="M 263 0 
L 263 331 
L 781 331 
L 781 4531 
L 231 4531 
L 231 4863 
L 1356 4863 
L 1356 2731 
Q 1516 3069 1770 3241 
Q 2025 3413 2363 3413 
Q 2913 3413 3172 3097 
Q 3431 2781 3431 2113 
L 3431 331 
L 3944 331 
L 3944 0 
L 2356 0 
L 2356 331 
L 2853 331 
L 2853 1931 
Q 2853 2541 2704 2764 
Q 2556 2988 2175 2988 
Q 1775 2988 1565 2697 
Q 1356 2406 1356 1850 
L 1356 331 
L 1856 331 
L 1856 0 
L 263 0 
z
" transform="scale(0.015625)"/>
       </defs>
       <use xlink:href="#DejaVuSerif-74"/>
       <use xlink:href="#DejaVuSerif-68" x="40.185547"/>
       <use xlink:href="#DejaVuSerif-72" x="104.589844"/>
       <use xlink:href="#DejaVuSerif-65" x="152.392578"/>
       <use xlink:href="#DejaVuSerif-73" x="211.572266"/>
       <use xlink:href="#DejaVuSerif-68" x="262.890625"/>
       <use xlink:href="#DejaVuSerif-6f" x="327.294922"/>
       <use xlink:href="#DejaVuSerif-6c" x="387.5"/>
       <use xlink:href="#DejaVuSerif-64" x="419.482422"/>
      </g>
     </g>
    </g>
    <g id="ytick_6">
     <g id="line2d_25">
      <path d="M 83.532813 115.791305 
L 843.782812 115.791305 
" clip-path="url(#p35b925ae7c)" style="fill: none; stroke: #b0b0b0; stroke-opacity: 0.3; stroke-width: 0.8; stroke-linecap: square"/>
     </g>
     <g id="line2d_26">
      <g>
       <use xlink:href="#m1c0134fe96" x="83.532813" y="115.791305" style="stroke: #000000; stroke-width: 0.8"/>
      </g>
     </g>
     <g id="text_14">
      <!-- This work -->
      <g transform="translate(26.495313 114.751462) scale(0.1 -0.1)">
       <defs>
        <path id="DejaVuSerif-54" d="M 1222 0 
L 1222 331 
L 1819 331 
L 1819 4294 
L 447 4294 
L 447 3566 
L 63 3566 
L 63 4666 
L 4206 4666 
L 4206 3566 
L 3822 3566 
L 3822 4294 
L 2450 4294 
L 2450 331 
L 3047 331 
L 3047 0 
L 1222 0 
z
" transform="scale(0.015625)"/>
        <path id="DejaVuSerif-69" d="M 622 4353 
Q 622 4497 726 4603 
Q 831 4709 978 4709 
Q 1122 4709 1226 4603 
Q 1331 4497 1331 4353 
Q 1331 4206 1228 4103 
Q 1125 4000 978 4000 
Q 831 4000 726 4103 
Q 622 4206 622 4353 
z
M 1356 331 
L 1900 331 
L 1900 0 
L 231 0 
L 231 331 
L 781 331 
L 781 2988 
L 231 2988 
L 231 3322 
L 1356 3322 
L 1356 331 
z
" transform="scale(0.015625)"/>
        <path id="DejaVuSerif-77" d="M 3072 3322 
L 3922 728 
L 4672 2988 
L 4191 2988 
L 4191 3322 
L 5394 3322 
L 5394 2988 
L 5025 2988 
L 4038 0 
L 3559 0 
L 2741 2484 
L 1919 0 
L 1459 0 
L 475 2988 
L 103 2988 
L 103 3322 
L 1606 3322 
L 1606 2988 
L 1069 2988 
L 1813 728 
L 2669 3322 
L 3072 3322 
z
" transform="scale(0.015625)"/>
       </defs>
       <use xlink:href="#DejaVuSerif-54"/>
       <use xlink:href="#DejaVuSerif-68" x="66.699219"/>
       <use xlink:href="#DejaVuSerif-69" x="131.103516"/>
       <use xlink:href="#DejaVuSerif-73" x="163.085938"/>
       <use xlink:href="#DejaVuSerif-20" x="214.404297"/>
       <use xlink:href="#DejaVuSerif-77" x="246.191406"/>
       <use xlink:href="#DejaVuSerif-6f" x="331.787109"/>
       <use xlink:href="#DejaVuSerif-72" x="391.992188"/>
       <use xlink:href="#DejaVuSerif-6b" x="439.794922"/>
      </g>
      <!-- $M_c$ -->
      <g transform="translate(63.732813 125.949274) scale(0.1 -0.1)">
       <defs>
        <path id="DejaVuSans-Oblique-4d" d="M 1081 4666 
L 2028 4666 
L 2572 1522 
L 4378 4666 
L 5350 4666 
L 4441 0 
L 3828 0 
L 4622 4091 
L 2791 897 
L 2175 897 
L 1581 4103 
L 788 0 
L 172 0 
L 1081 4666 
z
" transform="scale(0.015625)"/>
        <path id="DejaVuSans-Oblique-63" d="M 3431 3366 
L 3316 2797 
Q 3109 2947 2876 3022 
Q 2644 3097 2394 3097 
Q 2119 3097 1870 3000 
Q 1622 2903 1453 2725 
Q 1184 2453 1037 2087 
Q 891 1722 891 1331 
Q 891 859 1127 628 
Q 1363 397 1844 397 
Q 2081 397 2348 469 
Q 2616 541 2906 684 
L 2797 116 
Q 2547 13 2283 -39 
Q 2019 -91 1741 -91 
Q 1044 -91 669 257 
Q 294 606 294 1253 
Q 294 1797 489 2255 
Q 684 2713 1069 3078 
Q 1331 3328 1684 3456 
Q 2038 3584 2456 3584 
Q 2700 3584 2940 3529 
Q 3181 3475 3431 3366 
z
" transform="scale(0.015625)"/>
       </defs>
       <use xlink:href="#DejaVuSans-Oblique-4d" transform="translate(0 0.09375)"/>
       <use xlink:href="#DejaVuSans-Oblique-63" transform="translate(86.279297 -16.3125) scale(0.7)"/>
      </g>
     </g>
    </g>
    <g id="ytick_7">
     <g id="line2d_27">
      <path d="M 83.532813 81.480301 
L 843.782812 81.480301 
" clip-path="url(#p35b925ae7c)" style="fill: none; stroke: #b0b0b0; stroke-opacity: 0.3; stroke-width: 0.8; stroke-linecap: square"/>
     </g>
     <g id="line2d_28">
      <g>
       <use xlink:href="#m1c0134fe96" x="83.532813" y="81.480301" style="stroke: #000000; stroke-width: 0.8"/>
      </g>
     </g>
     <g id="text_15">
      <!-- CSL -->
      <g transform="translate(55.390625 80.440457) scale(0.1 -0.1)">
       <defs>
        <path id="DejaVuSerif-53" d="M 594 225 
L 594 1288 
L 953 1284 
Q 969 753 1261 498 
Q 1553 244 2150 244 
Q 2706 244 2998 464 
Q 3291 684 3291 1106 
Q 3291 1444 3114 1625 
Q 2938 1806 2369 1978 
L 1753 2163 
Q 1084 2366 811 2669 
Q 538 2972 538 3500 
Q 538 4094 959 4422 
Q 1381 4750 2144 4750 
Q 2469 4750 2856 4679 
Q 3244 4609 3681 4475 
L 3681 3481 
L 3328 3481 
Q 3275 3975 2998 4195 
Q 2722 4416 2156 4416 
Q 1663 4416 1405 4214 
Q 1147 4013 1147 3628 
Q 1147 3294 1340 3103 
Q 1534 2913 2163 2725 
L 2741 2553 
Q 3375 2363 3645 2067 
Q 3916 1772 3916 1275 
Q 3916 597 3481 253 
Q 3047 -91 2188 -91 
Q 1803 -91 1404 -12 
Q 1006 66 594 225 
z
" transform="scale(0.015625)"/>
       </defs>
       <use xlink:href="#DejaVuSerif-43"/>
       <use xlink:href="#DejaVuSerif-53" x="76.513672"/>
       <use xlink:href="#DejaVuSerif-4c" x="145.019531"/>
      </g>
      <!-- threshold -->
      <g transform="translate(28.182813 91.638269) scale(0.1 -0.1)">
       <use xlink:href="#DejaVuSerif-74"/>
       <use xlink:href="#DejaVuSerif-68" x="40.185547"/>
       <use xlink:href="#DejaVuSerif-72" x="104.589844"/>
       <use xlink:href="#DejaVuSerif-65" x="152.392578"/>
       <use xlink:href="#DejaVuSerif-73" x="211.572266"/>
       <use xlink:href="#DejaVuSerif-68" x="262.890625"/>
       <use xlink:href="#DejaVuSerif-6f" x="327.294922"/>
       <use xlink:href="#DejaVuSerif-6c" x="387.5"/>
       <use xlink:href="#DejaVuSerif-64" x="419.482422"/>
      </g>
     </g>
    </g>
    <g id="ytick_8">
     <g id="line2d_29">
      <path d="M 83.532813 47.169296 
L 843.782812 47.169296 
" clip-path="url(#p35b925ae7c)" style="fill: none; stroke: #b0b0b0; stroke-opacity: 0.3; stroke-width: 0.8; stroke-linecap: square"/>
     </g>
     <g id="line2d_30">
      <g>
       <use xlink:href="#m1c0134fe96" x="83.532813" y="47.169296" style="stroke: #000000; stroke-width: 0.8"/>
      </g>
     </g>
     <g id="text_16">
      <!-- Planck -->
      <g transform="translate(42.54375 46.129452) scale(0.1 -0.1)">
       <use xlink:href="#DejaVuSerif-50"/>
       <use xlink:href="#DejaVuSerif-6c" x="67.285156"/>
       <use xlink:href="#DejaVuSerif-61" x="99.267578"/>
       <use xlink:href="#DejaVuSerif-6e" x="158.886719"/>
       <use xlink:href="#DejaVuSerif-63" x="223.291016"/>
       <use xlink:href="#DejaVuSerif-6b" x="279.296875"/>
      </g>
      <!-- mass -->
      <g transform="translate(50.825 57.327265) scale(0.1 -0.1)">
       <use xlink:href="#DejaVuSerif-6d"/>
       <use xlink:href="#DejaVuSerif-61" x="94.824219"/>
       <use xlink:href="#DejaVuSerif-73" x="154.443359"/>
       <use xlink:href="#DejaVuSerif-73" x="205.761719"/>
      </g>
     </g>
    </g>
   </g>
   <g id="line2d_31">
    <path d="M 519.308651 310.677813 
L 519.308651 23.837812 
" clip-path="url(#p35b925ae7c)" style="fill: none; stroke-dasharray: 7.4,3.2; stroke-dashoffset: 0; stroke: #0000ff; stroke-opacity: 0.7; stroke-width: 2"/>
   </g>
   <g id="patch_11">
    <path d="M 83.532813 310.677813 
L 83.532813 23.837812 
" style="fill: none; stroke: #000000; stroke-width: 0.8; stroke-linejoin: miter; stroke-linecap: square"/>
   </g>
   <g id="patch_12">
    <path d="M 843.782812 310.677813 
L 843.782812 23.837812 
" style="fill: none; stroke: #000000; stroke-width: 0.8; stroke-linejoin: miter; stroke-linecap: square"/>
   </g>
   <g id="patch_13">
    <path d="M 83.532812 310.677813 
L 843.782812 310.677813 
" style="fill: none; stroke: #000000; stroke-width: 0.8; stroke-linejoin: miter; stroke-linecap: square"/>
   </g>
   <g id="patch_14">
    <path d="M 83.532812 23.837812 
L 843.782812 23.837812 
" style="fill: none; stroke: #000000; stroke-width: 0.8; stroke-linejoin: miter; stroke-linecap: square"/>
   </g>
   <g id="text_17">
    <!-- 9e-31 kg -->
    <g transform="translate(141.954257 289.765782) scale(0.09 -0.09)">
     <defs>
      <path id="DejaVuSerif-Bold-39" d="M 2181 4384 
Q 1859 4384 1723 4111 
Q 1588 3838 1588 3163 
Q 1588 2488 1723 2214 
Q 1859 1941 2181 1941 
Q 2503 1941 2640 2214 
Q 2778 2488 2778 3163 
Q 2778 3838 2640 4111 
Q 2503 4384 2181 4384 
z
M 2878 1900 
Q 2672 1734 2420 1651 
Q 2169 1569 1875 1569 
Q 1163 1569 755 1986 
Q 347 2403 347 3138 
Q 347 3913 803 4331 
Q 1259 4750 2106 4750 
Q 3063 4750 3556 4172 
Q 4050 3594 4050 2478 
Q 4050 1206 3503 557 
Q 2956 -91 1881 -91 
Q 1600 -91 1278 -44 
Q 956 3 588 97 
L 588 922 
L 966 922 
Q 1044 603 1261 439 
Q 1478 275 1825 275 
Q 2375 275 2625 658 
Q 2875 1041 2878 1900 
z
" transform="scale(0.015625)"/>
      <path id="DejaVuSerif-Bold-65" d="M 2566 1875 
Q 2566 2531 2444 2795 
Q 2322 3059 2028 3059 
Q 1744 3059 1620 2800 
Q 1497 2541 1497 1931 
L 1497 1875 
L 2566 1875 
z
M 3781 1503 
L 1497 1503 
L 1497 1478 
Q 1497 834 1690 548 
Q 1884 263 2316 263 
Q 2675 263 2897 453 
Q 3119 644 3181 1006 
L 3700 1006 
Q 3566 441 3166 175 
Q 2766 -91 2047 -91 
Q 1184 -91 723 364 
Q 263 819 263 1663 
Q 263 2488 734 2950 
Q 1206 3413 2047 3413 
Q 2872 3413 3312 2927 
Q 3753 2441 3781 1503 
z
" transform="scale(0.015625)"/>
      <path id="DejaVuSerif-Bold-2d" d="M 347 2138 
L 2309 2138 
L 2309 1294 
L 347 1294 
L 347 2138 
z
" transform="scale(0.015625)"/>
      <path id="DejaVuSerif-Bold-33" d="M 550 4531 
Q 963 4641 1350 4695 
Q 1738 4750 2106 4750 
Q 2950 4750 3401 4448 
Q 3853 4147 3853 3584 
Q 3853 3163 3593 2900 
Q 3334 2638 2834 2547 
Q 3444 2450 3744 2131 
Q 4044 1813 4044 1259 
Q 4044 606 3526 257 
Q 3009 -91 2028 -91 
Q 1659 -91 1267 -28 
Q 875 34 447 159 
L 447 1184 
L 825 1184 
Q 859 741 1103 508 
Q 1347 275 1778 275 
Q 2253 275 2512 539 
Q 2772 803 2772 1288 
Q 2772 1794 2501 2069 
Q 2231 2344 1734 2344 
L 1528 2344 
L 1528 2719 
L 1691 2719 
Q 2150 2719 2381 2931 
Q 2613 3144 2613 3566 
Q 2613 3963 2395 4173 
Q 2178 4384 1772 4384 
Q 1403 4384 1187 4182 
Q 972 3981 928 3597 
L 550 3597 
L 550 4531 
z
" transform="scale(0.015625)"/>
      <path id="DejaVuSerif-Bold-31" d="M 878 0 
L 878 378 
L 1753 378 
L 1753 4153 
L 781 3578 
L 781 4044 
L 1953 4750 
L 2938 4750 
L 2938 378 
L 3816 378 
L 3816 0 
L 878 0 
z
" transform="scale(0.015625)"/>
      <path id="DejaVuSerif-Bold-20" transform="scale(0.015625)"/>
      <path id="DejaVuSerif-Bold-6b" d="M 2216 0 
L 219 0 
L 219 378 
L 691 378 
L 691 4488 
L 219 4488 
L 219 4863 
L 1797 4863 
L 1797 1741 
L 3138 2944 
L 2741 2944 
L 2741 3322 
L 4256 3322 
L 4256 2944 
L 3641 2944 
L 2784 2175 
L 4184 378 
L 4544 378 
L 4544 0 
L 2638 0 
L 2638 378 
L 3028 378 
L 2106 1563 
L 1797 1288 
L 1797 378 
L 2216 378 
L 2216 0 
z
" transform="scale(0.015625)"/>
      <path id="DejaVuSerif-Bold-67" d="M 3853 2944 
L 3853 44 
Q 3853 -656 3354 -1039 
Q 2856 -1422 1947 -1422 
Q 1616 -1422 1275 -1370 
Q 934 -1319 575 -1216 
L 575 -422 
L 928 -422 
Q 975 -750 1192 -909 
Q 1409 -1069 1813 -1069 
Q 2325 -1069 2536 -823 
Q 2747 -578 2747 44 
L 2747 422 
Q 2606 163 2367 36 
Q 2128 -91 1778 -91 
Q 1072 -91 667 378 
Q 263 847 263 1663 
Q 263 2481 667 2947 
Q 1072 3413 1778 3413 
Q 2128 3413 2367 3286 
Q 2606 3159 2747 2900 
L 2747 3322 
L 4325 3322 
L 4325 2944 
L 3853 2944 
z
M 2747 1825 
Q 2747 2406 2597 2665 
Q 2447 2925 2119 2925 
Q 1775 2925 1636 2651 
Q 1497 2378 1497 1663 
Q 1497 947 1637 672 
Q 1778 397 2119 397 
Q 2447 397 2597 656 
Q 2747 916 2747 1497 
L 2747 1825 
z
" transform="scale(0.015625)"/>
     </defs>
     <use xlink:href="#DejaVuSerif-Bold-39"/>
     <use xlink:href="#DejaVuSerif-Bold-65" x="69.580078"/>
     <use xlink:href="#DejaVuSerif-Bold-2d" x="133.203125"/>
     <use xlink:href="#DejaVuSerif-Bold-33" x="174.707031"/>
     <use xlink:href="#DejaVuSerif-Bold-31" x="244.287109"/>
     <use xlink:href="#DejaVuSerif-Bold-20" x="313.867188"/>
     <use xlink:href="#DejaVuSerif-Bold-6b" x="348.681641"/>
     <use xlink:href="#DejaVuSerif-Bold-67" x="417.96875"/>
    </g>
   </g>
   <g id="text_18">
    <!-- 2e-27 kg -->
    <g transform="translate(219.492037 255.454778) scale(0.09 -0.09)">
     <defs>
      <path id="DejaVuSerif-Bold-32" d="M 844 3513 
L 469 3513 
L 469 4519 
Q 850 4634 1223 4692 
Q 1597 4750 1978 4750 
Q 2869 4750 3367 4386 
Q 3866 4022 3866 3372 
Q 3866 2909 3591 2542 
Q 3316 2175 2541 1672 
L 1241 819 
L 3450 819 
L 3450 1369 
L 3878 1369 
L 3878 0 
L 428 0 
L 428 763 
L 1119 1241 
Q 2003 1850 2297 2278 
Q 2591 2706 2591 3278 
Q 2591 3819 2367 4101 
Q 2144 4384 1716 4384 
Q 1347 4384 1125 4161 
Q 903 3938 844 3513 
z
" transform="scale(0.015625)"/>
      <path id="DejaVuSerif-Bold-37" d="M 3922 3872 
L 1997 0 
L 1363 0 
L 3238 3781 
L 934 3781 
L 934 3150 
L 506 3150 
L 506 4666 
L 3922 4666 
L 3922 3872 
z
" transform="scale(0.015625)"/>
     </defs>
     <use xlink:href="#DejaVuSerif-Bold-32"/>
     <use xlink:href="#DejaVuSerif-Bold-65" x="69.580078"/>
     <use xlink:href="#DejaVuSerif-Bold-2d" x="133.203125"/>
     <use xlink:href="#DejaVuSerif-Bold-32" x="174.707031"/>
     <use xlink:href="#DejaVuSerif-Bold-37" x="244.287109"/>
     <use xlink:href="#DejaVuSerif-Bold-20" x="313.867188"/>
     <use xlink:href="#DejaVuSerif-Bold-6b" x="348.681641"/>
     <use xlink:href="#DejaVuSerif-Bold-67" x="417.96875"/>
    </g>
   </g>
   <g id="text_19">
    <!-- 1e-24 kg -->
    <g transform="translate(287.355392 221.143773) scale(0.09 -0.09)">
     <defs>
      <path id="DejaVuSerif-Bold-34" d="M 4084 0 
L 1516 0 
L 1516 378 
L 2209 378 
L 2209 1228 
L 263 1228 
L 263 1588 
L 2216 4750 
L 3391 4750 
L 3391 1631 
L 4191 1631 
L 4191 1228 
L 3391 1228 
L 3391 378 
L 4084 378 
L 4084 0 
z
M 2209 1631 
L 2209 3897 
L 819 1631 
L 2209 1631 
z
" transform="scale(0.015625)"/>
     </defs>
     <use xlink:href="#DejaVuSerif-Bold-31"/>
     <use xlink:href="#DejaVuSerif-Bold-65" x="69.580078"/>
     <use xlink:href="#DejaVuSerif-Bold-2d" x="133.203125"/>
     <use xlink:href="#DejaVuSerif-Bold-32" x="174.707031"/>
     <use xlink:href="#DejaVuSerif-Bold-34" x="244.287109"/>
     <use xlink:href="#DejaVuSerif-Bold-20" x="313.867188"/>
     <use xlink:href="#DejaVuSerif-Bold-6b" x="348.681641"/>
     <use xlink:href="#DejaVuSerif-Bold-67" x="417.96875"/>
    </g>
   </g>
   <g id="text_20">
    <!-- 3e-23 kg -->
    <g transform="translate(318.686215 186.832768) scale(0.09 -0.09)">
     <use xlink:href="#DejaVuSerif-Bold-33"/>
     <use xlink:href="#DejaVuSerif-Bold-65" x="69.580078"/>
     <use xlink:href="#DejaVuSerif-Bold-2d" x="133.203125"/>
     <use xlink:href="#DejaVuSerif-Bold-32" x="174.707031"/>
     <use xlink:href="#DejaVuSerif-Bold-33" x="244.287109"/>
     <use xlink:href="#DejaVuSerif-Bold-20" x="313.867188"/>
     <use xlink:href="#DejaVuSerif-Bold-6b" x="348.681641"/>
     <use xlink:href="#DejaVuSerif-Bold-67" x="417.96875"/>
    </g>
   </g>
   <g id="text_21">
    <!-- 1e-17 kg -->
    <g transform="translate(451.778906 152.521763) scale(0.09 -0.09)">
     <use xlink:href="#DejaVuSerif-Bold-31"/>
     <use xlink:href="#DejaVuSerif-Bold-65" x="69.580078"/>
     <use xlink:href="#DejaVuSerif-Bold-2d" x="133.203125"/>
     <use xlink:href="#DejaVuSerif-Bold-31" x="174.707031"/>
     <use xlink:href="#DejaVuSerif-Bold-37" x="244.287109"/>
     <use xlink:href="#DejaVuSerif-Bold-20" x="313.867188"/>
     <use xlink:href="#DejaVuSerif-Bold-6b" x="348.681641"/>
     <use xlink:href="#DejaVuSerif-Bold-67" x="417.96875"/>
    </g>
   </g>
   <g id="text_22">
    <!-- 2e-14 kg -->
    <g transform="translate(531.187558 118.210758) scale(0.09 -0.09)">
     <use xlink:href="#DejaVuSerif-Bold-32"/>
     <use xlink:href="#DejaVuSerif-Bold-65" x="69.580078"/>
     <use xlink:href="#DejaVuSerif-Bold-2d" x="133.203125"/>
     <use xlink:href="#DejaVuSerif-Bold-31" x="174.707031"/>
     <use xlink:href="#DejaVuSerif-Bold-34" x="244.287109"/>
     <use xlink:href="#DejaVuSerif-Bold-20" x="313.867188"/>
     <use xlink:href="#DejaVuSerif-Bold-6b" x="348.681641"/>
     <use xlink:href="#DejaVuSerif-Bold-67" x="417.96875"/>
    </g>
   </g>
   <g id="text_23">
    <!-- 1e-11 kg -->
    <g transform="translate(594.325781 83.899754) scale(0.09 -0.09)">
     <use xlink:href="#DejaVuSerif-Bold-31"/>
     <use xlink:href="#DejaVuSerif-Bold-65" x="69.580078"/>
     <use xlink:href="#DejaVuSerif-Bold-2d" x="133.203125"/>
     <use xlink:href="#DejaVuSerif-Bold-31" x="174.707031"/>
     <use xlink:href="#DejaVuSerif-Bold-31" x="244.287109"/>
     <use xlink:href="#DejaVuSerif-Bold-20" x="313.867188"/>
     <use xlink:href="#DejaVuSerif-Bold-6b" x="348.681641"/>
     <use xlink:href="#DejaVuSerif-Bold-67" x="417.96875"/>
    </g>
   </g>
   <g id="text_24">
    <!-- 2e-08 kg -->
    <g transform="translate(673.734433 49.588749) scale(0.09 -0.09)">
     <defs>
      <path id="DejaVuSerif-Bold-30" d="M 2228 275 
Q 2603 275 2742 615 
Q 2881 956 2881 2328 
Q 2881 3691 2742 4037 
Q 2603 4384 2228 4384 
Q 1853 4384 1714 4043 
Q 1575 3703 1575 2328 
Q 1575 956 1714 615 
Q 1853 275 2228 275 
z
M 2228 -91 
Q 1294 -91 797 532 
Q 300 1156 300 2328 
Q 300 3500 797 4125 
Q 1294 4750 2228 4750 
Q 3159 4750 3656 4125 
Q 4153 3500 4153 2328 
Q 4153 1156 3656 532 
Q 3159 -91 2228 -91 
z
" transform="scale(0.015625)"/>
      <path id="DejaVuSerif-Bold-38" d="M 2975 2484 
Q 3531 2394 3820 2075 
Q 4109 1756 4109 1241 
Q 4109 597 3623 253 
Q 3138 -91 2222 -91 
Q 1306 -91 818 253 
Q 331 597 331 1241 
Q 331 1756 622 2075 
Q 913 2394 1466 2484 
Q 975 2597 731 2861 
Q 488 3125 488 3531 
Q 488 4125 931 4437 
Q 1375 4750 2222 4750 
Q 3066 4750 3511 4437 
Q 3956 4125 3956 3531 
Q 3956 3125 3711 2861 
Q 3466 2597 2975 2484 
z
M 2747 3519 
Q 2747 4013 2628 4198 
Q 2509 4384 2222 4384 
Q 1931 4384 1814 4198 
Q 1697 4013 1697 3519 
Q 1697 3028 1814 2845 
Q 1931 2663 2222 2663 
Q 2513 2663 2630 2845 
Q 2747 3028 2747 3519 
z
M 2869 1294 
Q 2869 1866 2723 2081 
Q 2578 2297 2222 2297 
Q 1863 2297 1719 2081 
Q 1575 1866 1575 1294 
Q 1575 716 1720 495 
Q 1866 275 2222 275 
Q 2575 275 2722 495 
Q 2869 716 2869 1294 
z
" transform="scale(0.015625)"/>
     </defs>
     <use xlink:href="#DejaVuSerif-Bold-32"/>
     <use xlink:href="#DejaVuSerif-Bold-65" x="69.580078"/>
     <use xlink:href="#DejaVuSerif-Bold-2d" x="133.203125"/>
     <use xlink:href="#DejaVuSerif-Bold-30" x="174.707031"/>
     <use xlink:href="#DejaVuSerif-Bold-38" x="244.287109"/>
     <use xlink:href="#DejaVuSerif-Bold-20" x="313.867188"/>
     <use xlink:href="#DejaVuSerif-Bold-6b" x="348.681641"/>
     <use xlink:href="#DejaVuSerif-Bold-67" x="417.96875"/>
    </g>
   </g>
   <g id="text_25">
    <!-- Mass Scale Comparison: Quantum-Classical Boundary -->
    <g transform="translate(250.910312 17.837812) scale(0.14 -0.14)">
     <defs>
      <path id="DejaVuSerif-Bold-4d" d="M 269 0 
L 269 378 
L 863 378 
L 863 4288 
L 269 4288 
L 269 4666 
L 2194 4666 
L 3525 1672 
L 4863 4666 
L 6784 4666 
L 6784 4288 
L 6188 4288 
L 6188 378 
L 6784 378 
L 6784 0 
L 4384 0 
L 4384 378 
L 4978 378 
L 4978 3938 
L 3531 684 
L 2741 684 
L 1300 3938 
L 1300 378 
L 1894 378 
L 1894 0 
L 269 0 
z
" transform="scale(0.015625)"/>
      <path id="DejaVuSerif-Bold-61" d="M 3525 2041 
L 3525 378 
L 4000 378 
L 4000 0 
L 2419 0 
L 2419 422 
Q 2200 159 1931 34 
Q 1663 -91 1319 -91 
Q 809 -91 536 182 
Q 263 456 263 966 
Q 263 1525 655 1803 
Q 1047 2081 1838 2081 
L 2419 2081 
L 2419 2278 
Q 2419 2681 2228 2873 
Q 2038 3066 1638 3066 
Q 1306 3066 1126 2930 
Q 947 2794 872 2484 
L 519 2484 
L 519 3200 
Q 816 3306 1134 3359 
Q 1453 3413 1806 3413 
Q 2697 3413 3111 3081 
Q 3525 2750 3525 2041 
z
M 2419 1044 
L 2419 1709 
L 2003 1709 
Q 1694 1709 1528 1540 
Q 1363 1372 1363 1056 
Q 1363 741 1483 584 
Q 1603 428 1850 428 
Q 2106 428 2262 597 
Q 2419 766 2419 1044 
z
" transform="scale(0.015625)"/>
      <path id="DejaVuSerif-Bold-73" d="M 300 97 
L 300 1025 
L 653 1025 
Q 697 653 931 458 
Q 1166 263 1569 263 
Q 1906 263 2086 380 
Q 2266 497 2266 716 
Q 2266 916 2152 1025 
Q 2038 1134 1709 1216 
L 1253 1331 
Q 738 1459 506 1698 
Q 275 1938 275 2344 
Q 275 2884 650 3148 
Q 1025 3413 1806 3413 
Q 2100 3413 2433 3364 
Q 2766 3316 3169 3213 
L 3169 2375 
L 2816 2375 
Q 2788 2716 2573 2887 
Q 2359 3059 1959 3059 
Q 1622 3059 1448 2951 
Q 1275 2844 1275 2638 
Q 1275 2469 1375 2372 
Q 1475 2275 1734 2209 
L 2188 2094 
Q 2841 1928 3091 1684 
Q 3341 1441 3341 1006 
Q 3341 444 2939 176 
Q 2538 -91 1691 -91 
Q 1381 -91 1034 -44 
Q 688 3 300 97 
z
" transform="scale(0.015625)"/>
      <path id="DejaVuSerif-Bold-53" d="M 494 225 
L 494 1331 
L 891 1331 
Q 981 806 1318 547 
Q 1656 288 2253 288 
Q 2738 288 2991 472 
Q 3244 656 3244 1013 
Q 3244 1294 3072 1450 
Q 2900 1606 2363 1741 
L 1663 1913 
Q 978 2088 700 2398 
Q 422 2709 422 3284 
Q 422 3978 883 4364 
Q 1344 4750 2175 4750 
Q 2584 4750 3026 4681 
Q 3469 4613 3944 4475 
L 3944 3444 
L 3547 3444 
Q 3456 3925 3150 4148 
Q 2844 4372 2278 4372 
Q 1816 4372 1580 4211 
Q 1344 4050 1344 3731 
Q 1344 3441 1506 3289 
Q 1669 3138 2303 2975 
L 3003 2803 
Q 3653 2641 3945 2297 
Q 4238 1953 4238 1350 
Q 4238 644 3750 276 
Q 3263 -91 2316 -91 
Q 1859 -91 1409 -12 
Q 959 66 494 225 
z
" transform="scale(0.015625)"/>
      <path id="DejaVuSerif-Bold-63" d="M 3609 1038 
Q 3491 469 3123 189 
Q 2756 -91 2125 -91 
Q 1238 -91 750 368 
Q 263 828 263 1663 
Q 263 2488 744 2950 
Q 1225 3413 2081 3413 
Q 2428 3413 2781 3347 
Q 3134 3281 3500 3150 
L 3500 2228 
L 3150 2228 
Q 3100 2650 2903 2854 
Q 2706 3059 2350 3059 
Q 1888 3059 1692 2746 
Q 1497 2434 1497 1663 
Q 1497 909 1687 586 
Q 1878 263 2309 263 
Q 2644 263 2845 463 
Q 3047 663 3091 1038 
L 3609 1038 
z
" transform="scale(0.015625)"/>
      <path id="DejaVuSerif-Bold-6c" d="M 1797 378 
L 2272 378 
L 2272 0 
L 219 0 
L 219 378 
L 691 378 
L 691 4488 
L 219 4488 
L 219 4863 
L 1797 4863 
L 1797 378 
z
" transform="scale(0.015625)"/>
      <path id="DejaVuSerif-Bold-43" d="M 4769 1331 
Q 4584 609 4106 259 
Q 3628 -91 2822 -91 
Q 1641 -91 955 561 
Q 269 1213 269 2328 
Q 269 3447 955 4098 
Q 1641 4750 2822 4750 
Q 3238 4750 3688 4650 
Q 4138 4550 4641 4347 
L 4641 3200 
L 4244 3200 
Q 4122 3788 3800 4080 
Q 3478 4372 2950 4372 
Q 2269 4372 1937 3870 
Q 1606 3369 1606 2328 
Q 1606 1288 1937 788 
Q 2269 288 2956 288 
Q 3422 288 3717 547 
Q 4013 806 4147 1331 
L 4769 1331 
z
" transform="scale(0.015625)"/>
      <path id="DejaVuSerif-Bold-6f" d="M 2138 263 
Q 2488 263 2630 563 
Q 2772 863 2772 1663 
Q 2772 2463 2631 2761 
Q 2491 3059 2138 3059 
Q 1784 3059 1640 2757 
Q 1497 2456 1497 1663 
Q 1497 869 1640 566 
Q 1784 263 2138 263 
z
M 2138 -91 
Q 1259 -91 761 376 
Q 263 844 263 1663 
Q 263 2484 761 2948 
Q 1259 3413 2138 3413 
Q 3019 3413 3516 2948 
Q 4013 2484 4013 1663 
Q 4013 844 3514 376 
Q 3016 -91 2138 -91 
z
" transform="scale(0.015625)"/>
      <path id="DejaVuSerif-Bold-6d" d="M 3884 2778 
Q 4116 3109 4384 3261 
Q 4653 3413 5013 3413 
Q 5584 3413 5867 3089 
Q 6150 2766 6150 2113 
L 6150 378 
L 6625 378 
L 6625 0 
L 4647 0 
L 4647 378 
L 5044 378 
L 5044 1947 
Q 5044 2569 4948 2731 
Q 4853 2894 4594 2894 
Q 4300 2894 4137 2667 
Q 3975 2441 3975 2022 
L 3975 378 
L 4372 378 
L 4372 0 
L 2472 0 
L 2472 378 
L 2869 378 
L 2869 1947 
Q 2869 2569 2772 2731 
Q 2675 2894 2419 2894 
Q 2122 2894 1959 2667 
Q 1797 2441 1797 2022 
L 1797 378 
L 2194 378 
L 2194 0 
L 219 0 
L 219 378 
L 691 378 
L 691 2944 
L 219 2944 
L 219 3322 
L 1797 3322 
L 1797 2853 
Q 1991 3144 2241 3278 
Q 2491 3413 2834 3413 
Q 3241 3413 3494 3258 
Q 3747 3103 3884 2778 
z
" transform="scale(0.015625)"/>
      <path id="DejaVuSerif-Bold-70" d="M 1728 1825 
L 1728 1497 
Q 1728 916 1876 656 
Q 2025 397 2356 397 
Q 2697 397 2836 672 
Q 2975 947 2975 1663 
Q 2975 2378 2836 2651 
Q 2697 2925 2356 2925 
Q 2025 2925 1876 2665 
Q 1728 2406 1728 1825 
z
M 622 2944 
L 147 2944 
L 147 3322 
L 1728 3322 
L 1728 2900 
Q 1869 3159 2106 3286 
Q 2344 3413 2694 3413 
Q 3403 3413 3811 2945 
Q 4219 2478 4219 1663 
Q 4219 847 3811 378 
Q 3403 -91 2694 -91 
Q 2344 -91 2106 36 
Q 1869 163 1728 422 
L 1728 -953 
L 2241 -953 
L 2241 -1331 
L 147 -1331 
L 147 -953 
L 622 -953 
L 622 2944 
z
" transform="scale(0.015625)"/>
      <path id="DejaVuSerif-Bold-72" d="M 3438 3359 
L 3438 2369 
L 3084 2369 
Q 3066 2634 2941 2764 
Q 2816 2894 2578 2894 
Q 2216 2894 2006 2575 
Q 1797 2256 1797 1691 
L 1797 378 
L 2400 378 
L 2400 0 
L 219 0 
L 219 378 
L 691 378 
L 691 2944 
L 184 2944 
L 184 3322 
L 1797 3322 
L 1797 2731 
Q 1959 3078 2226 3245 
Q 2494 3413 2881 3413 
Q 2978 3413 3117 3398 
Q 3256 3384 3438 3359 
z
" transform="scale(0.015625)"/>
      <path id="DejaVuSerif-Bold-69" d="M 588 4263 
Q 588 4516 763 4689 
Q 938 4863 1191 4863 
Q 1438 4863 1611 4689 
Q 1784 4516 1784 4263 
Q 1784 4016 1611 3842 
Q 1438 3669 1191 3669 
Q 938 3669 763 3841 
Q 588 4013 588 4263 
z
M 1797 378 
L 2272 378 
L 2272 0 
L 219 0 
L 219 378 
L 691 378 
L 691 2944 
L 219 2944 
L 219 3322 
L 1797 3322 
L 1797 378 
z
" transform="scale(0.015625)"/>
      <path id="DejaVuSerif-Bold-6e" d="M 219 0 
L 219 378 
L 691 378 
L 691 2944 
L 219 2944 
L 219 3322 
L 1797 3322 
L 1797 2853 
Q 1997 3150 2253 3281 
Q 2509 3413 2900 3413 
Q 3459 3413 3745 3083 
Q 4031 2753 4031 2113 
L 4031 378 
L 4506 378 
L 4506 0 
L 2522 0 
L 2522 378 
L 2925 378 
L 2925 2144 
Q 2925 2566 2817 2730 
Q 2709 2894 2444 2894 
Q 2109 2894 1953 2648 
Q 1797 2403 1797 1869 
L 1797 378 
L 2203 378 
L 2203 0 
L 219 0 
z
" transform="scale(0.015625)"/>
      <path id="DejaVuSerif-Bold-3a" d="M 588 2541 
Q 588 2788 761 2963 
Q 934 3138 1178 3138 
Q 1422 3138 1597 2961 
Q 1772 2784 1772 2541 
Q 1772 2297 1598 2125 
Q 1425 1953 1178 1953 
Q 931 1953 759 2125 
Q 588 2297 588 2541 
z
M 588 506 
Q 588 750 761 925 
Q 934 1100 1178 1100 
Q 1422 1100 1597 925 
Q 1772 750 1772 506 
Q 1772 259 1597 84 
Q 1422 -91 1178 -91 
Q 934 -91 761 84 
Q 588 259 588 506 
z
" transform="scale(0.015625)"/>
      <path id="DejaVuSerif-Bold-51" d="M 2766 -91 
Q 1584 -72 926 565 
Q 269 1203 269 2328 
Q 269 3459 939 4104 
Q 1609 4750 2784 4750 
Q 3963 4750 4631 4106 
Q 5300 3463 5300 2328 
Q 5300 1334 4786 715 
Q 4272 97 3322 -50 
Q 3488 -228 3725 -306 
Q 3963 -384 4341 -384 
L 4500 -384 
L 4500 -1153 
L 4409 -1153 
Q 3816 -1153 3419 -897 
Q 3022 -641 2766 -91 
z
M 2784 288 
Q 3381 288 3672 791 
Q 3963 1294 3963 2328 
Q 3963 3366 3672 3869 
Q 3381 4372 2784 4372 
Q 2191 4372 1898 3864 
Q 1606 3356 1606 2328 
Q 1606 1303 1898 795 
Q 2191 288 2784 288 
z
" transform="scale(0.015625)"/>
      <path id="DejaVuSerif-Bold-75" d="M 3963 3322 
L 3963 378 
L 4434 378 
L 4434 0 
L 2853 0 
L 2853 469 
Q 2656 172 2400 40 
Q 2144 -91 1753 -91 
Q 1194 -91 908 239 
Q 622 569 622 1209 
L 622 2944 
L 147 2944 
L 147 3322 
L 1728 3322 
L 1728 1381 
Q 1728 763 1831 595 
Q 1934 428 2209 428 
Q 2544 428 2698 675 
Q 2853 922 2853 1459 
L 2853 2944 
L 2450 2944 
L 2450 3322 
L 3963 3322 
z
" transform="scale(0.015625)"/>
      <path id="DejaVuSerif-Bold-74" d="M 634 2944 
L 153 2944 
L 153 3322 
L 634 3322 
L 634 4353 
L 1741 4353 
L 1741 3322 
L 2663 3322 
L 2663 2944 
L 1741 2944 
L 1741 909 
Q 1741 475 1809 369 
Q 1878 263 2059 263 
Q 2259 263 2356 397 
Q 2453 531 2459 813 
L 2925 813 
Q 2897 313 2651 111 
Q 2406 -91 1806 -91 
Q 1122 -91 878 123 
Q 634 338 634 909 
L 634 2944 
z
" transform="scale(0.015625)"/>
      <path id="DejaVuSerif-Bold-42" d="M 300 0 
L 300 378 
L 897 378 
L 897 4288 
L 300 4288 
L 300 4666 
L 3066 4666 
Q 3919 4666 4347 4378 
Q 4775 4091 4775 3513 
Q 4775 3097 4479 2853 
Q 4184 2609 3603 2547 
Q 4306 2481 4681 2172 
Q 5056 1863 5056 1350 
Q 5056 656 4532 328 
Q 4009 0 2894 0 
L 300 0 
z
M 2100 2719 
L 2509 2719 
Q 3047 2719 3306 2914 
Q 3566 3109 3566 3513 
Q 3566 3919 3314 4103 
Q 3063 4288 2509 4288 
L 2100 4288 
L 2100 2719 
z
M 2100 378 
L 2547 378 
Q 3144 378 3431 615 
Q 3719 853 3719 1350 
Q 3719 1850 3428 2097 
Q 3138 2344 2547 2344 
L 2100 2344 
L 2100 378 
z
" transform="scale(0.015625)"/>
      <path id="DejaVuSerif-Bold-64" d="M 2747 1497 
L 2747 1825 
Q 2747 2406 2597 2665 
Q 2447 2925 2119 2925 
Q 1775 2925 1636 2651 
Q 1497 2378 1497 1663 
Q 1497 947 1637 672 
Q 1778 397 2119 397 
Q 2447 397 2597 656 
Q 2747 916 2747 1497 
z
M 3853 378 
L 4325 378 
L 4325 0 
L 2747 0 
L 2747 422 
Q 2606 163 2367 36 
Q 2128 -91 1778 -91 
Q 1072 -91 667 378 
Q 263 847 263 1663 
Q 263 2481 667 2947 
Q 1072 3413 1778 3413 
Q 2128 3413 2367 3286 
Q 2606 3159 2747 2900 
L 2747 4488 
L 2272 4488 
L 2272 4863 
L 3853 4863 
L 3853 378 
z
" transform="scale(0.015625)"/>
      <path id="DejaVuSerif-Bold-79" d="M 1997 -750 
Q 1847 -1116 1634 -1269 
Q 1422 -1422 1063 -1422 
Q 909 -1422 721 -1387 
Q 534 -1353 313 -1288 
L 313 -594 
L 666 -597 
Q 675 -838 779 -953 
Q 884 -1069 1094 -1069 
Q 1297 -1069 1422 -958 
Q 1547 -847 1672 -538 
L 1722 -422 
L 275 2944 
L -84 2944 
L -84 3322 
L 1831 3322 
L 1831 2944 
L 1434 2944 
L 2278 978 
L 3066 2944 
L 2625 2944 
L 2625 3322 
L 3872 3322 
L 3872 2944 
L 3469 2944 
L 1997 -750 
z
" transform="scale(0.015625)"/>
     </defs>
     <use xlink:href="#DejaVuSerif-Bold-4d"/>
     <use xlink:href="#DejaVuSerif-Bold-61" x="110.693359"/>
     <use xlink:href="#DejaVuSerif-Bold-73" x="175.488281"/>
     <use xlink:href="#DejaVuSerif-Bold-73" x="231.787109"/>
     <use xlink:href="#DejaVuSerif-Bold-20" x="288.085938"/>
     <use xlink:href="#DejaVuSerif-Bold-53" x="322.900391"/>
     <use xlink:href="#DejaVuSerif-Bold-63" x="395.117188"/>
     <use xlink:href="#DejaVuSerif-Bold-61" x="456.005859"/>
     <use xlink:href="#DejaVuSerif-Bold-6c" x="520.800781"/>
     <use xlink:href="#DejaVuSerif-Bold-65" x="558.789062"/>
     <use xlink:href="#DejaVuSerif-Bold-20" x="622.412109"/>
     <use xlink:href="#DejaVuSerif-Bold-43" x="657.226562"/>
     <use xlink:href="#DejaVuSerif-Bold-6f" x="736.816406"/>
     <use xlink:href="#DejaVuSerif-Bold-6d" x="803.515625"/>
     <use xlink:href="#DejaVuSerif-Bold-70" x="909.326172"/>
     <use xlink:href="#DejaVuSerif-Bold-61" x="979.248047"/>
     <use xlink:href="#DejaVuSerif-Bold-72" x="1044.042969"/>
     <use xlink:href="#DejaVuSerif-Bold-69" x="1096.728516"/>
     <use xlink:href="#DejaVuSerif-Bold-73" x="1134.716797"/>
     <use xlink:href="#DejaVuSerif-Bold-6f" x="1191.015625"/>
     <use xlink:href="#DejaVuSerif-Bold-6e" x="1257.714844"/>
     <use xlink:href="#DejaVuSerif-Bold-3a" x="1330.419922"/>
     <use xlink:href="#DejaVuSerif-Bold-20" x="1367.333984"/>
     <use xlink:href="#DejaVuSerif-Bold-51" x="1402.148438"/>
     <use xlink:href="#DejaVuSerif-Bold-75" x="1489.257812"/>
     <use xlink:href="#DejaVuSerif-Bold-61" x="1561.962891"/>
     <use xlink:href="#DejaVuSerif-Bold-6e" x="1626.757812"/>
     <use xlink:href="#DejaVuSerif-Bold-74" x="1699.462891"/>
     <use xlink:href="#DejaVuSerif-Bold-75" x="1745.654297"/>
     <use xlink:href="#DejaVuSerif-Bold-6d" x="1818.359375"/>
     <use xlink:href="#DejaVuSerif-Bold-2d" x="1924.169922"/>
     <use xlink:href="#DejaVuSerif-Bold-43" x="1965.673828"/>
     <use xlink:href="#DejaVuSerif-Bold-6c" x="2045.263672"/>
     <use xlink:href="#DejaVuSerif-Bold-61" x="2083.251953"/>
     <use xlink:href="#DejaVuSerif-Bold-73" x="2148.046875"/>
     <use xlink:href="#DejaVuSerif-Bold-73" x="2204.345703"/>
     <use xlink:href="#DejaVuSerif-Bold-69" x="2260.644531"/>
     <use xlink:href="#DejaVuSerif-Bold-63" x="2298.632812"/>
     <use xlink:href="#DejaVuSerif-Bold-61" x="2359.521484"/>
     <use xlink:href="#DejaVuSerif-Bold-6c" x="2424.316406"/>
     <use xlink:href="#DejaVuSerif-Bold-20" x="2462.304688"/>
     <use xlink:href="#DejaVuSerif-Bold-42" x="2497.119141"/>
     <use xlink:href="#DejaVuSerif-Bold-6f" x="2581.640625"/>
     <use xlink:href="#DejaVuSerif-Bold-75" x="2648.339844"/>
     <use xlink:href="#DejaVuSerif-Bold-6e" x="2721.044922"/>
     <use xlink:href="#DejaVuSerif-Bold-64" x="2793.75"/>
     <use xlink:href="#DejaVuSerif-Bold-61" x="2863.671875"/>
     <use xlink:href="#DejaVuSerif-Bold-72" x="2928.466797"/>
     <use xlink:href="#DejaVuSerif-Bold-79" x="2981.152344"/>
    </g>
   </g>
   <g id="legend_1">
    <g id="patch_15">
     <path d="M 682.080937 306.177813 
L 837.482812 306.177813 
Q 839.282812 306.177813 839.282812 304.377813 
L 839.282812 252.308594 
Q 839.282812 250.508594 837.482812 250.508594 
L 682.080937 250.508594 
Q 680.280937 250.508594 680.280937 252.308594 
L 680.280937 304.377813 
Q 680.280937 306.177813 682.080937 306.177813 
z
" style="fill: #ffffff; opacity: 0.8; stroke: #cccccc; stroke-linejoin: miter"/>
    </g>
    <g id="patch_16">
     <path d="M 683.880937 260.947188 
L 701.880937 260.947188 
L 701.880937 254.647188 
L 683.880937 254.647188 
z
" style="fill: #008000; opacity: 0.7"/>
    </g>
    <g id="text_26">
     <!-- Experimentally verified QM -->
     <g transform="translate(709.080937 260.947188) scale(0.09 -0.09)">
      <defs>
       <path id="DejaVuSerif-78" d="M 1863 2028 
L 2559 2988 
L 2113 2988 
L 2113 3322 
L 3391 3322 
L 3391 2988 
L 2950 2988 
L 2059 1759 
L 3097 331 
L 3531 331 
L 3531 0 
L 1997 0 
L 1997 331 
L 2419 331 
L 1697 1325 
L 972 331 
L 1403 331 
L 1403 0 
L 141 0 
L 141 331 
L 581 331 
L 1497 1594 
L 488 2988 
L 78 2988 
L 78 3322 
L 1563 3322 
L 1563 2988 
L 1166 2988 
L 1863 2028 
z
" transform="scale(0.015625)"/>
       <path id="DejaVuSerif-70" d="M 1313 1825 
L 1313 1497 
Q 1313 897 1542 583 
Q 1772 269 2209 269 
Q 2650 269 2876 622 
Q 3103 975 3103 1663 
Q 3103 2353 2876 2703 
Q 2650 3053 2209 3053 
Q 1772 3053 1542 2737 
Q 1313 2422 1313 1825 
z
M 738 2988 
L 184 2988 
L 184 3322 
L 1313 3322 
L 1313 2803 
Q 1481 3116 1742 3264 
Q 2003 3413 2388 3413 
Q 3000 3413 3387 2928 
Q 3775 2444 3775 1663 
Q 3775 881 3387 395 
Q 3000 -91 2388 -91 
Q 2003 -91 1742 57 
Q 1481 206 1313 519 
L 1313 -997 
L 1856 -997 
L 1856 -1331 
L 184 -1331 
L 184 -997 
L 738 -997 
L 738 2988 
z
" transform="scale(0.015625)"/>
       <path id="DejaVuSerif-79" d="M 1381 -609 
L 1600 -56 
L 359 2988 
L -19 2988 
L -19 3322 
L 1509 3322 
L 1509 2988 
L 978 2988 
L 1913 703 
L 2847 2988 
L 2350 2988 
L 2350 3322 
L 3597 3322 
L 3597 2988 
L 3225 2988 
L 1703 -750 
Q 1547 -1138 1356 -1280 
Q 1166 -1422 819 -1422 
Q 672 -1422 517 -1397 
Q 363 -1372 206 -1325 
L 206 -691 
L 500 -691 
Q 519 -903 608 -995 
Q 697 -1088 884 -1088 
Q 1056 -1088 1161 -992 
Q 1266 -897 1381 -609 
z
" transform="scale(0.015625)"/>
       <path id="DejaVuSerif-76" d="M 1581 0 
L 359 2988 
L -19 2988 
L -19 3322 
L 1509 3322 
L 1509 2988 
L 978 2988 
L 1913 703 
L 2847 2988 
L 2350 2988 
L 2350 3322 
L 3597 3322 
L 3597 2988 
L 3225 2988 
L 2003 0 
L 1581 0 
z
" transform="scale(0.015625)"/>
       <path id="DejaVuSerif-66" d="M 2753 4078 
L 2450 4078 
Q 2447 4313 2317 4434 
Q 2188 4556 1941 4556 
Q 1619 4556 1487 4379 
Q 1356 4203 1356 3750 
L 1356 3322 
L 2284 3322 
L 2284 2988 
L 1356 2988 
L 1356 331 
L 2094 331 
L 2094 0 
L 231 0 
L 231 331 
L 781 331 
L 781 2988 
L 231 2988 
L 231 3322 
L 781 3322 
L 781 3738 
Q 781 4294 1070 4578 
Q 1359 4863 1919 4863 
Q 2128 4863 2337 4825 
Q 2547 4788 2753 4709 
L 2753 4078 
z
" transform="scale(0.015625)"/>
      </defs>
      <use xlink:href="#DejaVuSerif-45"/>
      <use xlink:href="#DejaVuSerif-78" x="72.998047"/>
      <use xlink:href="#DejaVuSerif-70" x="129.394531"/>
      <use xlink:href="#DejaVuSerif-65" x="193.408203"/>
      <use xlink:href="#DejaVuSerif-72" x="252.587891"/>
      <use xlink:href="#DejaVuSerif-69" x="300.390625"/>
      <use xlink:href="#DejaVuSerif-6d" x="332.373047"/>
      <use xlink:href="#DejaVuSerif-65" x="427.197266"/>
      <use xlink:href="#DejaVuSerif-6e" x="486.376953"/>
      <use xlink:href="#DejaVuSerif-74" x="550.78125"/>
      <use xlink:href="#DejaVuSerif-61" x="590.966797"/>
      <use xlink:href="#DejaVuSerif-6c" x="650.585938"/>
      <use xlink:href="#DejaVuSerif-6c" x="682.568359"/>
      <use xlink:href="#DejaVuSerif-79" x="714.550781"/>
      <use xlink:href="#DejaVuSerif-20" x="771.044922"/>
      <use xlink:href="#DejaVuSerif-76" x="802.832031"/>
      <use xlink:href="#DejaVuSerif-65" x="859.326172"/>
      <use xlink:href="#DejaVuSerif-72" x="918.505859"/>
      <use xlink:href="#DejaVuSerif-69" x="966.308594"/>
      <use xlink:href="#DejaVuSerif-66" x="998.291016"/>
      <use xlink:href="#DejaVuSerif-69" x="1035.302734"/>
      <use xlink:href="#DejaVuSerif-65" x="1067.285156"/>
      <use xlink:href="#DejaVuSerif-64" x="1126.464844"/>
      <use xlink:href="#DejaVuSerif-20" x="1190.478516"/>
      <use xlink:href="#DejaVuSerif-51" x="1222.265625"/>
      <use xlink:href="#DejaVuSerif-4d" x="1304.248047"/>
     </g>
    </g>
    <g id="patch_17">
     <path d="M 683.880937 274.285469 
L 701.880937 274.285469 
L 701.880937 267.985469 
L 683.880937 267.985469 
z
" style="fill: #0000ff; opacity: 0.7"/>
    </g>
    <g id="text_27">
     <!-- This work prediction -->
     <g transform="translate(709.080937 274.285469) scale(0.09 -0.09)">
      <use xlink:href="#DejaVuSerif-54"/>
      <use xlink:href="#DejaVuSerif-68" x="66.699219"/>
      <use xlink:href="#DejaVuSerif-69" x="131.103516"/>
      <use xlink:href="#DejaVuSerif-73" x="163.085938"/>
      <use xlink:href="#DejaVuSerif-20" x="214.404297"/>
      <use xlink:href="#DejaVuSerif-77" x="246.191406"/>
      <use xlink:href="#DejaVuSerif-6f" x="331.787109"/>
      <use xlink:href="#DejaVuSerif-72" x="391.992188"/>
      <use xlink:href="#DejaVuSerif-6b" x="439.794922"/>
      <use xlink:href="#DejaVuSerif-20" x="500.390625"/>
      <use xlink:href="#DejaVuSerif-70" x="532.177734"/>
      <use xlink:href="#DejaVuSerif-72" x="596.191406"/>
      <use xlink:href="#DejaVuSerif-65" x="643.994141"/>
      <use xlink:href="#DejaVuSerif-64" x="703.173828"/>
      <use xlink:href="#DejaVuSerif-69" x="767.1875"/>
      <use xlink:href="#DejaVuSerif-63" x="799.169922"/>
      <use xlink:href="#DejaVuSerif-74" x="855.175781"/>
      <use xlink:href="#DejaVuSerif-69" x="895.361328"/>
      <use xlink:href="#DejaVuSerif-6f" x="927.34375"/>
      <use xlink:href="#DejaVuSerif-6e" x="987.548828"/>
     </g>
    </g>
    <g id="patch_18">
     <path d="M 683.880937 287.495781 
L 701.880937 287.495781 
L 701.880937 281.195781 
L 683.880937 281.195781 
z
" style="fill: #ffa500; opacity: 0.7"/>
    </g>
    <g id="text_28">
     <!-- Penrose prediction -->
     <g transform="translate(709.080937 287.495781) scale(0.09 -0.09)">
      <use xlink:href="#DejaVuSerif-50"/>
      <use xlink:href="#DejaVuSerif-65" x="62.785156"/>
      <use xlink:href="#DejaVuSerif-6e" x="121.964844"/>
      <use xlink:href="#DejaVuSerif-72" x="186.369141"/>
      <use xlink:href="#DejaVuSerif-6f" x="234.171875"/>
      <use xlink:href="#DejaVuSerif-73" x="294.376953"/>
      <use xlink:href="#DejaVuSerif-65" x="345.695312"/>
      <use xlink:href="#DejaVuSerif-20" x="404.875"/>
      <use xlink:href="#DejaVuSerif-70" x="436.662109"/>
      <use xlink:href="#DejaVuSerif-72" x="500.675781"/>
      <use xlink:href="#DejaVuSerif-65" x="548.478516"/>
      <use xlink:href="#DejaVuSerif-64" x="607.658203"/>
      <use xlink:href="#DejaVuSerif-69" x="671.671875"/>
      <use xlink:href="#DejaVuSerif-63" x="703.654297"/>
      <use xlink:href="#DejaVuSerif-74" x="759.660156"/>
      <use xlink:href="#DejaVuSerif-69" x="799.845703"/>
      <use xlink:href="#DejaVuSerif-6f" x="831.828125"/>
      <use xlink:href="#DejaVuSerif-6e" x="892.033203"/>
     </g>
    </g>
    <g id="patch_19">
     <path d="M 683.880937 300.706094 
L 701.880937 300.706094 
L 701.880937 294.406094 
L 683.880937 294.406094 
z
" style="fill: #ff0000; opacity: 0.7"/>
    </g>
    <g id="text_29">
     <!-- CSL prediction -->
     <g transform="translate(709.080937 300.706094) scale(0.09 -0.09)">
      <use xlink:href="#DejaVuSerif-43"/>
      <use xlink:href="#DejaVuSerif-53" x="76.513672"/>
      <use xlink:href="#DejaVuSerif-4c" x="145.019531"/>
      <use xlink:href="#DejaVuSerif-20" x="211.425781"/>
      <use xlink:href="#DejaVuSerif-70" x="243.212891"/>
      <use xlink:href="#DejaVuSerif-72" x="307.226562"/>
      <use xlink:href="#DejaVuSerif-65" x="355.029297"/>
      <use xlink:href="#DejaVuSerif-64" x="414.208984"/>
      <use xlink:href="#DejaVuSerif-69" x="478.222656"/>
      <use xlink:href="#DejaVuSerif-63" x="510.205078"/>
      <use xlink:href="#DejaVuSerif-74" x="566.210938"/>
      <use xlink:href="#DejaVuSerif-69" x="606.396484"/>
      <use xlink:href="#DejaVuSerif-6f" x="638.378906"/>
      <use xlink:href="#DejaVuSerif-6e" x="698.583984"/>
     </g>
    </g>
   </g>
  </g>
 </g>
 <defs>
  <clipPath id="p35b925ae7c">
   <rect x="83.532813" y="23.837812" width="760.25" height="286.84"/>
  </clipPath>
 </defs>
</svg>
