<?xml version="1.0" encoding="utf-8" standalone="no"?>
<!DOCTYPE svg PUBLIC "-//W3C//DTD SVG 1.1//EN"
  "http://www.w3.org/Graphics/SVG/1.1/DTD/svg11.dtd">
<svg xmlns:xlink="http://www.w3.org/1999/xlink" width="706.051919pt" height="417.71575pt" viewBox="0 0 706.051919 417.71575" xmlns="http://www.w3.org/2000/svg" version="1.1">
 <metadata>
  <rdf:RDF xmlns:dc="http://purl.org/dc/elements/1.1/" xmlns:cc="http://creativecommons.org/ns#" xmlns:rdf="http://www.w3.org/1999/02/22-rdf-syntax-ns#">
   <cc:Work>
    <dc:type rdf:resource="http://purl.org/dc/dcmitype/StillImage"/>
    <dc:date>2026-01-23T01:39:32.695290</dc:date>
    <dc:format>image/svg+xml</dc:format>
    <dc:creator>
     <cc:Agent>
      <dc:title>Matplotlib v3.7.1, https://matplotlib.org/</dc:title>
     </cc:Agent>
    </dc:creator>
   </cc:Work>
  </rdf:RDF>
 </metadata>
 <defs>
  <style type="text/css">*{stroke-linejoin: round; stroke-linecap: butt}</style>
 </defs>
 <g id="figure_1">
  <g id="patch_1">
   <path d="M 0 417.71575 
L 706.051919 417.71575 
L 706.051919 0 
L 0 0 
z
" style="fill: #ffffff"/>
  </g>
  <g id="axes_1">
   <g id="patch_2">
    <path d="M 55.82 376.989812 
L 683.506919 376.989812 
L 683.506919 23.837812 
L 55.82 23.837812 
z
" style="fill: #ffffff"/>
   </g>
   <g id="PolyCollection_1">
    <defs>
     <path id="m945a20d3a4" d="M 396.708086 -231.134636 
L 396.708086 -231.104314 
L 397.965976 -231.533235 
L 399.223865 -231.962156 
L 400.481755 -232.391077 
L 401.739645 -232.819998 
L 402.997534 -233.248918 
L 404.255424 -233.677839 
L 405.513313 -234.10676 
L 406.771203 -234.535681 
L 408.029093 -234.964602 
L 409.286982 -235.393523 
L 410.544872 -235.822444 
L 411.802761 -236.251365 
L 413.060651 -236.680285 
L 414.318541 -237.109206 
L 415.57643 -237.538127 
L 416.83432 -237.967048 
L 418.09221 -238.395969 
L 419.350099 -238.82489 
L 420.607989 -239.253811 
L 421.865878 -239.682732 
L 423.123768 -240.111652 
L 424.381658 -240.540573 
L 425.639547 -240.969494 
L 426.897437 -241.398415 
L 428.155326 -241.827336 
L 429.413216 -242.256257 
L 430.671106 -242.685178 
L 431.928995 -243.114098 
L 433.186885 -243.543019 
L 434.444775 -243.97194 
L 435.702664 -244.400861 
L 436.960554 -244.829782 
L 438.218443 -245.258703 
L 439.476333 -245.687624 
L 440.734223 -246.116545 
L 441.992112 -246.545465 
L 443.250002 -246.974386 
L 444.507892 -247.403307 
L 445.765781 -247.832228 
L 447.023671 -248.261149 
L 448.28156 -248.69007 
L 449.53945 -249.118991 
L 450.79734 -249.547912 
L 452.055229 -249.976832 
L 453.313119 -250.405753 
L 454.571008 -250.834674 
L 455.828898 -251.263595 
L 457.086788 -251.692516 
L 458.344677 -252.121437 
L 459.602567 -252.550358 
L 460.860457 -252.979279 
L 462.118346 -253.408199 
L 463.376236 -253.83712 
L 464.634125 -254.266041 
L 465.892015 -254.694962 
L 467.149905 -255.123883 
L 468.407794 -255.552804 
L 469.665684 -255.981725 
L 470.923573 -256.410646 
L 472.181463 -256.839566 
L 473.439353 -257.268487 
L 474.697242 -257.697408 
L 475.955132 -258.126329 
L 477.213022 -258.55525 
L 478.470911 -258.984171 
L 479.728801 -259.413092 
L 480.98669 -259.842013 
L 482.24458 -260.270933 
L 483.50247 -260.699854 
L 484.760359 -261.128775 
L 486.018249 -261.557696 
L 487.276138 -261.986617 
L 488.534028 -262.415538 
L 489.791918 -262.844459 
L 491.049807 -263.273379 
L 492.307697 -263.7023 
L 493.565587 -264.131221 
L 494.823476 -264.560142 
L 496.081366 -264.989063 
L 497.339255 -265.417984 
L 498.597145 -265.846905 
L 499.855035 -266.275826 
L 501.112924 -266.704746 
L 502.370814 -267.133667 
L 503.628703 -267.562588 
L 504.886593 -267.991509 
L 506.144483 -268.42043 
L 507.402372 -268.849351 
L 508.660262 -269.278272 
L 509.918152 -269.707193 
L 511.176041 -270.136113 
L 512.433931 -270.565034 
L 513.69182 -270.993955 
L 514.94971 -271.422876 
L 516.2076 -271.851797 
L 517.465489 -272.280718 
L 518.723379 -272.709639 
L 519.981269 -273.13856 
L 521.239158 -273.56748 
L 522.497048 -273.996401 
L 523.754937 -274.425322 
L 525.012827 -274.854243 
L 526.270717 -275.283164 
L 527.528606 -275.712085 
L 528.786496 -276.141006 
L 530.044385 -276.569927 
L 531.302275 -276.998847 
L 532.560165 -277.427768 
L 533.818054 -277.856689 
L 535.075944 -278.28561 
L 536.333834 -278.714531 
L 537.591723 -279.143452 
L 538.849613 -279.572373 
L 540.107502 -280.001293 
L 541.365392 -280.430214 
L 542.623282 -280.859135 
L 543.881171 -281.288056 
L 545.139061 -281.716977 
L 546.39695 -282.145898 
L 547.65484 -282.574819 
L 548.91273 -283.00374 
L 550.170619 -283.43266 
L 551.428509 -283.861581 
L 552.686399 -284.290502 
L 553.944288 -284.719423 
L 555.202178 -285.148344 
L 556.460067 -285.577265 
L 557.717957 -286.006186 
L 558.975847 -286.435107 
L 560.233736 -286.864027 
L 561.491626 -287.292948 
L 562.749515 -287.721869 
L 564.007405 -288.15079 
L 565.265295 -288.579711 
L 566.523184 -289.008632 
L 567.781074 -289.437553 
L 569.038964 -289.866474 
L 570.296853 -290.295394 
L 571.554743 -290.724315 
L 572.812632 -291.153236 
L 574.070522 -291.582157 
L 575.328412 -292.011078 
L 576.586301 -292.439999 
L 577.844191 -292.86892 
L 579.10208 -293.297841 
L 580.35997 -293.726761 
L 581.61786 -294.155682 
L 582.875749 -294.584603 
L 584.133639 -295.013524 
L 585.391529 -295.442445 
L 586.649418 -295.871366 
L 587.907308 -296.300287 
L 589.165197 -296.729207 
L 590.423087 -297.158128 
L 591.680977 -297.587049 
L 592.938866 -298.01597 
L 594.196756 -298.444891 
L 595.454645 -298.873812 
L 596.712535 -299.302733 
L 597.970425 -299.731654 
L 599.228314 -300.160574 
L 600.486204 -300.589495 
L 601.744094 -301.018416 
L 603.001983 -301.447337 
L 604.259873 -301.876258 
L 605.517762 -302.305179 
L 606.775652 -302.7341 
L 608.033542 -303.163021 
L 609.291431 -303.591941 
L 610.549321 -304.020862 
L 611.807211 -304.449783 
L 613.0651 -304.878704 
L 614.32299 -305.307625 
L 615.580879 -305.736546 
L 616.838769 -306.165467 
L 618.096659 -306.594388 
L 619.354548 -307.023308 
L 620.612438 -307.452229 
L 621.870327 -307.88115 
L 623.128217 -308.310071 
L 624.386107 -308.738992 
L 625.643996 -309.167913 
L 626.901886 -309.596834 
L 628.159776 -310.025755 
L 629.417665 -310.454675 
L 630.675555 -310.883596 
L 631.933444 -311.312517 
L 633.191334 -311.741438 
L 634.449224 -312.170359 
L 635.707113 -312.59928 
L 636.965003 -313.028201 
L 638.222892 -313.457122 
L 639.480782 -313.886042 
L 640.738672 -314.314963 
L 641.996561 -314.743884 
L 643.254451 -315.172805 
L 644.512341 -315.601726 
L 645.77023 -316.030647 
L 647.02812 -316.459568 
L 648.286009 -316.888488 
L 649.543899 -317.317409 
L 650.801789 -317.74633 
L 652.059678 -318.175251 
L 653.317568 -318.604172 
L 654.575457 -319.033093 
L 655.833347 -319.462014 
L 657.091237 -319.890935 
L 658.349126 -320.319855 
L 659.607016 -320.748776 
L 660.864906 -321.177697 
L 662.122795 -321.606618 
L 663.380685 -322.035539 
L 664.638574 -322.46446 
L 665.896464 -322.893381 
L 667.154354 -323.322302 
L 668.412243 -323.751222 
L 669.670133 -324.180143 
L 670.928022 -324.609064 
L 672.185912 -325.037985 
L 673.443802 -325.466906 
L 674.701691 -325.895827 
L 675.959581 -326.324748 
L 677.217471 -326.753669 
L 678.47536 -327.182589 
L 679.73325 -327.61151 
L 680.991139 -328.040431 
L 682.249029 -328.469352 
L 683.506919 -328.898273 
L 683.506919 -377.825574 
L 683.506919 -377.825574 
L 682.249029 -377.182193 
L 680.991139 -376.538811 
L 679.73325 -375.89543 
L 678.47536 -375.252049 
L 677.217471 -374.608667 
L 675.959581 -373.965286 
L 674.701691 -373.321905 
L 673.443802 -372.678523 
L 672.185912 -372.035142 
L 670.928022 -371.391761 
L 669.670133 -370.748379 
L 668.412243 -370.104998 
L 667.154354 -369.461617 
L 665.896464 -368.818236 
L 664.638574 -368.174854 
L 663.380685 -367.531473 
L 662.122795 -366.888092 
L 660.864906 -366.24471 
L 659.607016 -365.601329 
L 658.349126 -364.957948 
L 657.091237 -364.314566 
L 655.833347 -363.671185 
L 654.575457 -363.027804 
L 653.317568 -362.384422 
L 652.059678 -361.741041 
L 650.801789 -361.09766 
L 649.543899 -360.454279 
L 648.286009 -359.810897 
L 647.02812 -359.167516 
L 645.77023 -358.524135 
L 644.512341 -357.880753 
L 643.254451 -357.237372 
L 641.996561 -356.593991 
L 640.738672 -355.950609 
L 639.480782 -355.307228 
L 638.222892 -354.663847 
L 636.965003 -354.020465 
L 635.707113 -353.377084 
L 634.449224 -352.733703 
L 633.191334 -352.090322 
L 631.933444 -351.44694 
L 630.675555 -350.803559 
L 629.417665 -350.160178 
L 628.159776 -349.516796 
L 626.901886 -348.873415 
L 625.643996 -348.230034 
L 624.386107 -347.586652 
L 623.128217 -346.943271 
L 621.870327 -346.29989 
L 620.612438 -345.656508 
L 619.354548 -345.013127 
L 618.096659 -344.369746 
L 616.838769 -343.726365 
L 615.580879 -343.082983 
L 614.32299 -342.439602 
L 613.0651 -341.796221 
L 611.807211 -341.152839 
L 610.549321 -340.509458 
L 609.291431 -339.866077 
L 608.033542 -339.222695 
L 606.775652 -338.579314 
L 605.517762 -337.935933 
L 604.259873 -337.292551 
L 603.001983 -336.64917 
L 601.744094 -336.005789 
L 600.486204 -335.362408 
L 599.228314 -334.719026 
L 597.970425 -334.075645 
L 596.712535 -333.432264 
L 595.454645 -332.788882 
L 594.196756 -332.145501 
L 592.938866 -331.50212 
L 591.680977 -330.858738 
L 590.423087 -330.215357 
L 589.165197 -329.571976 
L 587.907308 -328.928594 
L 586.649418 -328.285213 
L 585.391529 -327.641832 
L 584.133639 -326.998451 
L 582.875749 -326.355069 
L 581.61786 -325.711688 
L 580.35997 -325.068307 
L 579.10208 -324.424925 
L 577.844191 -323.781544 
L 576.586301 -323.138163 
L 575.328412 -322.494781 
L 574.070522 -321.8514 
L 572.812632 -321.208019 
L 571.554743 -320.564637 
L 570.296853 -319.921256 
L 569.038964 -319.277875 
L 567.781074 -318.634494 
L 566.523184 -317.991112 
L 565.265295 -317.347731 
L 564.007405 -316.70435 
L 562.749515 -316.060968 
L 561.491626 -315.417587 
L 560.233736 -314.774206 
L 558.975847 -314.130824 
L 557.717957 -313.487443 
L 556.460067 -312.844062 
L 555.202178 -312.20068 
L 553.944288 -311.557299 
L 552.686399 -310.913918 
L 551.428509 -310.270537 
L 550.170619 -309.627155 
L 548.91273 -308.983774 
L 547.65484 -308.340393 
L 546.39695 -307.697011 
L 545.139061 -307.05363 
L 543.881171 -306.410249 
L 542.623282 -305.766867 
L 541.365392 -305.123486 
L 540.107502 -304.480105 
L 538.849613 -303.836723 
L 537.591723 -303.193342 
L 536.333834 -302.549961 
L 535.075944 -301.90658 
L 533.818054 -301.263198 
L 532.560165 -300.619817 
L 531.302275 -299.976436 
L 530.044385 -299.333054 
L 528.786496 -298.689673 
L 527.528606 -298.046292 
L 526.270717 -297.40291 
L 525.012827 -296.759529 
L 523.754937 -296.116148 
L 522.497048 -295.472766 
L 521.239158 -294.829385 
L 519.981269 -294.186004 
L 518.723379 -293.542623 
L 517.465489 -292.899241 
L 516.2076 -292.25586 
L 514.94971 -291.612479 
L 513.69182 -290.969097 
L 512.433931 -290.325716 
L 511.176041 -289.682335 
L 509.918152 -289.038953 
L 508.660262 -288.395572 
L 507.402372 -287.752191 
L 506.144483 -287.108809 
L 504.886593 -286.465428 
L 503.628703 -285.822047 
L 502.370814 -285.178666 
L 501.112924 -284.535284 
L 499.855035 -283.891903 
L 498.597145 -283.248522 
L 497.339255 -282.60514 
L 496.081366 -281.961759 
L 494.823476 -281.318378 
L 493.565587 -280.674996 
L 492.307697 -280.031615 
L 491.049807 -279.388234 
L 489.791918 -278.744852 
L 488.534028 -278.101471 
L 487.276138 -277.45809 
L 486.018249 -276.814708 
L 484.760359 -276.171327 
L 483.50247 -275.527946 
L 482.24458 -274.884565 
L 480.98669 -274.241183 
L 479.728801 -273.597802 
L 478.470911 -272.954421 
L 477.213022 -272.311039 
L 475.955132 -271.667658 
L 474.697242 -271.024277 
L 473.439353 -270.380895 
L 472.181463 -269.737514 
L 470.923573 -269.094133 
L 469.665684 -268.450751 
L 468.407794 -267.80737 
L 467.149905 -267.163989 
L 465.892015 -266.520608 
L 464.634125 -265.877226 
L 463.376236 -265.233845 
L 462.118346 -264.590464 
L 460.860457 -263.947082 
L 459.602567 -263.303701 
L 458.344677 -262.66032 
L 457.086788 -262.016938 
L 455.828898 -261.373557 
L 454.571008 -260.730176 
L 453.313119 -260.086794 
L 452.055229 -259.443413 
L 450.79734 -258.800032 
L 449.53945 -258.156651 
L 448.28156 -257.513269 
L 447.023671 -256.869888 
L 445.765781 -256.226507 
L 444.507892 -255.583125 
L 443.250002 -254.939744 
L 441.992112 -254.296363 
L 440.734223 -253.652981 
L 439.476333 -253.0096 
L 438.218443 -252.366219 
L 436.960554 -251.722837 
L 435.702664 -251.079456 
L 434.444775 -250.436075 
L 433.186885 -249.792694 
L 431.928995 -249.149312 
L 430.671106 -248.505931 
L 429.413216 -247.86255 
L 428.155326 -247.219168 
L 426.897437 -246.575787 
L 425.639547 -245.932406 
L 424.381658 -245.289024 
L 423.123768 -244.645643 
L 421.865878 -244.002262 
L 420.607989 -243.35888 
L 419.350099 -242.715499 
L 418.09221 -242.072118 
L 416.83432 -241.428737 
L 415.57643 -240.785355 
L 414.318541 -240.141974 
L 413.060651 -239.498593 
L 411.802761 -238.855211 
L 410.544872 -238.21183 
L 409.286982 -237.568449 
L 408.029093 -236.925067 
L 406.771203 -236.281686 
L 405.513313 -235.638305 
L 404.255424 -234.994923 
L 402.997534 -234.351542 
L 401.739645 -233.708161 
L 400.481755 -233.06478 
L 399.223865 -232.421398 
L 397.965976 -231.778017 
L 396.708086 -231.134636 
z
" style="stroke: #ff0000; stroke-opacity: 0.3"/>
    </defs>
    <g clip-path="url(#p435f6853fd)">
     <use xlink:href="#m945a20d3a4" x="0" y="417.71575" style="fill: #ff0000; fill-opacity: 0.3; stroke: #ff0000; stroke-opacity: 0.3"/>
    </g>
   </g>
   <g id="matplotlib.axis_1">
    <g id="xtick_1">
     <g id="line2d_1">
      <path d="M 55.82 376.989812 
L 55.82 23.837812 
" clip-path="url(#p435f6853fd)" style="fill: none; stroke: #b0b0b0; stroke-opacity: 0.3; stroke-width: 0.8; stroke-linecap: square"/>
     </g>
     <g id="line2d_2">
      <defs>
       <path id="m0758fa5e35" d="M 0 0 
L 0 3.5 
" style="stroke: #000000; stroke-width: 0.8"/>
      </defs>
      <g>
       <use xlink:href="#m0758fa5e35" x="55.82" y="376.989812" style="stroke: #000000; stroke-width: 0.8"/>
      </g>
     </g>
     <g id="text_1">
      <!-- $\mathdefault{10^{-18}}$ -->
      <g transform="translate(40.475 392.348094) scale(0.11 -0.11)">
       <defs>
        <path id="DejaVuSerif-31" d="M 909 0 
L 909 331 
L 1722 331 
L 1722 4213 
L 781 3603 
L 781 4013 
L 1919 4750 
L 2350 4750 
L 2350 331 
L 3163 331 
L 3163 0 
L 909 0 
z
" transform="scale(0.015625)"/>
        <path id="DejaVuSerif-30" d="M 2034 219 
Q 2513 219 2750 744 
Q 2988 1269 2988 2328 
Q 2988 3391 2750 3916 
Q 2513 4441 2034 4441 
Q 1556 4441 1318 3916 
Q 1081 3391 1081 2328 
Q 1081 1269 1318 744 
Q 1556 219 2034 219 
z
M 2034 -91 
Q 1275 -91 848 546 
Q 422 1184 422 2328 
Q 422 3475 848 4112 
Q 1275 4750 2034 4750 
Q 2797 4750 3222 4112 
Q 3647 3475 3647 2328 
Q 3647 1184 3222 546 
Q 2797 -91 2034 -91 
z
" transform="scale(0.015625)"/>
        <path id="DejaVuSerif-2212" d="M 678 2259 
L 4684 2259 
L 4684 1753 
L 678 1753 
L 678 2259 
z
" transform="scale(0.015625)"/>
        <path id="DejaVuSerif-38" d="M 2981 1275 
Q 2981 1775 2732 2051 
Q 2484 2328 2034 2328 
Q 1584 2328 1336 2051 
Q 1088 1775 1088 1275 
Q 1088 772 1336 495 
Q 1584 219 2034 219 
Q 2484 219 2732 495 
Q 2981 772 2981 1275 
z
M 2853 3541 
Q 2853 3966 2637 4203 
Q 2422 4441 2034 4441 
Q 1650 4441 1433 4203 
Q 1216 3966 1216 3541 
Q 1216 3113 1433 2875 
Q 1650 2638 2034 2638 
Q 2422 2638 2637 2875 
Q 2853 3113 2853 3541 
z
M 2516 2484 
Q 3047 2413 3344 2092 
Q 3641 1772 3641 1275 
Q 3641 619 3225 264 
Q 2809 -91 2034 -91 
Q 1263 -91 845 264 
Q 428 619 428 1275 
Q 428 1772 725 2092 
Q 1022 2413 1556 2484 
Q 1084 2569 832 2842 
Q 581 3116 581 3541 
Q 581 4103 968 4426 
Q 1356 4750 2034 4750 
Q 2713 4750 3100 4426 
Q 3488 4103 3488 3541 
Q 3488 3116 3236 2842 
Q 2984 2569 2516 2484 
z
" transform="scale(0.015625)"/>
       </defs>
       <use xlink:href="#DejaVuSerif-31" transform="translate(0 0.7125)"/>
       <use xlink:href="#DejaVuSerif-30" transform="translate(63.623047 0.7125)"/>
       <use xlink:href="#DejaVuSerif-2212" transform="translate(128.154453 37.046875) scale(0.7)"/>
       <use xlink:href="#DejaVuSerif-31" transform="translate(186.806797 37.046875) scale(0.7)"/>
       <use xlink:href="#DejaVuSerif-38" transform="translate(231.34293 37.046875) scale(0.7)"/>
      </g>
     </g>
    </g>
    <g id="xtick_2">
     <g id="line2d_3">
      <path d="M 134.280865 376.989812 
L 134.280865 23.837812 
" clip-path="url(#p435f6853fd)" style="fill: none; stroke: #b0b0b0; stroke-opacity: 0.3; stroke-width: 0.8; stroke-linecap: square"/>
     </g>
     <g id="line2d_4">
      <g>
       <use xlink:href="#m0758fa5e35" x="134.280865" y="376.989812" style="stroke: #000000; stroke-width: 0.8"/>
      </g>
     </g>
     <g id="text_2">
      <!-- $\mathdefault{10^{-17}}$ -->
      <g transform="translate(118.935865 392.348094) scale(0.11 -0.11)">
       <defs>
        <path id="DejaVuSerif-37" d="M 3609 4347 
L 1784 0 
L 1319 0 
L 3059 4153 
L 903 4153 
L 903 3578 
L 538 3578 
L 538 4666 
L 3609 4666 
L 3609 4347 
z
" transform="scale(0.015625)"/>
       </defs>
       <use xlink:href="#DejaVuSerif-31" transform="translate(0 0.7125)"/>
       <use xlink:href="#DejaVuSerif-30" transform="translate(63.623047 0.7125)"/>
       <use xlink:href="#DejaVuSerif-2212" transform="translate(128.154453 37.046875) scale(0.7)"/>
       <use xlink:href="#DejaVuSerif-31" transform="translate(186.806797 37.046875) scale(0.7)"/>
       <use xlink:href="#DejaVuSerif-37" transform="translate(231.34293 37.046875) scale(0.7)"/>
      </g>
     </g>
    </g>
    <g id="xtick_3">
     <g id="line2d_5">
      <path d="M 212.74173 376.989812 
L 212.74173 23.837812 
" clip-path="url(#p435f6853fd)" style="fill: none; stroke: #b0b0b0; stroke-opacity: 0.3; stroke-width: 0.8; stroke-linecap: square"/>
     </g>
     <g id="line2d_6">
      <g>
       <use xlink:href="#m0758fa5e35" x="212.74173" y="376.989812" style="stroke: #000000; stroke-width: 0.8"/>
      </g>
     </g>
     <g id="text_3">
      <!-- $\mathdefault{10^{-16}}$ -->
      <g transform="translate(197.39673 392.348094) scale(0.11 -0.11)">
       <defs>
        <path id="DejaVuSerif-36" d="M 2094 219 
Q 2534 219 2771 542 
Q 3009 866 3009 1472 
Q 3009 2078 2771 2401 
Q 2534 2725 2094 2725 
Q 1647 2725 1412 2412 
Q 1178 2100 1178 1509 
Q 1178 888 1415 553 
Q 1653 219 2094 219 
z
M 1075 2569 
Q 1288 2803 1556 2918 
Q 1825 3034 2163 3034 
Q 2859 3034 3264 2615 
Q 3669 2197 3669 1472 
Q 3669 763 3233 336 
Q 2797 -91 2069 -91 
Q 1278 -91 853 498 
Q 428 1088 428 2181 
Q 428 3406 931 4078 
Q 1434 4750 2350 4750 
Q 2597 4750 2869 4703 
Q 3141 4656 3425 4563 
L 3425 3794 
L 3072 3794 
Q 3034 4109 2831 4275 
Q 2628 4441 2284 4441 
Q 1678 4441 1381 3981 
Q 1084 3522 1075 2569 
z
" transform="scale(0.015625)"/>
       </defs>
       <use xlink:href="#DejaVuSerif-31" transform="translate(0 0.7125)"/>
       <use xlink:href="#DejaVuSerif-30" transform="translate(63.623047 0.7125)"/>
       <use xlink:href="#DejaVuSerif-2212" transform="translate(128.154453 37.046875) scale(0.7)"/>
       <use xlink:href="#DejaVuSerif-31" transform="translate(186.806797 37.046875) scale(0.7)"/>
       <use xlink:href="#DejaVuSerif-36" transform="translate(231.34293 37.046875) scale(0.7)"/>
      </g>
     </g>
    </g>
    <g id="xtick_4">
     <g id="line2d_7">
      <path d="M 291.202594 376.989812 
L 291.202594 23.837812 
" clip-path="url(#p435f6853fd)" style="fill: none; stroke: #b0b0b0; stroke-opacity: 0.3; stroke-width: 0.8; stroke-linecap: square"/>
     </g>
     <g id="line2d_8">
      <g>
       <use xlink:href="#m0758fa5e35" x="291.202594" y="376.989812" style="stroke: #000000; stroke-width: 0.8"/>
      </g>
     </g>
     <g id="text_4">
      <!-- $\mathdefault{10^{-15}}$ -->
      <g transform="translate(275.857594 392.348094) scale(0.11 -0.11)">
       <defs>
        <path id="DejaVuSerif-35" d="M 3219 4666 
L 3219 4153 
L 1081 4153 
L 1081 2816 
Q 1244 2928 1461 2984 
Q 1678 3041 1947 3041 
Q 2703 3041 3140 2622 
Q 3578 2203 3578 1478 
Q 3578 738 3136 323 
Q 2694 -91 1894 -91 
Q 1572 -91 1234 -12 
Q 897 66 544 225 
L 544 1131 
L 897 1131 
Q 925 688 1179 453 
Q 1434 219 1894 219 
Q 2388 219 2653 544 
Q 2919 869 2919 1478 
Q 2919 2084 2655 2407 
Q 2391 2731 1894 2731 
Q 1613 2731 1398 2631 
Q 1184 2531 1019 2322 
L 750 2322 
L 750 4666 
L 3219 4666 
z
" transform="scale(0.015625)"/>
       </defs>
       <use xlink:href="#DejaVuSerif-31" transform="translate(0 0.7125)"/>
       <use xlink:href="#DejaVuSerif-30" transform="translate(63.623047 0.7125)"/>
       <use xlink:href="#DejaVuSerif-2212" transform="translate(128.154453 37.046875) scale(0.7)"/>
       <use xlink:href="#DejaVuSerif-31" transform="translate(186.806797 37.046875) scale(0.7)"/>
       <use xlink:href="#DejaVuSerif-35" transform="translate(231.34293 37.046875) scale(0.7)"/>
      </g>
     </g>
    </g>
    <g id="xtick_5">
     <g id="line2d_9">
      <path d="M 369.663459 376.989812 
L 369.663459 23.837812 
" clip-path="url(#p435f6853fd)" style="fill: none; stroke: #b0b0b0; stroke-opacity: 0.3; stroke-width: 0.8; stroke-linecap: square"/>
     </g>
     <g id="line2d_10">
      <g>
       <use xlink:href="#m0758fa5e35" x="369.663459" y="376.989812" style="stroke: #000000; stroke-width: 0.8"/>
      </g>
     </g>
     <g id="text_5">
      <!-- $\mathdefault{10^{-14}}$ -->
      <g transform="translate(354.318459 392.348094) scale(0.11 -0.11)">
       <defs>
        <path id="DejaVuSerif-34" d="M 2234 1581 
L 2234 4063 
L 641 1581 
L 2234 1581 
z
M 3609 0 
L 1484 0 
L 1484 331 
L 2234 331 
L 2234 1247 
L 197 1247 
L 197 1588 
L 2241 4750 
L 2859 4750 
L 2859 1581 
L 3750 1581 
L 3750 1247 
L 2859 1247 
L 2859 331 
L 3609 331 
L 3609 0 
z
" transform="scale(0.015625)"/>
       </defs>
       <use xlink:href="#DejaVuSerif-31" transform="translate(0 0.7125)"/>
       <use xlink:href="#DejaVuSerif-30" transform="translate(63.623047 0.7125)"/>
       <use xlink:href="#DejaVuSerif-2212" transform="translate(128.154453 37.046875) scale(0.7)"/>
       <use xlink:href="#DejaVuSerif-31" transform="translate(186.806797 37.046875) scale(0.7)"/>
       <use xlink:href="#DejaVuSerif-34" transform="translate(231.34293 37.046875) scale(0.7)"/>
      </g>
     </g>
    </g>
    <g id="xtick_6">
     <g id="line2d_11">
      <path d="M 448.124324 376.989812 
L 448.124324 23.837812 
" clip-path="url(#p435f6853fd)" style="fill: none; stroke: #b0b0b0; stroke-opacity: 0.3; stroke-width: 0.8; stroke-linecap: square"/>
     </g>
     <g id="line2d_12">
      <g>
       <use xlink:href="#m0758fa5e35" x="448.124324" y="376.989812" style="stroke: #000000; stroke-width: 0.8"/>
      </g>
     </g>
     <g id="text_6">
      <!-- $\mathdefault{10^{-13}}$ -->
      <g transform="translate(432.779324 392.348094) scale(0.11 -0.11)">
       <defs>
        <path id="DejaVuSerif-33" d="M 622 4469 
Q 988 4606 1323 4678 
Q 1659 4750 1953 4750 
Q 2638 4750 3022 4454 
Q 3406 4159 3406 3634 
Q 3406 3213 3140 2930 
Q 2875 2647 2388 2547 
Q 2963 2466 3280 2130 
Q 3597 1794 3597 1259 
Q 3597 606 3158 257 
Q 2719 -91 1894 -91 
Q 1528 -91 1179 -12 
Q 831 66 488 225 
L 488 1131 
L 838 1131 
Q 869 681 1141 450 
Q 1413 219 1906 219 
Q 2384 219 2661 495 
Q 2938 772 2938 1253 
Q 2938 1803 2653 2086 
Q 2369 2369 1819 2369 
L 1522 2369 
L 1522 2688 
L 1678 2688 
Q 2225 2688 2498 2914 
Q 2772 3141 2772 3597 
Q 2772 4006 2547 4223 
Q 2322 4441 1900 4441 
Q 1478 4441 1245 4241 
Q 1013 4041 972 3647 
L 622 3647 
L 622 4469 
z
" transform="scale(0.015625)"/>
       </defs>
       <use xlink:href="#DejaVuSerif-31" transform="translate(0 0.7125)"/>
       <use xlink:href="#DejaVuSerif-30" transform="translate(63.623047 0.7125)"/>
       <use xlink:href="#DejaVuSerif-2212" transform="translate(128.154453 37.046875) scale(0.7)"/>
       <use xlink:href="#DejaVuSerif-31" transform="translate(186.806797 37.046875) scale(0.7)"/>
       <use xlink:href="#DejaVuSerif-33" transform="translate(231.34293 37.046875) scale(0.7)"/>
      </g>
     </g>
    </g>
    <g id="xtick_7">
     <g id="line2d_13">
      <path d="M 526.585189 376.989812 
L 526.585189 23.837812 
" clip-path="url(#p435f6853fd)" style="fill: none; stroke: #b0b0b0; stroke-opacity: 0.3; stroke-width: 0.8; stroke-linecap: square"/>
     </g>
     <g id="line2d_14">
      <g>
       <use xlink:href="#m0758fa5e35" x="526.585189" y="376.989812" style="stroke: #000000; stroke-width: 0.8"/>
      </g>
     </g>
     <g id="text_7">
      <!-- $\mathdefault{10^{-12}}$ -->
      <g transform="translate(511.240189 392.348094) scale(0.11 -0.11)">
       <defs>
        <path id="DejaVuSerif-32" d="M 819 3553 
L 469 3553 
L 469 4384 
Q 803 4563 1142 4656 
Q 1481 4750 1806 4750 
Q 2534 4750 2956 4397 
Q 3378 4044 3378 3438 
Q 3378 2753 2422 1800 
Q 2347 1728 2309 1691 
L 1131 513 
L 3078 513 
L 3078 1088 
L 3444 1088 
L 3444 0 
L 434 0 
L 434 341 
L 1850 1753 
Q 2319 2222 2519 2614 
Q 2719 3006 2719 3438 
Q 2719 3909 2473 4175 
Q 2228 4441 1797 4441 
Q 1350 4441 1106 4219 
Q 863 3997 819 3553 
z
" transform="scale(0.015625)"/>
       </defs>
       <use xlink:href="#DejaVuSerif-31" transform="translate(0 0.7125)"/>
       <use xlink:href="#DejaVuSerif-30" transform="translate(63.623047 0.7125)"/>
       <use xlink:href="#DejaVuSerif-2212" transform="translate(128.154453 37.046875) scale(0.7)"/>
       <use xlink:href="#DejaVuSerif-31" transform="translate(186.806797 37.046875) scale(0.7)"/>
       <use xlink:href="#DejaVuSerif-32" transform="translate(231.34293 37.046875) scale(0.7)"/>
      </g>
     </g>
    </g>
    <g id="xtick_8">
     <g id="line2d_15">
      <path d="M 605.046054 376.989812 
L 605.046054 23.837812 
" clip-path="url(#p435f6853fd)" style="fill: none; stroke: #b0b0b0; stroke-opacity: 0.3; stroke-width: 0.8; stroke-linecap: square"/>
     </g>
     <g id="line2d_16">
      <g>
       <use xlink:href="#m0758fa5e35" x="605.046054" y="376.989812" style="stroke: #000000; stroke-width: 0.8"/>
      </g>
     </g>
     <g id="text_8">
      <!-- $\mathdefault{10^{-11}}$ -->
      <g transform="translate(589.701054 392.348094) scale(0.11 -0.11)">
       <use xlink:href="#DejaVuSerif-31" transform="translate(0 0.7125)"/>
       <use xlink:href="#DejaVuSerif-30" transform="translate(63.623047 0.7125)"/>
       <use xlink:href="#DejaVuSerif-2212" transform="translate(128.154453 37.046875) scale(0.7)"/>
       <use xlink:href="#DejaVuSerif-31" transform="translate(186.806797 37.046875) scale(0.7)"/>
       <use xlink:href="#DejaVuSerif-31" transform="translate(231.34293 37.046875) scale(0.7)"/>
      </g>
     </g>
    </g>
    <g id="xtick_9">
     <g id="line2d_17">
      <path d="M 683.506919 376.989812 
L 683.506919 23.837812 
" clip-path="url(#p435f6853fd)" style="fill: none; stroke: #b0b0b0; stroke-opacity: 0.3; stroke-width: 0.8; stroke-linecap: square"/>
     </g>
     <g id="line2d_18">
      <g>
       <use xlink:href="#m0758fa5e35" x="683.506919" y="376.989812" style="stroke: #000000; stroke-width: 0.8"/>
      </g>
     </g>
     <g id="text_9">
      <!-- $\mathdefault{10^{-10}}$ -->
      <g transform="translate(668.161919 392.348094) scale(0.11 -0.11)">
       <use xlink:href="#DejaVuSerif-31" transform="translate(0 0.7125)"/>
       <use xlink:href="#DejaVuSerif-30" transform="translate(63.623047 0.7125)"/>
       <use xlink:href="#DejaVuSerif-2212" transform="translate(128.154453 37.046875) scale(0.7)"/>
       <use xlink:href="#DejaVuSerif-31" transform="translate(186.806797 37.046875) scale(0.7)"/>
       <use xlink:href="#DejaVuSerif-30" transform="translate(231.34293 37.046875) scale(0.7)"/>
      </g>
     </g>
    </g>
    <g id="xtick_10">
     <g id="line2d_19">
      <defs>
       <path id="ma4de7ca12e" d="M 0 0 
L 0 2 
" style="stroke: #000000; stroke-width: 0.6"/>
      </defs>
      <g>
       <use xlink:href="#ma4de7ca12e" x="79.439074" y="376.989812" style="stroke: #000000; stroke-width: 0.6"/>
      </g>
     </g>
    </g>
    <g id="xtick_11">
     <g id="line2d_20">
      <g>
       <use xlink:href="#ma4de7ca12e" x="93.255346" y="376.989812" style="stroke: #000000; stroke-width: 0.6"/>
      </g>
     </g>
    </g>
    <g id="xtick_12">
     <g id="line2d_21">
      <g>
       <use xlink:href="#ma4de7ca12e" x="103.058148" y="376.989812" style="stroke: #000000; stroke-width: 0.6"/>
      </g>
     </g>
    </g>
    <g id="xtick_13">
     <g id="line2d_22">
      <g>
       <use xlink:href="#ma4de7ca12e" x="110.661791" y="376.989812" style="stroke: #000000; stroke-width: 0.6"/>
      </g>
     </g>
    </g>
    <g id="xtick_14">
     <g id="line2d_23">
      <g>
       <use xlink:href="#ma4de7ca12e" x="116.87442" y="376.989812" style="stroke: #000000; stroke-width: 0.6"/>
      </g>
     </g>
    </g>
    <g id="xtick_15">
     <g id="line2d_24">
      <g>
       <use xlink:href="#ma4de7ca12e" x="122.127123" y="376.989812" style="stroke: #000000; stroke-width: 0.6"/>
      </g>
     </g>
    </g>
    <g id="xtick_16">
     <g id="line2d_25">
      <g>
       <use xlink:href="#ma4de7ca12e" x="126.677221" y="376.989812" style="stroke: #000000; stroke-width: 0.6"/>
      </g>
     </g>
    </g>
    <g id="xtick_17">
     <g id="line2d_26">
      <g>
       <use xlink:href="#ma4de7ca12e" x="130.690693" y="376.989812" style="stroke: #000000; stroke-width: 0.6"/>
      </g>
     </g>
    </g>
    <g id="xtick_18">
     <g id="line2d_27">
      <g>
       <use xlink:href="#ma4de7ca12e" x="157.899939" y="376.989812" style="stroke: #000000; stroke-width: 0.6"/>
      </g>
     </g>
    </g>
    <g id="xtick_19">
     <g id="line2d_28">
      <g>
       <use xlink:href="#ma4de7ca12e" x="171.716211" y="376.989812" style="stroke: #000000; stroke-width: 0.6"/>
      </g>
     </g>
    </g>
    <g id="xtick_20">
     <g id="line2d_29">
      <g>
       <use xlink:href="#ma4de7ca12e" x="181.519012" y="376.989812" style="stroke: #000000; stroke-width: 0.6"/>
      </g>
     </g>
    </g>
    <g id="xtick_21">
     <g id="line2d_30">
      <g>
       <use xlink:href="#ma4de7ca12e" x="189.122656" y="376.989812" style="stroke: #000000; stroke-width: 0.6"/>
      </g>
     </g>
    </g>
    <g id="xtick_22">
     <g id="line2d_31">
      <g>
       <use xlink:href="#ma4de7ca12e" x="195.335285" y="376.989812" style="stroke: #000000; stroke-width: 0.6"/>
      </g>
     </g>
    </g>
    <g id="xtick_23">
     <g id="line2d_32">
      <g>
       <use xlink:href="#ma4de7ca12e" x="200.587988" y="376.989812" style="stroke: #000000; stroke-width: 0.6"/>
      </g>
     </g>
    </g>
    <g id="xtick_24">
     <g id="line2d_33">
      <g>
       <use xlink:href="#ma4de7ca12e" x="205.138086" y="376.989812" style="stroke: #000000; stroke-width: 0.6"/>
      </g>
     </g>
    </g>
    <g id="xtick_25">
     <g id="line2d_34">
      <g>
       <use xlink:href="#ma4de7ca12e" x="209.151557" y="376.989812" style="stroke: #000000; stroke-width: 0.6"/>
      </g>
     </g>
    </g>
    <g id="xtick_26">
     <g id="line2d_35">
      <g>
       <use xlink:href="#ma4de7ca12e" x="236.360803" y="376.989812" style="stroke: #000000; stroke-width: 0.6"/>
      </g>
     </g>
    </g>
    <g id="xtick_27">
     <g id="line2d_36">
      <g>
       <use xlink:href="#ma4de7ca12e" x="250.177076" y="376.989812" style="stroke: #000000; stroke-width: 0.6"/>
      </g>
     </g>
    </g>
    <g id="xtick_28">
     <g id="line2d_37">
      <g>
       <use xlink:href="#ma4de7ca12e" x="259.979877" y="376.989812" style="stroke: #000000; stroke-width: 0.6"/>
      </g>
     </g>
    </g>
    <g id="xtick_29">
     <g id="line2d_38">
      <g>
       <use xlink:href="#ma4de7ca12e" x="267.583521" y="376.989812" style="stroke: #000000; stroke-width: 0.6"/>
      </g>
     </g>
    </g>
    <g id="xtick_30">
     <g id="line2d_39">
      <g>
       <use xlink:href="#ma4de7ca12e" x="273.79615" y="376.989812" style="stroke: #000000; stroke-width: 0.6"/>
      </g>
     </g>
    </g>
    <g id="xtick_31">
     <g id="line2d_40">
      <g>
       <use xlink:href="#ma4de7ca12e" x="279.048853" y="376.989812" style="stroke: #000000; stroke-width: 0.6"/>
      </g>
     </g>
    </g>
    <g id="xtick_32">
     <g id="line2d_41">
      <g>
       <use xlink:href="#ma4de7ca12e" x="283.598951" y="376.989812" style="stroke: #000000; stroke-width: 0.6"/>
      </g>
     </g>
    </g>
    <g id="xtick_33">
     <g id="line2d_42">
      <g>
       <use xlink:href="#ma4de7ca12e" x="287.612422" y="376.989812" style="stroke: #000000; stroke-width: 0.6"/>
      </g>
     </g>
    </g>
    <g id="xtick_34">
     <g id="line2d_43">
      <g>
       <use xlink:href="#ma4de7ca12e" x="314.821668" y="376.989812" style="stroke: #000000; stroke-width: 0.6"/>
      </g>
     </g>
    </g>
    <g id="xtick_35">
     <g id="line2d_44">
      <g>
       <use xlink:href="#ma4de7ca12e" x="328.637941" y="376.989812" style="stroke: #000000; stroke-width: 0.6"/>
      </g>
     </g>
    </g>
    <g id="xtick_36">
     <g id="line2d_45">
      <g>
       <use xlink:href="#ma4de7ca12e" x="338.440742" y="376.989812" style="stroke: #000000; stroke-width: 0.6"/>
      </g>
     </g>
    </g>
    <g id="xtick_37">
     <g id="line2d_46">
      <g>
       <use xlink:href="#ma4de7ca12e" x="346.044386" y="376.989812" style="stroke: #000000; stroke-width: 0.6"/>
      </g>
     </g>
    </g>
    <g id="xtick_38">
     <g id="line2d_47">
      <g>
       <use xlink:href="#ma4de7ca12e" x="352.257015" y="376.989812" style="stroke: #000000; stroke-width: 0.6"/>
      </g>
     </g>
    </g>
    <g id="xtick_39">
     <g id="line2d_48">
      <g>
       <use xlink:href="#ma4de7ca12e" x="357.509718" y="376.989812" style="stroke: #000000; stroke-width: 0.6"/>
      </g>
     </g>
    </g>
    <g id="xtick_40">
     <g id="line2d_49">
      <g>
       <use xlink:href="#ma4de7ca12e" x="362.059816" y="376.989812" style="stroke: #000000; stroke-width: 0.6"/>
      </g>
     </g>
    </g>
    <g id="xtick_41">
     <g id="line2d_50">
      <g>
       <use xlink:href="#ma4de7ca12e" x="366.073287" y="376.989812" style="stroke: #000000; stroke-width: 0.6"/>
      </g>
     </g>
    </g>
    <g id="xtick_42">
     <g id="line2d_51">
      <g>
       <use xlink:href="#ma4de7ca12e" x="393.282533" y="376.989812" style="stroke: #000000; stroke-width: 0.6"/>
      </g>
     </g>
    </g>
    <g id="xtick_43">
     <g id="line2d_52">
      <g>
       <use xlink:href="#ma4de7ca12e" x="407.098806" y="376.989812" style="stroke: #000000; stroke-width: 0.6"/>
      </g>
     </g>
    </g>
    <g id="xtick_44">
     <g id="line2d_53">
      <g>
       <use xlink:href="#ma4de7ca12e" x="416.901607" y="376.989812" style="stroke: #000000; stroke-width: 0.6"/>
      </g>
     </g>
    </g>
    <g id="xtick_45">
     <g id="line2d_54">
      <g>
       <use xlink:href="#ma4de7ca12e" x="424.50525" y="376.989812" style="stroke: #000000; stroke-width: 0.6"/>
      </g>
     </g>
    </g>
    <g id="xtick_46">
     <g id="line2d_55">
      <g>
       <use xlink:href="#ma4de7ca12e" x="430.717879" y="376.989812" style="stroke: #000000; stroke-width: 0.6"/>
      </g>
     </g>
    </g>
    <g id="xtick_47">
     <g id="line2d_56">
      <g>
       <use xlink:href="#ma4de7ca12e" x="435.970582" y="376.989812" style="stroke: #000000; stroke-width: 0.6"/>
      </g>
     </g>
    </g>
    <g id="xtick_48">
     <g id="line2d_57">
      <g>
       <use xlink:href="#ma4de7ca12e" x="440.520681" y="376.989812" style="stroke: #000000; stroke-width: 0.6"/>
      </g>
     </g>
    </g>
    <g id="xtick_49">
     <g id="line2d_58">
      <g>
       <use xlink:href="#ma4de7ca12e" x="444.534152" y="376.989812" style="stroke: #000000; stroke-width: 0.6"/>
      </g>
     </g>
    </g>
    <g id="xtick_50">
     <g id="line2d_59">
      <g>
       <use xlink:href="#ma4de7ca12e" x="471.743398" y="376.989812" style="stroke: #000000; stroke-width: 0.6"/>
      </g>
     </g>
    </g>
    <g id="xtick_51">
     <g id="line2d_60">
      <g>
       <use xlink:href="#ma4de7ca12e" x="485.55967" y="376.989812" style="stroke: #000000; stroke-width: 0.6"/>
      </g>
     </g>
    </g>
    <g id="xtick_52">
     <g id="line2d_61">
      <g>
       <use xlink:href="#ma4de7ca12e" x="495.362472" y="376.989812" style="stroke: #000000; stroke-width: 0.6"/>
      </g>
     </g>
    </g>
    <g id="xtick_53">
     <g id="line2d_62">
      <g>
       <use xlink:href="#ma4de7ca12e" x="502.966115" y="376.989812" style="stroke: #000000; stroke-width: 0.6"/>
      </g>
     </g>
    </g>
    <g id="xtick_54">
     <g id="line2d_63">
      <g>
       <use xlink:href="#ma4de7ca12e" x="509.178744" y="376.989812" style="stroke: #000000; stroke-width: 0.6"/>
      </g>
     </g>
    </g>
    <g id="xtick_55">
     <g id="line2d_64">
      <g>
       <use xlink:href="#ma4de7ca12e" x="514.431447" y="376.989812" style="stroke: #000000; stroke-width: 0.6"/>
      </g>
     </g>
    </g>
    <g id="xtick_56">
     <g id="line2d_65">
      <g>
       <use xlink:href="#ma4de7ca12e" x="518.981546" y="376.989812" style="stroke: #000000; stroke-width: 0.6"/>
      </g>
     </g>
    </g>
    <g id="xtick_57">
     <g id="line2d_66">
      <g>
       <use xlink:href="#ma4de7ca12e" x="522.995017" y="376.989812" style="stroke: #000000; stroke-width: 0.6"/>
      </g>
     </g>
    </g>
    <g id="xtick_58">
     <g id="line2d_67">
      <g>
       <use xlink:href="#ma4de7ca12e" x="550.204263" y="376.989812" style="stroke: #000000; stroke-width: 0.6"/>
      </g>
     </g>
    </g>
    <g id="xtick_59">
     <g id="line2d_68">
      <g>
       <use xlink:href="#ma4de7ca12e" x="564.020535" y="376.989812" style="stroke: #000000; stroke-width: 0.6"/>
      </g>
     </g>
    </g>
    <g id="xtick_60">
     <g id="line2d_69">
      <g>
       <use xlink:href="#ma4de7ca12e" x="573.823337" y="376.989812" style="stroke: #000000; stroke-width: 0.6"/>
      </g>
     </g>
    </g>
    <g id="xtick_61">
     <g id="line2d_70">
      <g>
       <use xlink:href="#ma4de7ca12e" x="581.42698" y="376.989812" style="stroke: #000000; stroke-width: 0.6"/>
      </g>
     </g>
    </g>
    <g id="xtick_62">
     <g id="line2d_71">
      <g>
       <use xlink:href="#ma4de7ca12e" x="587.639609" y="376.989812" style="stroke: #000000; stroke-width: 0.6"/>
      </g>
     </g>
    </g>
    <g id="xtick_63">
     <g id="line2d_72">
      <g>
       <use xlink:href="#ma4de7ca12e" x="592.892312" y="376.989812" style="stroke: #000000; stroke-width: 0.6"/>
      </g>
     </g>
    </g>
    <g id="xtick_64">
     <g id="line2d_73">
      <g>
       <use xlink:href="#ma4de7ca12e" x="597.44241" y="376.989812" style="stroke: #000000; stroke-width: 0.6"/>
      </g>
     </g>
    </g>
    <g id="xtick_65">
     <g id="line2d_74">
      <g>
       <use xlink:href="#ma4de7ca12e" x="601.455882" y="376.989812" style="stroke: #000000; stroke-width: 0.6"/>
      </g>
     </g>
    </g>
    <g id="xtick_66">
     <g id="line2d_75">
      <g>
       <use xlink:href="#ma4de7ca12e" x="628.665128" y="376.989812" style="stroke: #000000; stroke-width: 0.6"/>
      </g>
     </g>
    </g>
    <g id="xtick_67">
     <g id="line2d_76">
      <g>
       <use xlink:href="#ma4de7ca12e" x="642.4814" y="376.989812" style="stroke: #000000; stroke-width: 0.6"/>
      </g>
     </g>
    </g>
    <g id="xtick_68">
     <g id="line2d_77">
      <g>
       <use xlink:href="#ma4de7ca12e" x="652.284201" y="376.989812" style="stroke: #000000; stroke-width: 0.6"/>
      </g>
     </g>
    </g>
    <g id="xtick_69">
     <g id="line2d_78">
      <g>
       <use xlink:href="#ma4de7ca12e" x="659.887845" y="376.989812" style="stroke: #000000; stroke-width: 0.6"/>
      </g>
     </g>
    </g>
    <g id="xtick_70">
     <g id="line2d_79">
      <g>
       <use xlink:href="#ma4de7ca12e" x="666.100474" y="376.989812" style="stroke: #000000; stroke-width: 0.6"/>
      </g>
     </g>
    </g>
    <g id="xtick_71">
     <g id="line2d_80">
      <g>
       <use xlink:href="#ma4de7ca12e" x="671.353177" y="376.989812" style="stroke: #000000; stroke-width: 0.6"/>
      </g>
     </g>
    </g>
    <g id="xtick_72">
     <g id="line2d_81">
      <g>
       <use xlink:href="#ma4de7ca12e" x="675.903275" y="376.989812" style="stroke: #000000; stroke-width: 0.6"/>
      </g>
     </g>
    </g>
    <g id="xtick_73">
     <g id="line2d_82">
      <g>
       <use xlink:href="#ma4de7ca12e" x="679.916746" y="376.989812" style="stroke: #000000; stroke-width: 0.6"/>
      </g>
     </g>
    </g>
    <g id="text_10">
     <!-- Mass $M$ (kg) -->
     <g transform="translate(332.583459 407.75575) scale(0.12 -0.12)">
      <defs>
       <path id="DejaVuSerif-4d" d="M 353 0 
L 353 331 
L 947 331 
L 947 4331 
L 319 4331 
L 319 4666 
L 1678 4666 
L 3316 1344 
L 4953 4666 
L 6228 4666 
L 6228 4331 
L 5606 4331 
L 5606 331 
L 6203 331 
L 6203 0 
L 4378 0 
L 4378 331 
L 4972 331 
L 4972 3938 
L 3372 684 
L 2931 684 
L 1331 3938 
L 1331 331 
L 1925 331 
L 1925 0 
L 353 0 
z
" transform="scale(0.015625)"/>
       <path id="DejaVuSerif-61" d="M 2547 1044 
L 2547 1747 
L 1806 1747 
Q 1378 1747 1168 1562 
Q 959 1378 959 997 
Q 959 650 1171 447 
Q 1384 244 1747 244 
Q 2106 244 2326 466 
Q 2547 688 2547 1044 
z
M 3122 2075 
L 3122 331 
L 3634 331 
L 3634 0 
L 2547 0 
L 2547 359 
Q 2356 128 2106 18 
Q 1856 -91 1522 -91 
Q 969 -91 644 203 
Q 319 497 319 997 
Q 319 1513 691 1797 
Q 1063 2081 1741 2081 
L 2547 2081 
L 2547 2309 
Q 2547 2688 2317 2895 
Q 2088 3103 1672 3103 
Q 1328 3103 1125 2947 
Q 922 2791 872 2484 
L 575 2484 
L 575 3156 
Q 875 3284 1158 3348 
Q 1441 3413 1709 3413 
Q 2400 3413 2761 3070 
Q 3122 2728 3122 2075 
z
" transform="scale(0.015625)"/>
       <path id="DejaVuSerif-73" d="M 359 184 
L 359 959 
L 691 959 
Q 703 588 923 403 
Q 1144 219 1575 219 
Q 1963 219 2166 364 
Q 2369 509 2369 788 
Q 2369 1006 2220 1140 
Q 2072 1275 1594 1428 
L 1178 1569 
Q 750 1706 558 1912 
Q 366 2119 366 2438 
Q 366 2894 700 3153 
Q 1034 3413 1625 3413 
Q 1888 3413 2178 3344 
Q 2469 3275 2778 3144 
L 2778 2419 
L 2447 2419 
Q 2434 2741 2221 2922 
Q 2009 3103 1644 3103 
Q 1281 3103 1095 2975 
Q 909 2847 909 2591 
Q 909 2381 1050 2254 
Q 1191 2128 1613 1997 
L 2069 1856 
Q 2541 1709 2748 1489 
Q 2956 1269 2956 922 
Q 2956 450 2595 179 
Q 2234 -91 1600 -91 
Q 1278 -91 972 -22 
Q 666 47 359 184 
z
" transform="scale(0.015625)"/>
       <path id="DejaVuSerif-20" transform="scale(0.015625)"/>
       <path id="DejaVuSans-Oblique-4d" d="M 1081 4666 
L 2028 4666 
L 2572 1522 
L 4378 4666 
L 5350 4666 
L 4441 0 
L 3828 0 
L 4622 4091 
L 2791 897 
L 2175 897 
L 1581 4103 
L 788 0 
L 172 0 
L 1081 4666 
z
" transform="scale(0.015625)"/>
       <path id="DejaVuSerif-28" d="M 2041 -997 
Q 1281 -656 893 83 
Q 506 822 506 1931 
Q 506 3044 893 3783 
Q 1281 4522 2041 4863 
L 2041 4556 
Q 1559 4225 1350 3623 
Q 1141 3022 1141 1931 
Q 1141 844 1350 242 
Q 1559 -359 2041 -691 
L 2041 -997 
z
" transform="scale(0.015625)"/>
       <path id="DejaVuSerif-6b" d="M 1831 0 
L 219 0 
L 219 331 
L 738 331 
L 738 4531 
L 184 4531 
L 184 4863 
L 1313 4863 
L 1313 1697 
L 2713 2988 
L 2234 2988 
L 2234 3322 
L 3738 3322 
L 3738 2988 
L 3169 2988 
L 2181 2075 
L 3444 331 
L 3922 331 
L 3922 0 
L 2284 0 
L 2284 331 
L 2759 331 
L 1766 1697 
L 1313 1275 
L 1313 331 
L 1831 331 
L 1831 0 
z
" transform="scale(0.015625)"/>
       <path id="DejaVuSerif-67" d="M 3359 2988 
L 3359 72 
Q 3359 -644 2965 -1033 
Q 2572 -1422 1844 -1422 
Q 1516 -1422 1216 -1362 
Q 916 -1303 641 -1184 
L 641 -488 
L 941 -488 
Q 997 -813 1206 -963 
Q 1416 -1113 1806 -1113 
Q 2313 -1113 2548 -827 
Q 2784 -541 2784 72 
L 2784 519 
Q 2616 206 2355 57 
Q 2094 -91 1709 -91 
Q 1097 -91 708 395 
Q 319 881 319 1663 
Q 319 2444 706 2928 
Q 1094 3413 1709 3413 
Q 2094 3413 2355 3264 
Q 2616 3116 2784 2803 
L 2784 3322 
L 3909 3322 
L 3909 2988 
L 3359 2988 
z
M 2784 1825 
Q 2784 2422 2554 2737 
Q 2325 3053 1888 3053 
Q 1444 3053 1217 2703 
Q 991 2353 991 1663 
Q 991 975 1217 622 
Q 1444 269 1888 269 
Q 2325 269 2554 583 
Q 2784 897 2784 1497 
L 2784 1825 
z
" transform="scale(0.015625)"/>
       <path id="DejaVuSerif-29" d="M 453 -997 
L 453 -691 
Q 934 -359 1145 242 
Q 1356 844 1356 1931 
Q 1356 3022 1145 3623 
Q 934 4225 453 4556 
L 453 4863 
Q 1216 4522 1603 3783 
Q 1991 3044 1991 1931 
Q 1991 822 1603 83 
Q 1216 -656 453 -997 
z
" transform="scale(0.015625)"/>
      </defs>
      <use xlink:href="#DejaVuSerif-4d" transform="translate(0 0.015625)"/>
      <use xlink:href="#DejaVuSerif-61" transform="translate(102.392578 0.015625)"/>
      <use xlink:href="#DejaVuSerif-73" transform="translate(162.011719 0.015625)"/>
      <use xlink:href="#DejaVuSerif-73" transform="translate(213.330078 0.015625)"/>
      <use xlink:href="#DejaVuSerif-20" transform="translate(264.648438 0.015625)"/>
      <use xlink:href="#DejaVuSans-Oblique-4d" transform="translate(296.435547 0.015625)"/>
      <use xlink:href="#DejaVuSerif-20" transform="translate(382.714844 0.015625)"/>
      <use xlink:href="#DejaVuSerif-28" transform="translate(414.501953 0.015625)"/>
      <use xlink:href="#DejaVuSerif-6b" transform="translate(453.515625 0.015625)"/>
      <use xlink:href="#DejaVuSerif-67" transform="translate(514.111328 0.015625)"/>
      <use xlink:href="#DejaVuSerif-29" transform="translate(578.125 0.015625)"/>
     </g>
    </g>
   </g>
   <g id="matplotlib.axis_2">
    <g id="ytick_1">
     <g id="line2d_83">
      <path d="M 55.82 320.80654 
L 683.506919 320.80654 
" clip-path="url(#p435f6853fd)" style="fill: none; stroke: #b0b0b0; stroke-opacity: 0.3; stroke-width: 0.8; stroke-linecap: square"/>
     </g>
     <g id="line2d_84">
      <defs>
       <path id="maa0cdb5fbe" d="M 0 0 
L -3.5 0 
" style="stroke: #000000; stroke-width: 0.8"/>
      </defs>
      <g>
       <use xlink:href="#maa0cdb5fbe" x="55.82" y="320.80654" style="stroke: #000000; stroke-width: 0.8"/>
      </g>
     </g>
     <g id="text_11">
      <!-- $\mathdefault{10^{-2}}$ -->
      <g transform="translate(23.08 324.98568) scale(0.11 -0.11)">
       <use xlink:href="#DejaVuSerif-31" transform="translate(0 0.7125)"/>
       <use xlink:href="#DejaVuSerif-30" transform="translate(63.623047 0.7125)"/>
       <use xlink:href="#DejaVuSerif-2212" transform="translate(128.154453 37.046875) scale(0.7)"/>
       <use xlink:href="#DejaVuSerif-32" transform="translate(186.806797 37.046875) scale(0.7)"/>
      </g>
     </g>
    </g>
    <g id="ytick_2">
     <g id="line2d_85">
      <path d="M 55.82 240.544722 
L 683.506919 240.544722 
" clip-path="url(#p435f6853fd)" style="fill: none; stroke: #b0b0b0; stroke-opacity: 0.3; stroke-width: 0.8; stroke-linecap: square"/>
     </g>
     <g id="line2d_86">
      <g>
       <use xlink:href="#maa0cdb5fbe" x="55.82" y="240.544722" style="stroke: #000000; stroke-width: 0.8"/>
      </g>
     </g>
     <g id="text_12">
      <!-- $\mathdefault{10^{0}}$ -->
      <g transform="translate(29.46 244.723862) scale(0.11 -0.11)">
       <use xlink:href="#DejaVuSerif-31" transform="translate(0 0.7125)"/>
       <use xlink:href="#DejaVuSerif-30" transform="translate(63.623047 0.7125)"/>
       <use xlink:href="#DejaVuSerif-30" transform="translate(128.154453 37.046875) scale(0.7)"/>
      </g>
     </g>
    </g>
    <g id="ytick_3">
     <g id="line2d_87">
      <path d="M 55.82 160.282903 
L 683.506919 160.282903 
" clip-path="url(#p435f6853fd)" style="fill: none; stroke: #b0b0b0; stroke-opacity: 0.3; stroke-width: 0.8; stroke-linecap: square"/>
     </g>
     <g id="line2d_88">
      <g>
       <use xlink:href="#maa0cdb5fbe" x="55.82" y="160.282903" style="stroke: #000000; stroke-width: 0.8"/>
      </g>
     </g>
     <g id="text_13">
      <!-- $\mathdefault{10^{2}}$ -->
      <g transform="translate(29.46 164.462044) scale(0.11 -0.11)">
       <use xlink:href="#DejaVuSerif-31" transform="translate(0 0.7125)"/>
       <use xlink:href="#DejaVuSerif-30" transform="translate(63.623047 0.7125)"/>
       <use xlink:href="#DejaVuSerif-32" transform="translate(128.154453 37.046875) scale(0.7)"/>
      </g>
     </g>
    </g>
    <g id="ytick_4">
     <g id="line2d_89">
      <path d="M 55.82 80.021085 
L 683.506919 80.021085 
" clip-path="url(#p435f6853fd)" style="fill: none; stroke: #b0b0b0; stroke-opacity: 0.3; stroke-width: 0.8; stroke-linecap: square"/>
     </g>
     <g id="line2d_90">
      <g>
       <use xlink:href="#maa0cdb5fbe" x="55.82" y="80.021085" style="stroke: #000000; stroke-width: 0.8"/>
      </g>
     </g>
     <g id="text_14">
      <!-- $\mathdefault{10^{4}}$ -->
      <g transform="translate(29.46 84.200226) scale(0.11 -0.11)">
       <use xlink:href="#DejaVuSerif-31" transform="translate(0 0.7125)"/>
       <use xlink:href="#DejaVuSerif-30" transform="translate(63.623047 0.7125)"/>
       <use xlink:href="#DejaVuSerif-34" transform="translate(128.154453 37.046875) scale(0.7)"/>
      </g>
     </g>
    </g>
    <g id="text_15">
     <!-- Entropy $S / k_B$ -->
     <g transform="translate(16.32 239.053812) rotate(-90) scale(0.12 -0.12)">
      <defs>
       <path id="DejaVuSerif-45" d="M 353 0 
L 353 331 
L 947 331 
L 947 4331 
L 353 4331 
L 353 4666 
L 4109 4666 
L 4109 3628 
L 3725 3628 
L 3725 4281 
L 1581 4281 
L 1581 2719 
L 3109 2719 
L 3109 3303 
L 3494 3303 
L 3494 1753 
L 3109 1753 
L 3109 2338 
L 1581 2338 
L 1581 384 
L 3775 384 
L 3775 1038 
L 4159 1038 
L 4159 0 
L 353 0 
z
" transform="scale(0.015625)"/>
       <path id="DejaVuSerif-6e" d="M 263 0 
L 263 331 
L 781 331 
L 781 2988 
L 231 2988 
L 231 3322 
L 1356 3322 
L 1356 2731 
Q 1516 3069 1770 3241 
Q 2025 3413 2363 3413 
Q 2913 3413 3172 3097 
Q 3431 2781 3431 2113 
L 3431 331 
L 3944 331 
L 3944 0 
L 2356 0 
L 2356 331 
L 2853 331 
L 2853 1931 
Q 2853 2541 2703 2767 
Q 2553 2994 2175 2994 
Q 1775 2994 1565 2701 
Q 1356 2409 1356 1850 
L 1356 331 
L 1856 331 
L 1856 0 
L 263 0 
z
" transform="scale(0.015625)"/>
       <path id="DejaVuSerif-74" d="M 691 2988 
L 184 2988 
L 184 3322 
L 691 3322 
L 691 4353 
L 1269 4353 
L 1269 3322 
L 2350 3322 
L 2350 2988 
L 1269 2988 
L 1269 878 
Q 1269 456 1350 337 
Q 1431 219 1650 219 
Q 1875 219 1978 351 
Q 2081 484 2088 781 
L 2522 781 
Q 2497 328 2275 118 
Q 2053 -91 1600 -91 
Q 1103 -91 897 129 
Q 691 350 691 878 
L 691 2988 
z
" transform="scale(0.015625)"/>
       <path id="DejaVuSerif-72" d="M 3059 3328 
L 3059 2497 
L 2728 2497 
Q 2713 2744 2591 2866 
Q 2469 2988 2234 2988 
Q 1809 2988 1582 2694 
Q 1356 2400 1356 1850 
L 1356 331 
L 2022 331 
L 2022 0 
L 263 0 
L 263 331 
L 781 331 
L 781 2994 
L 231 2994 
L 231 3322 
L 1356 3322 
L 1356 2731 
Q 1525 3078 1790 3245 
Q 2056 3413 2438 3413 
Q 2578 3413 2733 3391 
Q 2888 3369 3059 3328 
z
" transform="scale(0.015625)"/>
       <path id="DejaVuSerif-6f" d="M 1925 219 
Q 2388 219 2623 584 
Q 2859 950 2859 1663 
Q 2859 2375 2623 2739 
Q 2388 3103 1925 3103 
Q 1463 3103 1227 2739 
Q 991 2375 991 1663 
Q 991 950 1228 584 
Q 1466 219 1925 219 
z
M 1925 -91 
Q 1200 -91 759 389 
Q 319 869 319 1663 
Q 319 2456 758 2934 
Q 1197 3413 1925 3413 
Q 2653 3413 3092 2934 
Q 3531 2456 3531 1663 
Q 3531 869 3092 389 
Q 2653 -91 1925 -91 
z
" transform="scale(0.015625)"/>
       <path id="DejaVuSerif-70" d="M 1313 1825 
L 1313 1497 
Q 1313 897 1542 583 
Q 1772 269 2209 269 
Q 2650 269 2876 622 
Q 3103 975 3103 1663 
Q 3103 2353 2876 2703 
Q 2650 3053 2209 3053 
Q 1772 3053 1542 2737 
Q 1313 2422 1313 1825 
z
M 738 2988 
L 184 2988 
L 184 3322 
L 1313 3322 
L 1313 2803 
Q 1481 3116 1742 3264 
Q 2003 3413 2388 3413 
Q 3000 3413 3387 2928 
Q 3775 2444 3775 1663 
Q 3775 881 3387 395 
Q 3000 -91 2388 -91 
Q 2003 -91 1742 57 
Q 1481 206 1313 519 
L 1313 -997 
L 1856 -997 
L 1856 -1331 
L 184 -1331 
L 184 -997 
L 738 -997 
L 738 2988 
z
" transform="scale(0.015625)"/>
       <path id="DejaVuSerif-79" d="M 1381 -609 
L 1600 -56 
L 359 2988 
L -19 2988 
L -19 3322 
L 1509 3322 
L 1509 2988 
L 978 2988 
L 1913 703 
L 2847 2988 
L 2350 2988 
L 2350 3322 
L 3597 3322 
L 3597 2988 
L 3225 2988 
L 1703 -750 
Q 1547 -1138 1356 -1280 
Q 1166 -1422 819 -1422 
Q 672 -1422 517 -1397 
Q 363 -1372 206 -1325 
L 206 -691 
L 500 -691 
Q 519 -903 608 -995 
Q 697 -1088 884 -1088 
Q 1056 -1088 1161 -992 
Q 1266 -897 1381 -609 
z
" transform="scale(0.015625)"/>
       <path id="DejaVuSans-Oblique-53" d="M 3859 4513 
L 3738 3897 
Q 3422 4066 3111 4152 
Q 2800 4238 2509 4238 
Q 1944 4238 1609 3991 
Q 1275 3744 1275 3334 
Q 1275 3109 1398 2989 
Q 1522 2869 2034 2731 
L 2413 2638 
Q 3053 2472 3303 2217 
Q 3553 1963 3553 1503 
Q 3553 797 2998 353 
Q 2444 -91 1538 -91 
Q 1166 -91 791 -17 
Q 416 56 38 206 
L 166 856 
Q 513 641 861 531 
Q 1209 422 1556 422 
Q 2147 422 2503 684 
Q 2859 947 2859 1369 
Q 2859 1650 2717 1795 
Q 2575 1941 2106 2059 
L 1728 2156 
Q 1081 2325 845 2545 
Q 609 2766 609 3163 
Q 609 3859 1145 4304 
Q 1681 4750 2541 4750 
Q 2875 4750 3203 4690 
Q 3531 4631 3859 4513 
z
" transform="scale(0.015625)"/>
       <path id="DejaVuSans-2f" d="M 1625 4666 
L 2156 4666 
L 531 -594 
L 0 -594 
L 1625 4666 
z
" transform="scale(0.015625)"/>
       <path id="DejaVuSans-Oblique-6b" d="M 1172 4863 
L 1747 4863 
L 1197 2028 
L 3169 3500 
L 3916 3500 
L 1716 1825 
L 3322 0 
L 2625 0 
L 1131 1709 
L 800 0 
L 225 0 
L 1172 4863 
z
" transform="scale(0.015625)"/>
       <path id="DejaVuSans-Oblique-42" d="M 1081 4666 
L 2694 4666 
Q 3350 4666 3675 4422 
Q 4000 4178 4000 3688 
Q 4000 3238 3720 2911 
Q 3441 2584 2988 2516 
Q 3375 2428 3569 2181 
Q 3763 1934 3763 1522 
Q 3763 819 3242 409 
Q 2722 0 1819 0 
L 172 0 
L 1081 4666 
z
M 1234 2228 
L 903 519 
L 1919 519 
Q 2491 519 2800 781 
Q 3109 1044 3109 1522 
Q 3109 1891 2904 2059 
Q 2700 2228 2247 2228 
L 1234 2228 
z
M 1606 4147 
L 1331 2741 
L 2272 2741 
Q 2775 2741 3058 2959 
Q 3341 3178 3341 3566 
Q 3341 3869 3150 4008 
Q 2959 4147 2541 4147 
L 1606 4147 
z
" transform="scale(0.015625)"/>
      </defs>
      <use xlink:href="#DejaVuSerif-45" transform="translate(0 0.015625)"/>
      <use xlink:href="#DejaVuSerif-6e" transform="translate(72.998047 0.015625)"/>
      <use xlink:href="#DejaVuSerif-74" transform="translate(137.402344 0.015625)"/>
      <use xlink:href="#DejaVuSerif-72" transform="translate(177.587891 0.015625)"/>
      <use xlink:href="#DejaVuSerif-6f" transform="translate(225.390625 0.015625)"/>
      <use xlink:href="#DejaVuSerif-70" transform="translate(285.595703 0.015625)"/>
      <use xlink:href="#DejaVuSerif-79" transform="translate(349.609375 0.015625)"/>
      <use xlink:href="#DejaVuSerif-20" transform="translate(406.103516 0.015625)"/>
      <use xlink:href="#DejaVuSans-Oblique-53" transform="translate(437.890625 0.015625)"/>
      <use xlink:href="#DejaVuSans-2f" transform="translate(501.367188 0.015625)"/>
      <use xlink:href="#DejaVuSans-Oblique-6b" transform="translate(535.058594 0.015625)"/>
      <use xlink:href="#DejaVuSans-Oblique-42" transform="translate(592.96875 -16.390625) scale(0.7)"/>
     </g>
    </g>
   </g>
   <g id="line2d_91">
    <path d="M 55.82 360.937449 
L 683.506919 39.890176 
L 683.506919 39.890176 
" clip-path="url(#p435f6853fd)" style="fill: none; stroke: #0000ff; stroke-width: 2.5; stroke-linecap: square"/>
   </g>
   <g id="line2d_92">
    <path d="M 55.82 302.848992 
L 683.506919 88.817477 
L 683.506919 88.817477 
" clip-path="url(#p435f6853fd)" style="fill: none; stroke: #ff0000; stroke-width: 2.5; stroke-linecap: square"/>
   </g>
   <g id="line2d_93">
    <path d="M 396.530239 376.989812 
L 396.530239 23.837812 
" clip-path="url(#p435f6853fd)" style="fill: none; stroke-dasharray: 5.55,2.4; stroke-dashoffset: 0; stroke: #800080; stroke-opacity: 0.7; stroke-width: 1.5"/>
   </g>
   <g id="patch_3">
    <path d="M 55.82 376.989812 
L 55.82 23.837812 
" style="fill: none; stroke: #000000; stroke-width: 0.8; stroke-linejoin: miter; stroke-linecap: square"/>
   </g>
   <g id="patch_4">
    <path d="M 683.506919 376.989812 
L 683.506919 23.837812 
" style="fill: none; stroke: #000000; stroke-width: 0.8; stroke-linejoin: miter; stroke-linecap: square"/>
   </g>
   <g id="patch_5">
    <path d="M 55.82 376.989812 
L 683.506919 376.989812 
" style="fill: none; stroke: #000000; stroke-width: 0.8; stroke-linejoin: miter; stroke-linecap: square"/>
   </g>
   <g id="patch_6">
    <path d="M 55.82 23.837812 
L 683.506919 23.837812 
" style="fill: none; stroke: #000000; stroke-width: 0.8; stroke-linejoin: miter; stroke-linecap: square"/>
   </g>
   <g id="patch_7">
    <path d="M 475.7358 172.408966 
Q 437.116804 179.363365 399.598144 186.119619 
" style="fill: none; stroke: #000000; stroke-linecap: round"/>
    <path d="M 404.318391 187.504997 
L 399.598144 186.119619 
L 403.538594 183.174648 
" style="fill: none; stroke: #000000; stroke-linecap: round"/>
   </g>
   <g id="text_16">
    <!-- Crossing at $M_c$ -->
    <g transform="translate(474.991104 167.524769) scale(0.11 -0.11)">
     <defs>
      <path id="DejaVuSerif-Bold-43" d="M 4769 1331 
Q 4584 609 4106 259 
Q 3628 -91 2822 -91 
Q 1641 -91 955 561 
Q 269 1213 269 2328 
Q 269 3447 955 4098 
Q 1641 4750 2822 4750 
Q 3238 4750 3688 4650 
Q 4138 4550 4641 4347 
L 4641 3200 
L 4244 3200 
Q 4122 3788 3800 4080 
Q 3478 4372 2950 4372 
Q 2269 4372 1937 3870 
Q 1606 3369 1606 2328 
Q 1606 1288 1937 788 
Q 2269 288 2956 288 
Q 3422 288 3717 547 
Q 4013 806 4147 1331 
L 4769 1331 
z
" transform="scale(0.015625)"/>
      <path id="DejaVuSerif-Bold-72" d="M 3438 3359 
L 3438 2369 
L 3084 2369 
Q 3066 2634 2941 2764 
Q 2816 2894 2578 2894 
Q 2216 2894 2006 2575 
Q 1797 2256 1797 1691 
L 1797 378 
L 2400 378 
L 2400 0 
L 219 0 
L 219 378 
L 691 378 
L 691 2944 
L 184 2944 
L 184 3322 
L 1797 3322 
L 1797 2731 
Q 1959 3078 2226 3245 
Q 2494 3413 2881 3413 
Q 2978 3413 3117 3398 
Q 3256 3384 3438 3359 
z
" transform="scale(0.015625)"/>
      <path id="DejaVuSerif-Bold-6f" d="M 2138 263 
Q 2488 263 2630 563 
Q 2772 863 2772 1663 
Q 2772 2463 2631 2761 
Q 2491 3059 2138 3059 
Q 1784 3059 1640 2757 
Q 1497 2456 1497 1663 
Q 1497 869 1640 566 
Q 1784 263 2138 263 
z
M 2138 -91 
Q 1259 -91 761 376 
Q 263 844 263 1663 
Q 263 2484 761 2948 
Q 1259 3413 2138 3413 
Q 3019 3413 3516 2948 
Q 4013 2484 4013 1663 
Q 4013 844 3514 376 
Q 3016 -91 2138 -91 
z
" transform="scale(0.015625)"/>
      <path id="DejaVuSerif-Bold-73" d="M 300 97 
L 300 1025 
L 653 1025 
Q 697 653 931 458 
Q 1166 263 1569 263 
Q 1906 263 2086 380 
Q 2266 497 2266 716 
Q 2266 916 2152 1025 
Q 2038 1134 1709 1216 
L 1253 1331 
Q 738 1459 506 1698 
Q 275 1938 275 2344 
Q 275 2884 650 3148 
Q 1025 3413 1806 3413 
Q 2100 3413 2433 3364 
Q 2766 3316 3169 3213 
L 3169 2375 
L 2816 2375 
Q 2788 2716 2573 2887 
Q 2359 3059 1959 3059 
Q 1622 3059 1448 2951 
Q 1275 2844 1275 2638 
Q 1275 2469 1375 2372 
Q 1475 2275 1734 2209 
L 2188 2094 
Q 2841 1928 3091 1684 
Q 3341 1441 3341 1006 
Q 3341 444 2939 176 
Q 2538 -91 1691 -91 
Q 1381 -91 1034 -44 
Q 688 3 300 97 
z
" transform="scale(0.015625)"/>
      <path id="DejaVuSerif-Bold-69" d="M 588 4263 
Q 588 4516 763 4689 
Q 938 4863 1191 4863 
Q 1438 4863 1611 4689 
Q 1784 4516 1784 4263 
Q 1784 4016 1611 3842 
Q 1438 3669 1191 3669 
Q 938 3669 763 3841 
Q 588 4013 588 4263 
z
M 1797 378 
L 2272 378 
L 2272 0 
L 219 0 
L 219 378 
L 691 378 
L 691 2944 
L 219 2944 
L 219 3322 
L 1797 3322 
L 1797 378 
z
" transform="scale(0.015625)"/>
      <path id="DejaVuSerif-Bold-6e" d="M 219 0 
L 219 378 
L 691 378 
L 691 2944 
L 219 2944 
L 219 3322 
L 1797 3322 
L 1797 2853 
Q 1997 3150 2253 3281 
Q 2509 3413 2900 3413 
Q 3459 3413 3745 3083 
Q 4031 2753 4031 2113 
L 4031 378 
L 4506 378 
L 4506 0 
L 2522 0 
L 2522 378 
L 2925 378 
L 2925 2144 
Q 2925 2566 2817 2730 
Q 2709 2894 2444 2894 
Q 2109 2894 1953 2648 
Q 1797 2403 1797 1869 
L 1797 378 
L 2203 378 
L 2203 0 
L 219 0 
z
" transform="scale(0.015625)"/>
      <path id="DejaVuSerif-Bold-67" d="M 3853 2944 
L 3853 44 
Q 3853 -656 3354 -1039 
Q 2856 -1422 1947 -1422 
Q 1616 -1422 1275 -1370 
Q 934 -1319 575 -1216 
L 575 -422 
L 928 -422 
Q 975 -750 1192 -909 
Q 1409 -1069 1813 -1069 
Q 2325 -1069 2536 -823 
Q 2747 -578 2747 44 
L 2747 422 
Q 2606 163 2367 36 
Q 2128 -91 1778 -91 
Q 1072 -91 667 378 
Q 263 847 263 1663 
Q 263 2481 667 2947 
Q 1072 3413 1778 3413 
Q 2128 3413 2367 3286 
Q 2606 3159 2747 2900 
L 2747 3322 
L 4325 3322 
L 4325 2944 
L 3853 2944 
z
M 2747 1825 
Q 2747 2406 2597 2665 
Q 2447 2925 2119 2925 
Q 1775 2925 1636 2651 
Q 1497 2378 1497 1663 
Q 1497 947 1637 672 
Q 1778 397 2119 397 
Q 2447 397 2597 656 
Q 2747 916 2747 1497 
L 2747 1825 
z
" transform="scale(0.015625)"/>
      <path id="DejaVuSerif-Bold-20" transform="scale(0.015625)"/>
      <path id="DejaVuSerif-Bold-61" d="M 3525 2041 
L 3525 378 
L 4000 378 
L 4000 0 
L 2419 0 
L 2419 422 
Q 2200 159 1931 34 
Q 1663 -91 1319 -91 
Q 809 -91 536 182 
Q 263 456 263 966 
Q 263 1525 655 1803 
Q 1047 2081 1838 2081 
L 2419 2081 
L 2419 2278 
Q 2419 2681 2228 2873 
Q 2038 3066 1638 3066 
Q 1306 3066 1126 2930 
Q 947 2794 872 2484 
L 519 2484 
L 519 3200 
Q 816 3306 1134 3359 
Q 1453 3413 1806 3413 
Q 2697 3413 3111 3081 
Q 3525 2750 3525 2041 
z
M 2419 1044 
L 2419 1709 
L 2003 1709 
Q 1694 1709 1528 1540 
Q 1363 1372 1363 1056 
Q 1363 741 1483 584 
Q 1603 428 1850 428 
Q 2106 428 2262 597 
Q 2419 766 2419 1044 
z
" transform="scale(0.015625)"/>
      <path id="DejaVuSerif-Bold-74" d="M 634 2944 
L 153 2944 
L 153 3322 
L 634 3322 
L 634 4353 
L 1741 4353 
L 1741 3322 
L 2663 3322 
L 2663 2944 
L 1741 2944 
L 1741 909 
Q 1741 475 1809 369 
Q 1878 263 2059 263 
Q 2259 263 2356 397 
Q 2453 531 2459 813 
L 2925 813 
Q 2897 313 2651 111 
Q 2406 -91 1806 -91 
Q 1122 -91 878 123 
Q 634 338 634 909 
L 634 2944 
z
" transform="scale(0.015625)"/>
      <path id="DejaVuSans-Oblique-63" d="M 3431 3366 
L 3316 2797 
Q 3109 2947 2876 3022 
Q 2644 3097 2394 3097 
Q 2119 3097 1870 3000 
Q 1622 2903 1453 2725 
Q 1184 2453 1037 2087 
Q 891 1722 891 1331 
Q 891 859 1127 628 
Q 1363 397 1844 397 
Q 2081 397 2348 469 
Q 2616 541 2906 684 
L 2797 116 
Q 2547 13 2283 -39 
Q 2019 -91 1741 -91 
Q 1044 -91 669 257 
Q 294 606 294 1253 
Q 294 1797 489 2255 
Q 684 2713 1069 3078 
Q 1331 3328 1684 3456 
Q 2038 3584 2456 3584 
Q 2700 3584 2940 3529 
Q 3181 3475 3431 3366 
z
" transform="scale(0.015625)"/>
     </defs>
     <use xlink:href="#DejaVuSerif-Bold-43" transform="translate(0 0.015625)"/>
     <use xlink:href="#DejaVuSerif-Bold-72" transform="translate(79.589844 0.015625)"/>
     <use xlink:href="#DejaVuSerif-Bold-6f" transform="translate(132.275391 0.015625)"/>
     <use xlink:href="#DejaVuSerif-Bold-73" transform="translate(198.974609 0.015625)"/>
     <use xlink:href="#DejaVuSerif-Bold-73" transform="translate(255.273438 0.015625)"/>
     <use xlink:href="#DejaVuSerif-Bold-69" transform="translate(311.572266 0.015625)"/>
     <use xlink:href="#DejaVuSerif-Bold-6e" transform="translate(349.560547 0.015625)"/>
     <use xlink:href="#DejaVuSerif-Bold-67" transform="translate(422.265625 0.015625)"/>
     <use xlink:href="#DejaVuSerif-Bold-20" transform="translate(492.1875 0.015625)"/>
     <use xlink:href="#DejaVuSerif-Bold-61" transform="translate(527.001953 0.015625)"/>
     <use xlink:href="#DejaVuSerif-Bold-74" transform="translate(591.796875 0.015625)"/>
     <use xlink:href="#DejaVuSerif-Bold-20" transform="translate(637.988281 0.015625)"/>
     <use xlink:href="#DejaVuSans-Oblique-4d" transform="translate(672.802734 0.015625)"/>
     <use xlink:href="#DejaVuSans-Oblique-63" transform="translate(759.082031 -16.390625) scale(0.7)"/>
    </g>
   </g>
   <g id="text_17">
    <g id="patch_8">
     <path d="M 134.280865 85.100773 
L 205.101177 85.100773 
Q 208.101177 85.100773 208.101177 82.100773 
L 208.101177 61.224835 
Q 208.101177 58.224835 205.101177 58.224835 
L 134.280865 58.224835 
Q 131.280865 58.224835 131.280865 61.224835 
L 131.280865 82.100773 
Q 131.280865 85.100773 134.280865 85.100773 
z
" style="fill: #add8e6; opacity: 0.5; stroke: #000000; stroke-linejoin: miter"/>
    </g>
    <!-- Superposition -->
    <g style="fill: #0000ff" transform="translate(134.280865 68.823273) scale(0.1 -0.1)">
     <defs>
      <path id="DejaVuSerif-53" d="M 594 225 
L 594 1288 
L 953 1284 
Q 969 753 1261 498 
Q 1553 244 2150 244 
Q 2706 244 2998 464 
Q 3291 684 3291 1106 
Q 3291 1444 3114 1625 
Q 2938 1806 2369 1978 
L 1753 2163 
Q 1084 2366 811 2669 
Q 538 2972 538 3500 
Q 538 4094 959 4422 
Q 1381 4750 2144 4750 
Q 2469 4750 2856 4679 
Q 3244 4609 3681 4475 
L 3681 3481 
L 3328 3481 
Q 3275 3975 2998 4195 
Q 2722 4416 2156 4416 
Q 1663 4416 1405 4214 
Q 1147 4013 1147 3628 
Q 1147 3294 1340 3103 
Q 1534 2913 2163 2725 
L 2741 2553 
Q 3375 2363 3645 2067 
Q 3916 1772 3916 1275 
Q 3916 597 3481 253 
Q 3047 -91 2188 -91 
Q 1803 -91 1404 -12 
Q 1006 66 594 225 
z
" transform="scale(0.015625)"/>
      <path id="DejaVuSerif-75" d="M 2266 3322 
L 3341 3322 
L 3341 331 
L 3884 331 
L 3884 0 
L 2766 0 
L 2766 588 
Q 2606 256 2353 82 
Q 2100 -91 1766 -91 
Q 1213 -91 952 223 
Q 691 538 691 1209 
L 691 2988 
L 172 2988 
L 172 3322 
L 1269 3322 
L 1269 1388 
Q 1269 781 1417 556 
Q 1566 331 1947 331 
Q 2347 331 2556 625 
Q 2766 919 2766 1478 
L 2766 2988 
L 2266 2988 
L 2266 3322 
z
" transform="scale(0.015625)"/>
      <path id="DejaVuSerif-65" d="M 3469 1600 
L 991 1600 
L 991 1575 
Q 991 903 1244 561 
Q 1497 219 1991 219 
Q 2369 219 2611 417 
Q 2853 616 2950 1006 
L 3413 1006 
Q 3275 459 2904 184 
Q 2534 -91 1931 -91 
Q 1203 -91 761 389 
Q 319 869 319 1663 
Q 319 2450 753 2931 
Q 1188 3413 1894 3413 
Q 2647 3413 3050 2948 
Q 3453 2484 3469 1600 
z
M 2791 1931 
Q 2772 2513 2545 2808 
Q 2319 3103 1894 3103 
Q 1497 3103 1269 2806 
Q 1041 2509 991 1931 
L 2791 1931 
z
" transform="scale(0.015625)"/>
      <path id="DejaVuSerif-69" d="M 622 4353 
Q 622 4497 726 4603 
Q 831 4709 978 4709 
Q 1122 4709 1226 4603 
Q 1331 4497 1331 4353 
Q 1331 4206 1228 4103 
Q 1125 4000 978 4000 
Q 831 4000 726 4103 
Q 622 4206 622 4353 
z
M 1356 331 
L 1900 331 
L 1900 0 
L 231 0 
L 231 331 
L 781 331 
L 781 2988 
L 231 2988 
L 231 3322 
L 1356 3322 
L 1356 331 
z
" transform="scale(0.015625)"/>
     </defs>
     <use xlink:href="#DejaVuSerif-53"/>
     <use xlink:href="#DejaVuSerif-75" x="68.505859"/>
     <use xlink:href="#DejaVuSerif-70" x="132.910156"/>
     <use xlink:href="#DejaVuSerif-65" x="196.923828"/>
     <use xlink:href="#DejaVuSerif-72" x="256.103516"/>
     <use xlink:href="#DejaVuSerif-70" x="303.90625"/>
     <use xlink:href="#DejaVuSerif-6f" x="367.919922"/>
     <use xlink:href="#DejaVuSerif-73" x="428.125"/>
     <use xlink:href="#DejaVuSerif-69" x="479.443359"/>
     <use xlink:href="#DejaVuSerif-74" x="511.425781"/>
     <use xlink:href="#DejaVuSerif-69" x="551.611328"/>
     <use xlink:href="#DejaVuSerif-6f" x="583.59375"/>
     <use xlink:href="#DejaVuSerif-6e" x="643.798828"/>
    </g>
    <!-- possible -->
    <g style="fill: #0000ff" transform="translate(134.280865 80.021085) scale(0.1 -0.1)">
     <defs>
      <path id="DejaVuSerif-62" d="M 738 331 
L 738 4531 
L 184 4531 
L 184 4863 
L 1313 4863 
L 1313 2803 
Q 1481 3116 1742 3264 
Q 2003 3413 2388 3413 
Q 3000 3413 3387 2928 
Q 3775 2444 3775 1663 
Q 3775 881 3387 395 
Q 3000 -91 2388 -91 
Q 2003 -91 1742 57 
Q 1481 206 1313 519 
L 1313 0 
L 184 0 
L 184 331 
L 738 331 
z
M 1313 1497 
Q 1313 897 1542 583 
Q 1772 269 2209 269 
Q 2650 269 2876 622 
Q 3103 975 3103 1663 
Q 3103 2353 2876 2703 
Q 2650 3053 2209 3053 
Q 1772 3053 1542 2737 
Q 1313 2422 1313 1825 
L 1313 1497 
z
" transform="scale(0.015625)"/>
      <path id="DejaVuSerif-6c" d="M 1313 331 
L 1856 331 
L 1856 0 
L 184 0 
L 184 331 
L 738 331 
L 738 4531 
L 184 4531 
L 184 4863 
L 1313 4863 
L 1313 331 
z
" transform="scale(0.015625)"/>
     </defs>
     <use xlink:href="#DejaVuSerif-70"/>
     <use xlink:href="#DejaVuSerif-6f" x="64.013672"/>
     <use xlink:href="#DejaVuSerif-73" x="124.21875"/>
     <use xlink:href="#DejaVuSerif-73" x="175.537109"/>
     <use xlink:href="#DejaVuSerif-69" x="226.855469"/>
     <use xlink:href="#DejaVuSerif-62" x="258.837891"/>
     <use xlink:href="#DejaVuSerif-6c" x="322.851562"/>
     <use xlink:href="#DejaVuSerif-65" x="354.833984"/>
    </g>
   </g>
   <g id="text_18">
    <g id="patch_9">
     <path d="M 605.046054 85.100773 
L 675.866366 85.100773 
Q 678.866366 85.100773 678.866366 82.100773 
L 678.866366 61.224835 
Q 678.866366 58.224835 675.866366 58.224835 
L 605.046054 58.224835 
Q 602.046054 58.224835 602.046054 61.224835 
L 602.046054 82.100773 
Q 602.046054 85.100773 605.046054 85.100773 
z
" style="fill: #f08080; opacity: 0.5; stroke: #000000; stroke-linejoin: miter"/>
    </g>
    <!-- Superposition -->
    <g style="fill: #ff0000" transform="translate(605.046054 68.823273) scale(0.1 -0.1)">
     <use xlink:href="#DejaVuSerif-53"/>
     <use xlink:href="#DejaVuSerif-75" x="68.505859"/>
     <use xlink:href="#DejaVuSerif-70" x="132.910156"/>
     <use xlink:href="#DejaVuSerif-65" x="196.923828"/>
     <use xlink:href="#DejaVuSerif-72" x="256.103516"/>
     <use xlink:href="#DejaVuSerif-70" x="303.90625"/>
     <use xlink:href="#DejaVuSerif-6f" x="367.919922"/>
     <use xlink:href="#DejaVuSerif-73" x="428.125"/>
     <use xlink:href="#DejaVuSerif-69" x="479.443359"/>
     <use xlink:href="#DejaVuSerif-74" x="511.425781"/>
     <use xlink:href="#DejaVuSerif-69" x="551.611328"/>
     <use xlink:href="#DejaVuSerif-6f" x="583.59375"/>
     <use xlink:href="#DejaVuSerif-6e" x="643.798828"/>
    </g>
    <!-- forbidden -->
    <g style="fill: #ff0000" transform="translate(605.046054 80.021085) scale(0.1 -0.1)">
     <defs>
      <path id="DejaVuSerif-66" d="M 2753 4078 
L 2450 4078 
Q 2447 4313 2317 4434 
Q 2188 4556 1941 4556 
Q 1619 4556 1487 4379 
Q 1356 4203 1356 3750 
L 1356 3322 
L 2284 3322 
L 2284 2988 
L 1356 2988 
L 1356 331 
L 2094 331 
L 2094 0 
L 231 0 
L 231 331 
L 781 331 
L 781 2988 
L 231 2988 
L 231 3322 
L 781 3322 
L 781 3738 
Q 781 4294 1070 4578 
Q 1359 4863 1919 4863 
Q 2128 4863 2337 4825 
Q 2547 4788 2753 4709 
L 2753 4078 
z
" transform="scale(0.015625)"/>
      <path id="DejaVuSerif-64" d="M 3359 331 
L 3909 331 
L 3909 0 
L 2784 0 
L 2784 519 
Q 2616 206 2355 57 
Q 2094 -91 1709 -91 
Q 1097 -91 708 395 
Q 319 881 319 1663 
Q 319 2444 706 2928 
Q 1094 3413 1709 3413 
Q 2094 3413 2355 3264 
Q 2616 3116 2784 2803 
L 2784 4531 
L 2241 4531 
L 2241 4863 
L 3359 4863 
L 3359 331 
z
M 2784 1497 
L 2784 1825 
Q 2784 2422 2554 2737 
Q 2325 3053 1888 3053 
Q 1444 3053 1217 2703 
Q 991 2353 991 1663 
Q 991 975 1217 622 
Q 1444 269 1888 269 
Q 2325 269 2554 583 
Q 2784 897 2784 1497 
z
" transform="scale(0.015625)"/>
     </defs>
     <use xlink:href="#DejaVuSerif-66"/>
     <use xlink:href="#DejaVuSerif-6f" x="37.011719"/>
     <use xlink:href="#DejaVuSerif-72" x="97.216797"/>
     <use xlink:href="#DejaVuSerif-62" x="145.019531"/>
     <use xlink:href="#DejaVuSerif-69" x="209.033203"/>
     <use xlink:href="#DejaVuSerif-64" x="241.015625"/>
     <use xlink:href="#DejaVuSerif-64" x="305.029297"/>
     <use xlink:href="#DejaVuSerif-65" x="369.042969"/>
     <use xlink:href="#DejaVuSerif-6e" x="428.222656"/>
    </g>
   </g>
   <g id="text_19">
    <!-- Entropy Scaling: Required vs Available -->
    <g transform="translate(217.624553 17.837812) scale(0.14 -0.14)">
     <defs>
      <path id="DejaVuSerif-Bold-45" d="M 300 0 
L 300 378 
L 897 378 
L 897 4288 
L 300 4288 
L 300 4666 
L 4494 4666 
L 4494 3566 
L 4063 3566 
L 4063 4238 
L 2100 4238 
L 2100 2741 
L 3322 2741 
L 3322 3334 
L 3750 3334 
L 3750 1722 
L 3322 1722 
L 3322 2316 
L 2100 2316 
L 2100 428 
L 4122 428 
L 4122 1100 
L 4550 1100 
L 4550 0 
L 300 0 
z
" transform="scale(0.015625)"/>
      <path id="DejaVuSerif-Bold-70" d="M 1728 1825 
L 1728 1497 
Q 1728 916 1876 656 
Q 2025 397 2356 397 
Q 2697 397 2836 672 
Q 2975 947 2975 1663 
Q 2975 2378 2836 2651 
Q 2697 2925 2356 2925 
Q 2025 2925 1876 2665 
Q 1728 2406 1728 1825 
z
M 622 2944 
L 147 2944 
L 147 3322 
L 1728 3322 
L 1728 2900 
Q 1869 3159 2106 3286 
Q 2344 3413 2694 3413 
Q 3403 3413 3811 2945 
Q 4219 2478 4219 1663 
Q 4219 847 3811 378 
Q 3403 -91 2694 -91 
Q 2344 -91 2106 36 
Q 1869 163 1728 422 
L 1728 -953 
L 2241 -953 
L 2241 -1331 
L 147 -1331 
L 147 -953 
L 622 -953 
L 622 2944 
z
" transform="scale(0.015625)"/>
      <path id="DejaVuSerif-Bold-79" d="M 1997 -750 
Q 1847 -1116 1634 -1269 
Q 1422 -1422 1063 -1422 
Q 909 -1422 721 -1387 
Q 534 -1353 313 -1288 
L 313 -594 
L 666 -597 
Q 675 -838 779 -953 
Q 884 -1069 1094 -1069 
Q 1297 -1069 1422 -958 
Q 1547 -847 1672 -538 
L 1722 -422 
L 275 2944 
L -84 2944 
L -84 3322 
L 1831 3322 
L 1831 2944 
L 1434 2944 
L 2278 978 
L 3066 2944 
L 2625 2944 
L 2625 3322 
L 3872 3322 
L 3872 2944 
L 3469 2944 
L 1997 -750 
z
" transform="scale(0.015625)"/>
      <path id="DejaVuSerif-Bold-53" d="M 494 225 
L 494 1331 
L 891 1331 
Q 981 806 1318 547 
Q 1656 288 2253 288 
Q 2738 288 2991 472 
Q 3244 656 3244 1013 
Q 3244 1294 3072 1450 
Q 2900 1606 2363 1741 
L 1663 1913 
Q 978 2088 700 2398 
Q 422 2709 422 3284 
Q 422 3978 883 4364 
Q 1344 4750 2175 4750 
Q 2584 4750 3026 4681 
Q 3469 4613 3944 4475 
L 3944 3444 
L 3547 3444 
Q 3456 3925 3150 4148 
Q 2844 4372 2278 4372 
Q 1816 4372 1580 4211 
Q 1344 4050 1344 3731 
Q 1344 3441 1506 3289 
Q 1669 3138 2303 2975 
L 3003 2803 
Q 3653 2641 3945 2297 
Q 4238 1953 4238 1350 
Q 4238 644 3750 276 
Q 3263 -91 2316 -91 
Q 1859 -91 1409 -12 
Q 959 66 494 225 
z
" transform="scale(0.015625)"/>
      <path id="DejaVuSerif-Bold-63" d="M 3609 1038 
Q 3491 469 3123 189 
Q 2756 -91 2125 -91 
Q 1238 -91 750 368 
Q 263 828 263 1663 
Q 263 2488 744 2950 
Q 1225 3413 2081 3413 
Q 2428 3413 2781 3347 
Q 3134 3281 3500 3150 
L 3500 2228 
L 3150 2228 
Q 3100 2650 2903 2854 
Q 2706 3059 2350 3059 
Q 1888 3059 1692 2746 
Q 1497 2434 1497 1663 
Q 1497 909 1687 586 
Q 1878 263 2309 263 
Q 2644 263 2845 463 
Q 3047 663 3091 1038 
L 3609 1038 
z
" transform="scale(0.015625)"/>
      <path id="DejaVuSerif-Bold-6c" d="M 1797 378 
L 2272 378 
L 2272 0 
L 219 0 
L 219 378 
L 691 378 
L 691 4488 
L 219 4488 
L 219 4863 
L 1797 4863 
L 1797 378 
z
" transform="scale(0.015625)"/>
      <path id="DejaVuSerif-Bold-3a" d="M 588 2541 
Q 588 2788 761 2963 
Q 934 3138 1178 3138 
Q 1422 3138 1597 2961 
Q 1772 2784 1772 2541 
Q 1772 2297 1598 2125 
Q 1425 1953 1178 1953 
Q 931 1953 759 2125 
Q 588 2297 588 2541 
z
M 588 506 
Q 588 750 761 925 
Q 934 1100 1178 1100 
Q 1422 1100 1597 925 
Q 1772 750 1772 506 
Q 1772 259 1597 84 
Q 1422 -91 1178 -91 
Q 934 -91 761 84 
Q 588 259 588 506 
z
" transform="scale(0.015625)"/>
      <path id="DejaVuSerif-Bold-52" d="M 3397 2278 
Q 3675 2238 3865 2094 
Q 4056 1950 4197 1678 
L 4878 378 
L 5356 378 
L 5356 0 
L 3822 0 
L 3078 1409 
Q 2863 1847 2711 1967 
Q 2559 2088 2291 2088 
L 2100 2088 
L 2100 378 
L 2700 378 
L 2700 0 
L 300 0 
L 300 378 
L 897 378 
L 897 4288 
L 300 4288 
L 300 4666 
L 2963 4666 
Q 3775 4666 4217 4339 
Q 4659 4013 4659 3413 
Q 4659 2925 4345 2642 
Q 4031 2359 3397 2278 
z
M 2100 2463 
L 2509 2463 
Q 2947 2463 3183 2700 
Q 3419 2938 3419 3378 
Q 3419 3819 3183 4053 
Q 2947 4288 2509 4288 
L 2100 4288 
L 2100 2463 
z
" transform="scale(0.015625)"/>
      <path id="DejaVuSerif-Bold-65" d="M 2566 1875 
Q 2566 2531 2444 2795 
Q 2322 3059 2028 3059 
Q 1744 3059 1620 2800 
Q 1497 2541 1497 1931 
L 1497 1875 
L 2566 1875 
z
M 3781 1503 
L 1497 1503 
L 1497 1478 
Q 1497 834 1690 548 
Q 1884 263 2316 263 
Q 2675 263 2897 453 
Q 3119 644 3181 1006 
L 3700 1006 
Q 3566 441 3166 175 
Q 2766 -91 2047 -91 
Q 1184 -91 723 364 
Q 263 819 263 1663 
Q 263 2488 734 2950 
Q 1206 3413 2047 3413 
Q 2872 3413 3312 2927 
Q 3753 2441 3781 1503 
z
" transform="scale(0.015625)"/>
      <path id="DejaVuSerif-Bold-71" d="M 3853 2944 
L 3853 -953 
L 4325 -953 
L 4325 -1331 
L 2234 -1331 
L 2234 -953 
L 2747 -953 
L 2747 422 
Q 2606 163 2367 36 
Q 2128 -91 1778 -91 
Q 1072 -91 667 378 
Q 263 847 263 1663 
Q 263 2481 667 2947 
Q 1072 3413 1778 3413 
Q 2128 3413 2367 3286 
Q 2606 3159 2747 2900 
L 2747 3322 
L 4325 3322 
L 4325 2944 
L 3853 2944 
z
M 2747 1825 
Q 2747 2406 2597 2665 
Q 2447 2925 2119 2925 
Q 1775 2925 1636 2651 
Q 1497 2378 1497 1663 
Q 1497 947 1637 672 
Q 1778 397 2119 397 
Q 2447 397 2597 656 
Q 2747 916 2747 1497 
L 2747 1825 
z
" transform="scale(0.015625)"/>
      <path id="DejaVuSerif-Bold-75" d="M 3963 3322 
L 3963 378 
L 4434 378 
L 4434 0 
L 2853 0 
L 2853 469 
Q 2656 172 2400 40 
Q 2144 -91 1753 -91 
Q 1194 -91 908 239 
Q 622 569 622 1209 
L 622 2944 
L 147 2944 
L 147 3322 
L 1728 3322 
L 1728 1381 
Q 1728 763 1831 595 
Q 1934 428 2209 428 
Q 2544 428 2698 675 
Q 2853 922 2853 1459 
L 2853 2944 
L 2450 2944 
L 2450 3322 
L 3963 3322 
z
" transform="scale(0.015625)"/>
      <path id="DejaVuSerif-Bold-64" d="M 2747 1497 
L 2747 1825 
Q 2747 2406 2597 2665 
Q 2447 2925 2119 2925 
Q 1775 2925 1636 2651 
Q 1497 2378 1497 1663 
Q 1497 947 1637 672 
Q 1778 397 2119 397 
Q 2447 397 2597 656 
Q 2747 916 2747 1497 
z
M 3853 378 
L 4325 378 
L 4325 0 
L 2747 0 
L 2747 422 
Q 2606 163 2367 36 
Q 2128 -91 1778 -91 
Q 1072 -91 667 378 
Q 263 847 263 1663 
Q 263 2481 667 2947 
Q 1072 3413 1778 3413 
Q 2128 3413 2367 3286 
Q 2606 3159 2747 2900 
L 2747 4488 
L 2272 4488 
L 2272 4863 
L 3853 4863 
L 3853 378 
z
" transform="scale(0.015625)"/>
      <path id="DejaVuSerif-Bold-76" d="M 1428 0 
L 250 2944 
L -116 2944 
L -116 3322 
L 1791 3322 
L 1791 2944 
L 1388 2944 
L 2228 844 
L 3066 2944 
L 2631 2944 
L 2631 3322 
L 3878 3322 
L 3878 2944 
L 3494 2944 
L 2316 0 
L 1428 0 
z
" transform="scale(0.015625)"/>
      <path id="DejaVuSerif-Bold-41" d="M -50 0 
L -50 378 
L 331 378 
L 2088 4666 
L 2834 4666 
L 4594 378 
L 5038 378 
L 5038 0 
L 2853 0 
L 2853 378 
L 3309 378 
L 2925 1331 
L 1172 1331 
L 781 378 
L 1338 378 
L 1338 0 
L -50 0 
z
M 1325 1709 
L 2772 1709 
L 2053 3494 
L 1325 1709 
z
" transform="scale(0.015625)"/>
      <path id="DejaVuSerif-Bold-62" d="M 622 378 
L 622 4488 
L 147 4488 
L 147 4863 
L 1728 4863 
L 1728 2900 
Q 1869 3159 2106 3286 
Q 2344 3413 2694 3413 
Q 3403 3413 3811 2945 
Q 4219 2478 4219 1663 
Q 4219 847 3811 378 
Q 3403 -91 2694 -91 
Q 2344 -91 2106 36 
Q 1869 163 1728 422 
L 1728 0 
L 147 0 
L 147 378 
L 622 378 
z
M 1728 1497 
Q 1728 916 1876 656 
Q 2025 397 2356 397 
Q 2697 397 2836 672 
Q 2975 947 2975 1663 
Q 2975 2378 2836 2651 
Q 2697 2925 2356 2925 
Q 2025 2925 1876 2665 
Q 1728 2406 1728 1825 
L 1728 1497 
z
" transform="scale(0.015625)"/>
     </defs>
     <use xlink:href="#DejaVuSerif-Bold-45"/>
     <use xlink:href="#DejaVuSerif-Bold-6e" x="76.220703"/>
     <use xlink:href="#DejaVuSerif-Bold-74" x="148.925781"/>
     <use xlink:href="#DejaVuSerif-Bold-72" x="195.117188"/>
     <use xlink:href="#DejaVuSerif-Bold-6f" x="247.802734"/>
     <use xlink:href="#DejaVuSerif-Bold-70" x="314.501953"/>
     <use xlink:href="#DejaVuSerif-Bold-79" x="384.423828"/>
     <use xlink:href="#DejaVuSerif-Bold-20" x="442.529297"/>
     <use xlink:href="#DejaVuSerif-Bold-53" x="477.34375"/>
     <use xlink:href="#DejaVuSerif-Bold-63" x="549.560547"/>
     <use xlink:href="#DejaVuSerif-Bold-61" x="610.449219"/>
     <use xlink:href="#DejaVuSerif-Bold-6c" x="675.244141"/>
     <use xlink:href="#DejaVuSerif-Bold-69" x="713.232422"/>
     <use xlink:href="#DejaVuSerif-Bold-6e" x="751.220703"/>
     <use xlink:href="#DejaVuSerif-Bold-67" x="823.925781"/>
     <use xlink:href="#DejaVuSerif-Bold-3a" x="893.847656"/>
     <use xlink:href="#DejaVuSerif-Bold-20" x="930.761719"/>
     <use xlink:href="#DejaVuSerif-Bold-52" x="965.576172"/>
     <use xlink:href="#DejaVuSerif-Bold-65" x="1048.681641"/>
     <use xlink:href="#DejaVuSerif-Bold-71" x="1112.304688"/>
     <use xlink:href="#DejaVuSerif-Bold-75" x="1182.226562"/>
     <use xlink:href="#DejaVuSerif-Bold-69" x="1254.931641"/>
     <use xlink:href="#DejaVuSerif-Bold-72" x="1292.919922"/>
     <use xlink:href="#DejaVuSerif-Bold-65" x="1345.605469"/>
     <use xlink:href="#DejaVuSerif-Bold-64" x="1409.228516"/>
     <use xlink:href="#DejaVuSerif-Bold-20" x="1479.150391"/>
     <use xlink:href="#DejaVuSerif-Bold-76" x="1513.964844"/>
     <use xlink:href="#DejaVuSerif-Bold-73" x="1572.070312"/>
     <use xlink:href="#DejaVuSerif-Bold-20" x="1628.369141"/>
     <use xlink:href="#DejaVuSerif-Bold-41" x="1663.183594"/>
     <use xlink:href="#DejaVuSerif-Bold-76" x="1736.771484"/>
     <use xlink:href="#DejaVuSerif-Bold-61" x="1794.876953"/>
     <use xlink:href="#DejaVuSerif-Bold-69" x="1859.671875"/>
     <use xlink:href="#DejaVuSerif-Bold-6c" x="1897.660156"/>
     <use xlink:href="#DejaVuSerif-Bold-61" x="1935.648438"/>
     <use xlink:href="#DejaVuSerif-Bold-62" x="2000.443359"/>
     <use xlink:href="#DejaVuSerif-Bold-6c" x="2070.365234"/>
     <use xlink:href="#DejaVuSerif-Bold-65" x="2108.353516"/>
    </g>
   </g>
   <g id="line2d_94">
    <defs>
     <path id="mea6ba91cac" d="M 0 6 
C 1.591219 6 3.117479 5.367802 4.242641 4.242641 
C 5.367802 3.117479 6 1.591219 6 0 
C 6 -1.591219 5.367802 -3.117479 4.242641 -4.242641 
C 3.117479 -5.367802 1.591219 -6 0 -6 
C -1.591219 -6 -3.117479 -5.367802 -4.242641 -4.242641 
C -5.367802 -3.117479 -6 -1.591219 -6 0 
C -6 1.591219 -5.367802 3.117479 -4.242641 4.242641 
C -3.117479 5.367802 -1.591219 6 0 6 
z
" style="stroke: #000000"/>
    </defs>
    <g clip-path="url(#p435f6853fd)">
     <use xlink:href="#mea6ba91cac" x="396.530239" y="186.672079" style="stroke: #000000"/>
    </g>
   </g>
   <g id="legend_1">
    <g id="patch_10">
     <path d="M 62.82 78.758125 
L 230.92 78.758125 
Q 232.92 78.758125 232.92 76.758125 
L 232.92 30.837812 
Q 232.92 28.837812 230.92 28.837812 
L 62.82 28.837812 
Q 60.82 28.837812 60.82 30.837812 
L 60.82 76.758125 
Q 60.82 78.758125 62.82 78.758125 
z
" style="fill: #ffffff; opacity: 0.95; stroke: #cccccc; stroke-linejoin: miter"/>
    </g>
    <g id="line2d_95">
     <path d="M 64.82 36.937812 
L 74.82 36.937812 
L 84.82 36.937812 
" style="fill: none; stroke: #0000ff; stroke-width: 2.5; stroke-linecap: square"/>
    </g>
    <g id="text_20">
     <!-- $S_{required} \propto M$ (superposition) -->
     <g transform="translate(92.82 40.437812) scale(0.1 -0.1)">
      <defs>
       <path id="DejaVuSans-Oblique-72" d="M 2853 2969 
Q 2766 3016 2653 3041 
Q 2541 3066 2413 3066 
Q 1953 3066 1609 2717 
Q 1266 2369 1153 1784 
L 800 0 
L 225 0 
L 909 3500 
L 1484 3500 
L 1375 2956 
Q 1603 3259 1920 3421 
Q 2238 3584 2597 3584 
Q 2691 3584 2781 3573 
Q 2872 3563 2963 3538 
L 2853 2969 
z
" transform="scale(0.015625)"/>
       <path id="DejaVuSans-Oblique-65" d="M 3078 2063 
Q 3088 2113 3092 2166 
Q 3097 2219 3097 2272 
Q 3097 2653 2873 2875 
Q 2650 3097 2266 3097 
Q 1838 3097 1509 2826 
Q 1181 2556 1013 2059 
L 3078 2063 
z
M 3578 1613 
L 903 1613 
Q 884 1494 878 1425 
Q 872 1356 872 1306 
Q 872 872 1139 634 
Q 1406 397 1894 397 
Q 2269 397 2603 481 
Q 2938 566 3225 728 
L 3116 159 
Q 2806 34 2476 -28 
Q 2147 -91 1806 -91 
Q 1078 -91 686 257 
Q 294 606 294 1247 
Q 294 1794 489 2264 
Q 684 2734 1063 3103 
Q 1306 3334 1642 3459 
Q 1978 3584 2356 3584 
Q 2950 3584 3301 3228 
Q 3653 2872 3653 2272 
Q 3653 2128 3634 1964 
Q 3616 1800 3578 1613 
z
" transform="scale(0.015625)"/>
       <path id="DejaVuSans-Oblique-71" d="M 2669 525 
Q 2438 222 2123 65 
Q 1809 -91 1428 -91 
Q 897 -91 595 267 
Q 294 625 294 1253 
Q 294 1759 480 2231 
Q 666 2703 1013 3078 
Q 1238 3322 1530 3453 
Q 1822 3584 2144 3584 
Q 2531 3584 2781 3431 
Q 3031 3278 3144 2969 
L 3244 3494 
L 3822 3494 
L 2888 -1319 
L 2309 -1319 
L 2669 525 
z
M 891 1338 
Q 891 875 1084 633 
Q 1278 391 1644 391 
Q 2188 391 2572 911 
Q 2956 1431 2956 2175 
Q 2956 2625 2757 2864 
Q 2559 3103 2188 3103 
Q 1916 3103 1684 2976 
Q 1453 2850 1281 2606 
Q 1100 2350 995 2006 
Q 891 1663 891 1338 
z
" transform="scale(0.015625)"/>
       <path id="DejaVuSans-Oblique-75" d="M 428 1388 
L 838 3500 
L 1416 3500 
L 1006 1409 
Q 975 1256 961 1147 
Q 947 1038 947 966 
Q 947 700 1109 554 
Q 1272 409 1569 409 
Q 2031 409 2368 721 
Q 2706 1034 2809 1563 
L 3194 3500 
L 3769 3500 
L 3091 0 
L 2516 0 
L 2631 550 
Q 2388 244 2052 76 
Q 1716 -91 1338 -91 
Q 878 -91 622 161 
Q 366 413 366 863 
Q 366 956 381 1097 
Q 397 1238 428 1388 
z
" transform="scale(0.015625)"/>
       <path id="DejaVuSans-Oblique-69" d="M 1172 4863 
L 1747 4863 
L 1606 4134 
L 1031 4134 
L 1172 4863 
z
M 909 3500 
L 1484 3500 
L 800 0 
L 225 0 
L 909 3500 
z
" transform="scale(0.015625)"/>
       <path id="DejaVuSans-Oblique-64" d="M 2675 525 
Q 2444 222 2128 65 
Q 1813 -91 1428 -91 
Q 903 -91 598 267 
Q 294 625 294 1247 
Q 294 1766 478 2236 
Q 663 2706 1013 3078 
Q 1244 3325 1534 3454 
Q 1825 3584 2144 3584 
Q 2481 3584 2739 3421 
Q 2997 3259 3138 2956 
L 3513 4863 
L 4091 4863 
L 3144 0 
L 2566 0 
L 2675 525 
z
M 891 1350 
Q 891 897 1095 644 
Q 1300 391 1663 391 
Q 1931 391 2161 520 
Q 2391 650 2566 903 
Q 2750 1166 2856 1509 
Q 2963 1853 2963 2188 
Q 2963 2622 2758 2865 
Q 2553 3109 2194 3109 
Q 1922 3109 1687 2981 
Q 1453 2853 1288 2613 
Q 1106 2353 998 2009 
Q 891 1666 891 1350 
z
" transform="scale(0.015625)"/>
       <path id="DejaVuSans-221d" d="M 1647 1134 
Q 2163 1134 2472 1884 
Q 2075 2703 1647 2703 
Q 1334 2703 1175 2478 
Q 1006 2238 1006 1919 
Q 1006 1569 1175 1353 
Q 1350 1134 1647 1134 
z
M 3884 1128 
L 3884 716 
L 3644 716 
Q 3416 716 3247 809 
Q 3078 894 2916 1091 
Q 2819 1203 2666 1466 
Q 2456 1091 2272 925 
Q 2044 725 1681 725 
Q 1259 725 981 1041 
Q 688 1372 688 1919 
Q 688 2444 981 2800 
Q 1241 3116 1688 3116 
Q 1916 3116 2084 3022 
Q 2281 2919 2416 2741 
Q 2541 2581 2666 2366 
Q 2875 2741 3059 2906 
Q 3288 3106 3650 3106 
L 3884 3106 
L 3884 2697 
L 3684 2697 
Q 3222 2697 2859 1947 
Q 3256 1128 3684 1128 
L 3884 1128 
z
" transform="scale(0.015625)"/>
      </defs>
      <use xlink:href="#DejaVuSans-Oblique-53" transform="translate(0 0.015625)"/>
      <use xlink:href="#DejaVuSans-Oblique-72" transform="translate(63.476562 -16.390625) scale(0.7)"/>
      <use xlink:href="#DejaVuSans-Oblique-65" transform="translate(92.255859 -16.390625) scale(0.7)"/>
      <use xlink:href="#DejaVuSans-Oblique-71" transform="translate(135.322266 -16.390625) scale(0.7)"/>
      <use xlink:href="#DejaVuSans-Oblique-75" transform="translate(179.755859 -16.390625) scale(0.7)"/>
      <use xlink:href="#DejaVuSans-Oblique-69" transform="translate(224.121094 -16.390625) scale(0.7)"/>
      <use xlink:href="#DejaVuSans-Oblique-72" transform="translate(243.569336 -16.390625) scale(0.7)"/>
      <use xlink:href="#DejaVuSans-Oblique-65" transform="translate(272.348633 -16.390625) scale(0.7)"/>
      <use xlink:href="#DejaVuSans-Oblique-64" transform="translate(315.415039 -16.390625) scale(0.7)"/>
      <use xlink:href="#DejaVuSans-221d" transform="translate(382.06543 0.015625)"/>
      <use xlink:href="#DejaVuSans-Oblique-4d" transform="translate(472.983398 0.015625)"/>
      <use xlink:href="#DejaVuSerif-20" transform="translate(559.262695 0.015625)"/>
      <use xlink:href="#DejaVuSerif-28" transform="translate(591.049805 0.015625)"/>
      <use xlink:href="#DejaVuSerif-73" transform="translate(630.063477 0.015625)"/>
      <use xlink:href="#DejaVuSerif-75" transform="translate(681.381836 0.015625)"/>
      <use xlink:href="#DejaVuSerif-70" transform="translate(745.786133 0.015625)"/>
      <use xlink:href="#DejaVuSerif-65" transform="translate(809.799805 0.015625)"/>
      <use xlink:href="#DejaVuSerif-72" transform="translate(868.979492 0.015625)"/>
      <use xlink:href="#DejaVuSerif-70" transform="translate(916.782227 0.015625)"/>
      <use xlink:href="#DejaVuSerif-6f" transform="translate(980.795898 0.015625)"/>
      <use xlink:href="#DejaVuSerif-73" transform="translate(1041.000977 0.015625)"/>
      <use xlink:href="#DejaVuSerif-69" transform="translate(1092.319336 0.015625)"/>
      <use xlink:href="#DejaVuSerif-74" transform="translate(1124.301758 0.015625)"/>
      <use xlink:href="#DejaVuSerif-69" transform="translate(1164.487305 0.015625)"/>
      <use xlink:href="#DejaVuSerif-6f" transform="translate(1196.469727 0.015625)"/>
      <use xlink:href="#DejaVuSerif-6e" transform="translate(1256.674805 0.015625)"/>
      <use xlink:href="#DejaVuSerif-29" transform="translate(1321.079102 0.015625)"/>
     </g>
    </g>
    <g id="line2d_96">
     <path d="M 64.82 54.137812 
L 74.82 54.137812 
L 84.82 54.137812 
" style="fill: none; stroke: #ff0000; stroke-width: 2.5; stroke-linecap: square"/>
    </g>
    <g id="text_21">
     <!-- $S_{max} \propto M^{2/3}$ (holographic) -->
     <g transform="translate(92.82 57.637812) scale(0.1 -0.1)">
      <defs>
       <path id="DejaVuSans-Oblique-6d" d="M 5747 2113 
L 5338 0 
L 4763 0 
L 5166 2094 
Q 5191 2228 5203 2325 
Q 5216 2422 5216 2491 
Q 5216 2772 5059 2928 
Q 4903 3084 4622 3084 
Q 4203 3084 3875 2770 
Q 3547 2456 3450 1953 
L 3066 0 
L 2491 0 
L 2900 2094 
Q 2925 2209 2937 2307 
Q 2950 2406 2950 2484 
Q 2950 2769 2794 2926 
Q 2638 3084 2363 3084 
Q 1938 3084 1609 2770 
Q 1281 2456 1184 1953 
L 800 0 
L 225 0 
L 909 3500 
L 1484 3500 
L 1375 2956 
Q 1609 3263 1923 3423 
Q 2238 3584 2597 3584 
Q 2978 3584 3223 3384 
Q 3469 3184 3519 2828 
Q 3781 3197 4126 3390 
Q 4472 3584 4856 3584 
Q 5306 3584 5551 3325 
Q 5797 3066 5797 2591 
Q 5797 2488 5784 2364 
Q 5772 2241 5747 2113 
z
" transform="scale(0.015625)"/>
       <path id="DejaVuSans-Oblique-61" d="M 3438 1997 
L 3047 0 
L 2472 0 
L 2578 531 
Q 2325 219 2001 64 
Q 1678 -91 1281 -91 
Q 834 -91 548 182 
Q 263 456 263 884 
Q 263 1497 752 1853 
Q 1241 2209 2100 2209 
L 2900 2209 
L 2931 2363 
Q 2938 2388 2941 2417 
Q 2944 2447 2944 2509 
Q 2944 2788 2717 2942 
Q 2491 3097 2081 3097 
Q 1800 3097 1504 3025 
Q 1209 2953 897 2809 
L 997 3341 
Q 1322 3463 1633 3523 
Q 1944 3584 2234 3584 
Q 2853 3584 3176 3315 
Q 3500 3047 3500 2534 
Q 3500 2431 3484 2292 
Q 3469 2153 3438 1997 
z
M 2816 1759 
L 2241 1759 
Q 1534 1759 1195 1570 
Q 856 1381 856 984 
Q 856 709 1029 553 
Q 1203 397 1509 397 
Q 1978 397 2328 733 
Q 2678 1069 2791 1631 
L 2816 1759 
z
" transform="scale(0.015625)"/>
       <path id="DejaVuSans-Oblique-78" d="M 3841 3500 
L 2234 1784 
L 3219 0 
L 2559 0 
L 1819 1388 
L 531 0 
L -166 0 
L 1556 1844 
L 641 3500 
L 1300 3500 
L 1972 2234 
L 3144 3500 
L 3841 3500 
z
" transform="scale(0.015625)"/>
       <path id="DejaVuSans-32" d="M 1228 531 
L 3431 531 
L 3431 0 
L 469 0 
L 469 531 
Q 828 903 1448 1529 
Q 2069 2156 2228 2338 
Q 2531 2678 2651 2914 
Q 2772 3150 2772 3378 
Q 2772 3750 2511 3984 
Q 2250 4219 1831 4219 
Q 1534 4219 1204 4116 
Q 875 4013 500 3803 
L 500 4441 
Q 881 4594 1212 4672 
Q 1544 4750 1819 4750 
Q 2544 4750 2975 4387 
Q 3406 4025 3406 3419 
Q 3406 3131 3298 2873 
Q 3191 2616 2906 2266 
Q 2828 2175 2409 1742 
Q 1991 1309 1228 531 
z
" transform="scale(0.015625)"/>
       <path id="DejaVuSans-33" d="M 2597 2516 
Q 3050 2419 3304 2112 
Q 3559 1806 3559 1356 
Q 3559 666 3084 287 
Q 2609 -91 1734 -91 
Q 1441 -91 1130 -33 
Q 819 25 488 141 
L 488 750 
Q 750 597 1062 519 
Q 1375 441 1716 441 
Q 2309 441 2620 675 
Q 2931 909 2931 1356 
Q 2931 1769 2642 2001 
Q 2353 2234 1838 2234 
L 1294 2234 
L 1294 2753 
L 1863 2753 
Q 2328 2753 2575 2939 
Q 2822 3125 2822 3475 
Q 2822 3834 2567 4026 
Q 2313 4219 1838 4219 
Q 1578 4219 1281 4162 
Q 984 4106 628 3988 
L 628 4550 
Q 988 4650 1302 4700 
Q 1616 4750 1894 4750 
Q 2613 4750 3031 4423 
Q 3450 4097 3450 3541 
Q 3450 3153 3228 2886 
Q 3006 2619 2597 2516 
z
" transform="scale(0.015625)"/>
       <path id="DejaVuSerif-68" d="M 263 0 
L 263 331 
L 781 331 
L 781 4531 
L 231 4531 
L 231 4863 
L 1356 4863 
L 1356 2731 
Q 1516 3069 1770 3241 
Q 2025 3413 2363 3413 
Q 2913 3413 3172 3097 
Q 3431 2781 3431 2113 
L 3431 331 
L 3944 331 
L 3944 0 
L 2356 0 
L 2356 331 
L 2853 331 
L 2853 1931 
Q 2853 2541 2704 2764 
Q 2556 2988 2175 2988 
Q 1775 2988 1565 2697 
Q 1356 2406 1356 1850 
L 1356 331 
L 1856 331 
L 1856 0 
L 263 0 
z
" transform="scale(0.015625)"/>
       <path id="DejaVuSerif-63" d="M 3291 997 
Q 3169 466 2822 187 
Q 2475 -91 1925 -91 
Q 1200 -91 759 389 
Q 319 869 319 1663 
Q 319 2459 759 2936 
Q 1200 3413 1925 3413 
Q 2241 3413 2553 3339 
Q 2866 3266 3181 3116 
L 3181 2266 
L 2847 2266 
Q 2781 2703 2561 2903 
Q 2341 3103 1931 3103 
Q 1466 3103 1228 2742 
Q 991 2381 991 1663 
Q 991 944 1227 581 
Q 1463 219 1931 219 
Q 2303 219 2525 412 
Q 2747 606 2828 997 
L 3291 997 
z
" transform="scale(0.015625)"/>
      </defs>
      <use xlink:href="#DejaVuSans-Oblique-53" transform="translate(0 0.765625)"/>
      <use xlink:href="#DejaVuSans-Oblique-6d" transform="translate(63.476562 -15.640625) scale(0.7)"/>
      <use xlink:href="#DejaVuSans-Oblique-61" transform="translate(131.665039 -15.640625) scale(0.7)"/>
      <use xlink:href="#DejaVuSans-Oblique-78" transform="translate(174.560547 -15.640625) scale(0.7)"/>
      <use xlink:href="#DejaVuSans-221d" transform="translate(238.203125 0.765625)"/>
      <use xlink:href="#DejaVuSans-Oblique-4d" transform="translate(329.121094 0.765625)"/>
      <use xlink:href="#DejaVuSans-32" transform="translate(422.417161 39.046875) scale(0.7)"/>
      <use xlink:href="#DejaVuSans-2f" transform="translate(466.953294 39.046875) scale(0.7)"/>
      <use xlink:href="#DejaVuSans-33" transform="translate(490.537279 39.046875) scale(0.7)"/>
      <use xlink:href="#DejaVuSerif-20" transform="translate(537.807786 0.765625)"/>
      <use xlink:href="#DejaVuSerif-28" transform="translate(569.594896 0.765625)"/>
      <use xlink:href="#DejaVuSerif-68" transform="translate(608.608568 0.765625)"/>
      <use xlink:href="#DejaVuSerif-6f" transform="translate(673.012865 0.765625)"/>
      <use xlink:href="#DejaVuSerif-6c" transform="translate(733.217943 0.765625)"/>
      <use xlink:href="#DejaVuSerif-6f" transform="translate(765.200365 0.765625)"/>
      <use xlink:href="#DejaVuSerif-67" transform="translate(825.405443 0.765625)"/>
      <use xlink:href="#DejaVuSerif-72" transform="translate(889.419115 0.765625)"/>
      <use xlink:href="#DejaVuSerif-61" transform="translate(937.221849 0.765625)"/>
      <use xlink:href="#DejaVuSerif-70" transform="translate(996.84099 0.765625)"/>
      <use xlink:href="#DejaVuSerif-68" transform="translate(1060.854661 0.765625)"/>
      <use xlink:href="#DejaVuSerif-69" transform="translate(1125.258958 0.765625)"/>
      <use xlink:href="#DejaVuSerif-63" transform="translate(1157.24138 0.765625)"/>
      <use xlink:href="#DejaVuSerif-29" transform="translate(1213.24724 0.765625)"/>
     </g>
    </g>
    <g id="patch_11">
     <path d="M 64.82 72.53625 
L 84.82 72.53625 
L 84.82 65.53625 
L 64.82 65.53625 
z
" style="fill: #ff0000; fill-opacity: 0.3; stroke: #ff0000; stroke-opacity: 0.3; stroke-linejoin: miter"/>
    </g>
    <g id="text_22">
     <!-- Forbidden region -->
     <g transform="translate(92.82 72.53625) scale(0.1 -0.1)">
      <defs>
       <path id="DejaVuSerif-46" d="M 353 0 
L 353 331 
L 947 331 
L 947 4331 
L 353 4331 
L 353 4666 
L 4172 4666 
L 4172 3628 
L 3788 3628 
L 3788 4281 
L 1581 4281 
L 1581 2719 
L 3175 2719 
L 3175 3303 
L 3559 3303 
L 3559 1753 
L 3175 1753 
L 3175 2338 
L 1581 2338 
L 1581 331 
L 2328 331 
L 2328 0 
L 353 0 
z
" transform="scale(0.015625)"/>
      </defs>
      <use xlink:href="#DejaVuSerif-46"/>
      <use xlink:href="#DejaVuSerif-6f" x="63.884766"/>
      <use xlink:href="#DejaVuSerif-72" x="124.089844"/>
      <use xlink:href="#DejaVuSerif-62" x="171.892578"/>
      <use xlink:href="#DejaVuSerif-69" x="235.90625"/>
      <use xlink:href="#DejaVuSerif-64" x="267.888672"/>
      <use xlink:href="#DejaVuSerif-64" x="331.902344"/>
      <use xlink:href="#DejaVuSerif-65" x="395.916016"/>
      <use xlink:href="#DejaVuSerif-6e" x="455.095703"/>
      <use xlink:href="#DejaVuSerif-20" x="519.5"/>
      <use xlink:href="#DejaVuSerif-72" x="551.287109"/>
      <use xlink:href="#DejaVuSerif-65" x="599.089844"/>
      <use xlink:href="#DejaVuSerif-67" x="658.269531"/>
      <use xlink:href="#DejaVuSerif-69" x="722.283203"/>
      <use xlink:href="#DejaVuSerif-6f" x="754.265625"/>
      <use xlink:href="#DejaVuSerif-6e" x="814.470703"/>
     </g>
    </g>
   </g>
  </g>
 </g>
 <defs>
  <clipPath id="p435f6853fd">
   <rect x="55.82" y="23.837812" width="627.686919" height="353.152"/>
  </clipPath>
 </defs>
</svg>
